<?xml version="1.0" encoding="utf-8" standalone="no"?>
<!DOCTYPE svg PUBLIC "-//W3C//DTD SVG 1.1//EN"
  "http://www.w3.org/Graphics/SVG/1.1/DTD/svg11.dtd">
<svg xmlns:xlink="http://www.w3.org/1999/xlink" width="352.029375pt" height="246.693375pt" viewBox="0 0 352.029375 246.693375" xmlns="http://www.w3.org/2000/svg" version="1.1">
 <metadata>
  <rdf:RDF xmlns:dc="http://purl.org/dc/elements/1.1/" xmlns:cc="http://creativecommons.org/ns#" xmlns:rdf="http://www.w3.org/1999/02/22-rdf-syntax-ns#">
   <cc:Work>
    <dc:type rdf:resource="http://purl.org/dc/dcmitype/StillImage"/>
    <dc:date>2026-06-11T11:15:09.411859</dc:date>
    <dc:format>image/svg+xml</dc:format>
    <dc:creator>
     <cc:Agent>
      <dc:title>Matplotlib v3.10.9, https://matplotlib.org/</dc:title>
     </cc:Agent>
    </dc:creator>
   </cc:Work>
  </rdf:RDF>
 </metadata>
 <defs>
  <style type="text/css">*{stroke-linejoin: round; stroke-linecap: butt}</style>
 </defs>
 <g id="figure_1">
  <g id="patch_1">
   <path d="M 0 246.693375 
L 352.029375 246.693375 
L 352.029375 0 
L 0 0 
z
" style="fill: #ffffff"/>
  </g>
  <g id="axes_1">
   <g id="patch_2">
    <path d="M 43.509375 206.784 
L 344.829375 206.784 
L 344.829375 7.2 
L 43.509375 7.2 
z
" style="fill: #ffffff"/>
   </g>
   <g id="matplotlib.axis_1">
    <g id="xtick_1">
     <g id="line2d_1">
      <defs>
       <path id="mb4b270c663" d="M 0 0 
L 0 3.5 
" style="stroke: #1a1a1a; stroke-width: 0.8"/>
      </defs>
      <g>
       <use xlink:href="#mb4b270c663" x="57.205739" y="206.784" style="fill: #1a1a1a; stroke: #1a1a1a; stroke-width: 0.8"/>
      </g>
     </g>
     <g id="text_1">
      <!-- $\mathdefault{10^{8}}$ -->
      <g style="fill: #1a1a1a" transform="translate(50.005739 221.784) scale(0.1 -0.1)">
       <defs>
        <path id="NotoSerifKR-ExtraLight-31" d="M 525 0 
L 525 173 
L 1491 262 
L 1818 262 
L 2720 173 
L 2720 0 
L 525 0 
z
M 1440 0 
Q 1459 730 1459 1459 
L 1459 4333 
L 493 4160 
L 493 4346 
L 1773 4691 
L 1869 4614 
L 1843 3616 
L 1843 1459 
Q 1843 1101 1849 733 
Q 1856 365 1862 0 
L 1440 0 
z
" transform="scale(0.015625)"/>
        <path id="NotoSerifKR-ExtraLight-30" d="M 1734 -90 
Q 1370 -90 1043 153 
Q 717 397 512 928 
Q 307 1459 307 2323 
Q 307 3181 512 3709 
Q 717 4237 1043 4477 
Q 1370 4717 1734 4717 
Q 2106 4717 2429 4477 
Q 2752 4237 2953 3709 
Q 3155 3181 3155 2323 
Q 3155 1459 2953 928 
Q 2752 397 2429 153 
Q 2106 -90 1734 -90 
z
M 1734 102 
Q 1920 102 2102 214 
Q 2285 326 2429 582 
Q 2573 838 2659 1267 
Q 2746 1696 2746 2323 
Q 2746 2944 2659 3366 
Q 2573 3789 2429 4041 
Q 2285 4294 2102 4406 
Q 1920 4518 1734 4518 
Q 1542 4518 1363 4406 
Q 1184 4294 1040 4041 
Q 896 3789 809 3366 
Q 723 2944 723 2323 
Q 723 1696 809 1267 
Q 896 838 1040 582 
Q 1184 326 1363 214 
Q 1542 102 1734 102 
z
" transform="scale(0.015625)"/>
        <path id="NotoSerifKR-ExtraLight-38" d="M 1728 -90 
Q 1082 -90 726 217 
Q 371 525 371 1030 
Q 371 1472 665 1785 
Q 960 2099 1536 2355 
L 1536 2387 
L 1702 2291 
Q 1190 2029 963 1747 
Q 736 1466 736 1069 
Q 736 627 1001 364 
Q 1267 102 1734 102 
Q 2208 102 2473 355 
Q 2739 608 2739 1018 
Q 2739 1254 2630 1462 
Q 2522 1670 2266 1865 
Q 2010 2061 1562 2253 
Q 998 2496 758 2841 
Q 518 3187 518 3610 
Q 518 3949 684 4198 
Q 851 4448 1129 4582 
Q 1408 4717 1747 4717 
Q 2112 4717 2374 4582 
Q 2637 4448 2777 4211 
Q 2918 3974 2918 3661 
Q 2918 3315 2688 2982 
Q 2458 2650 1862 2394 
L 1862 2362 
L 1722 2451 
Q 2176 2701 2374 2982 
Q 2573 3264 2573 3667 
Q 2573 4006 2361 4262 
Q 2150 4518 1741 4518 
Q 1517 4518 1318 4419 
Q 1120 4320 1001 4131 
Q 883 3942 883 3680 
Q 883 3456 972 3248 
Q 1062 3040 1280 2854 
Q 1498 2669 1888 2502 
Q 2554 2208 2835 1878 
Q 3117 1549 3117 1088 
Q 3117 730 2941 464 
Q 2765 198 2451 54 
Q 2138 -90 1728 -90 
z
" transform="scale(0.015625)"/>
       </defs>
       <use xlink:href="#NotoSerifKR-ExtraLight-31" transform="translate(0 0.85)"/>
       <use xlink:href="#NotoSerifKR-ExtraLight-30" transform="translate(47.299988 0.85)"/>
       <use xlink:href="#NotoSerifKR-ExtraLight-38" transform="translate(102.38893 36.407813) scale(0.7)"/>
      </g>
     </g>
    </g>
    <g id="xtick_2">
     <g id="line2d_2">
      <g>
       <use xlink:href="#mb4b270c663" x="125.687557" y="206.784" style="fill: #1a1a1a; stroke: #1a1a1a; stroke-width: 0.8"/>
      </g>
     </g>
     <g id="text_2">
      <!-- $\mathdefault{10^{9}}$ -->
      <g style="fill: #1a1a1a" transform="translate(118.487557 221.784) scale(0.1 -0.1)">
       <defs>
        <path id="NotoSerifKR-ExtraLight-39" d="M 672 -96 
L 621 64 
Q 1331 320 1798 733 
Q 2266 1146 2493 1686 
Q 2720 2227 2720 2867 
Q 2720 3411 2589 3779 
Q 2458 4147 2230 4336 
Q 2003 4525 1722 4525 
Q 1466 4525 1248 4384 
Q 1030 4243 899 3971 
Q 768 3699 768 3302 
Q 768 2739 1069 2425 
Q 1370 2112 1818 2112 
Q 2112 2112 2365 2253 
Q 2618 2394 2816 2669 
L 2938 2643 
L 2893 2643 
Q 2726 2285 2416 2080 
Q 2106 1875 1690 1875 
Q 1312 1875 1011 2048 
Q 710 2221 537 2534 
Q 365 2848 365 3277 
Q 365 3718 544 4041 
Q 723 4365 1033 4541 
Q 1344 4717 1734 4717 
Q 2150 4717 2464 4496 
Q 2778 4275 2954 3862 
Q 3130 3450 3130 2880 
Q 3130 2202 2858 1610 
Q 2586 1018 2042 576 
Q 1498 134 672 -96 
z
" transform="scale(0.015625)"/>
       </defs>
       <use xlink:href="#NotoSerifKR-ExtraLight-31" transform="translate(0 0.85)"/>
       <use xlink:href="#NotoSerifKR-ExtraLight-30" transform="translate(47.299988 0.85)"/>
       <use xlink:href="#NotoSerifKR-ExtraLight-39" transform="translate(102.38893 36.407813) scale(0.7)"/>
      </g>
     </g>
    </g>
    <g id="xtick_3">
     <g id="line2d_3">
      <g>
       <use xlink:href="#mb4b270c663" x="194.169375" y="206.784" style="fill: #1a1a1a; stroke: #1a1a1a; stroke-width: 0.8"/>
      </g>
     </g>
     <g id="text_3">
      <!-- $\mathdefault{10^{10}}$ -->
      <g style="fill: #1a1a1a" transform="translate(185.369375 221.784) scale(0.1 -0.1)">
       <use xlink:href="#NotoSerifKR-ExtraLight-31" transform="translate(0 0.85)"/>
       <use xlink:href="#NotoSerifKR-ExtraLight-30" transform="translate(47.299988 0.85)"/>
       <use xlink:href="#NotoSerifKR-ExtraLight-31" transform="translate(102.38893 36.407813) scale(0.7)"/>
       <use xlink:href="#NotoSerifKR-ExtraLight-30" transform="translate(135.498922 36.407813) scale(0.7)"/>
      </g>
     </g>
    </g>
    <g id="xtick_4">
     <g id="line2d_4">
      <g>
       <use xlink:href="#mb4b270c663" x="262.651193" y="206.784" style="fill: #1a1a1a; stroke: #1a1a1a; stroke-width: 0.8"/>
      </g>
     </g>
     <g id="text_4">
      <!-- $\mathdefault{10^{11}}$ -->
      <g style="fill: #1a1a1a" transform="translate(254.051193 221.784) scale(0.1 -0.1)">
       <use xlink:href="#NotoSerifKR-ExtraLight-31" transform="translate(0 0.134375)"/>
       <use xlink:href="#NotoSerifKR-ExtraLight-30" transform="translate(47.299988 0.134375)"/>
       <use xlink:href="#NotoSerifKR-ExtraLight-31" transform="translate(102.38893 35.692188) scale(0.7)"/>
       <use xlink:href="#NotoSerifKR-ExtraLight-31" transform="translate(135.498922 35.692188) scale(0.7)"/>
      </g>
     </g>
    </g>
    <g id="xtick_5">
     <g id="line2d_5">
      <g>
       <use xlink:href="#mb4b270c663" x="331.133011" y="206.784" style="fill: #1a1a1a; stroke: #1a1a1a; stroke-width: 0.8"/>
      </g>
     </g>
     <g id="text_5">
      <!-- $\mathdefault{10^{12}}$ -->
      <g style="fill: #1a1a1a" transform="translate(322.283011 221.784) scale(0.1 -0.1)">
       <defs>
        <path id="NotoSerifKR-ExtraLight-32" d="M 416 0 
L 416 282 
Q 749 678 1062 1059 
Q 1376 1440 1613 1715 
Q 1952 2131 2160 2438 
Q 2368 2746 2464 3005 
Q 2560 3264 2560 3526 
Q 2560 4006 2313 4265 
Q 2067 4525 1619 4525 
Q 1434 4525 1248 4473 
Q 1062 4422 845 4282 
L 1094 4493 
L 909 3878 
Q 864 3731 803 3667 
Q 742 3603 646 3603 
Q 563 3603 505 3651 
Q 448 3699 422 3782 
Q 486 4096 678 4301 
Q 870 4506 1145 4611 
Q 1421 4717 1722 4717 
Q 2336 4717 2653 4406 
Q 2970 4096 2970 3526 
Q 2970 3245 2848 2973 
Q 2726 2701 2454 2352 
Q 2182 2003 1722 1491 
Q 1626 1389 1459 1197 
Q 1293 1005 1078 761 
Q 864 518 640 262 
L 691 448 
L 691 358 
L 3187 358 
L 3187 0 
L 416 0 
z
" transform="scale(0.015625)"/>
       </defs>
       <use xlink:href="#NotoSerifKR-ExtraLight-31" transform="translate(0 0.85)"/>
       <use xlink:href="#NotoSerifKR-ExtraLight-30" transform="translate(47.299988 0.85)"/>
       <use xlink:href="#NotoSerifKR-ExtraLight-31" transform="translate(102.38893 36.407813) scale(0.7)"/>
       <use xlink:href="#NotoSerifKR-ExtraLight-32" transform="translate(135.498922 36.407813) scale(0.7)"/>
      </g>
     </g>
    </g>
    <g id="xtick_6">
     <g id="line2d_6">
      <defs>
       <path id="ma197810967" d="M 0 0 
L 0 2 
" style="stroke: #1a1a1a; stroke-width: 0.6"/>
      </defs>
      <g>
       <use xlink:href="#ma197810967" x="46.597771" y="206.784" style="fill: #1a1a1a; stroke: #1a1a1a; stroke-width: 0.6"/>
      </g>
     </g>
    </g>
    <g id="xtick_7">
     <g id="line2d_7">
      <g>
       <use xlink:href="#ma197810967" x="50.569165" y="206.784" style="fill: #1a1a1a; stroke: #1a1a1a; stroke-width: 0.6"/>
      </g>
     </g>
    </g>
    <g id="xtick_8">
     <g id="line2d_8">
      <g>
       <use xlink:href="#ma197810967" x="54.072182" y="206.784" style="fill: #1a1a1a; stroke: #1a1a1a; stroke-width: 0.6"/>
      </g>
     </g>
    </g>
    <g id="xtick_9">
     <g id="line2d_9">
      <g>
       <use xlink:href="#ma197810967" x="77.82082" y="206.784" style="fill: #1a1a1a; stroke: #1a1a1a; stroke-width: 0.6"/>
      </g>
     </g>
    </g>
    <g id="xtick_10">
     <g id="line2d_10">
      <g>
       <use xlink:href="#ma197810967" x="89.87987" y="206.784" style="fill: #1a1a1a; stroke: #1a1a1a; stroke-width: 0.6"/>
      </g>
     </g>
    </g>
    <g id="xtick_11">
     <g id="line2d_11">
      <g>
       <use xlink:href="#ma197810967" x="98.435901" y="206.784" style="fill: #1a1a1a; stroke: #1a1a1a; stroke-width: 0.6"/>
      </g>
     </g>
    </g>
    <g id="xtick_12">
     <g id="line2d_12">
      <g>
       <use xlink:href="#ma197810967" x="105.072475" y="206.784" style="fill: #1a1a1a; stroke: #1a1a1a; stroke-width: 0.6"/>
      </g>
     </g>
    </g>
    <g id="xtick_13">
     <g id="line2d_13">
      <g>
       <use xlink:href="#ma197810967" x="110.494951" y="206.784" style="fill: #1a1a1a; stroke: #1a1a1a; stroke-width: 0.6"/>
      </g>
     </g>
    </g>
    <g id="xtick_14">
     <g id="line2d_14">
      <g>
       <use xlink:href="#ma197810967" x="115.079589" y="206.784" style="fill: #1a1a1a; stroke: #1a1a1a; stroke-width: 0.6"/>
      </g>
     </g>
    </g>
    <g id="xtick_15">
     <g id="line2d_15">
      <g>
       <use xlink:href="#ma197810967" x="119.050983" y="206.784" style="fill: #1a1a1a; stroke: #1a1a1a; stroke-width: 0.6"/>
      </g>
     </g>
    </g>
    <g id="xtick_16">
     <g id="line2d_16">
      <g>
       <use xlink:href="#ma197810967" x="122.554001" y="206.784" style="fill: #1a1a1a; stroke: #1a1a1a; stroke-width: 0.6"/>
      </g>
     </g>
    </g>
    <g id="xtick_17">
     <g id="line2d_17">
      <g>
       <use xlink:href="#ma197810967" x="146.302638" y="206.784" style="fill: #1a1a1a; stroke: #1a1a1a; stroke-width: 0.6"/>
      </g>
     </g>
    </g>
    <g id="xtick_18">
     <g id="line2d_18">
      <g>
       <use xlink:href="#ma197810967" x="158.361688" y="206.784" style="fill: #1a1a1a; stroke: #1a1a1a; stroke-width: 0.6"/>
      </g>
     </g>
    </g>
    <g id="xtick_19">
     <g id="line2d_19">
      <g>
       <use xlink:href="#ma197810967" x="166.91772" y="206.784" style="fill: #1a1a1a; stroke: #1a1a1a; stroke-width: 0.6"/>
      </g>
     </g>
    </g>
    <g id="xtick_20">
     <g id="line2d_20">
      <g>
       <use xlink:href="#ma197810967" x="173.554294" y="206.784" style="fill: #1a1a1a; stroke: #1a1a1a; stroke-width: 0.6"/>
      </g>
     </g>
    </g>
    <g id="xtick_21">
     <g id="line2d_21">
      <g>
       <use xlink:href="#ma197810967" x="178.976769" y="206.784" style="fill: #1a1a1a; stroke: #1a1a1a; stroke-width: 0.6"/>
      </g>
     </g>
    </g>
    <g id="xtick_22">
     <g id="line2d_22">
      <g>
       <use xlink:href="#ma197810967" x="183.561407" y="206.784" style="fill: #1a1a1a; stroke: #1a1a1a; stroke-width: 0.6"/>
      </g>
     </g>
    </g>
    <g id="xtick_23">
     <g id="line2d_23">
      <g>
       <use xlink:href="#ma197810967" x="187.532801" y="206.784" style="fill: #1a1a1a; stroke: #1a1a1a; stroke-width: 0.6"/>
      </g>
     </g>
    </g>
    <g id="xtick_24">
     <g id="line2d_24">
      <g>
       <use xlink:href="#ma197810967" x="191.035819" y="206.784" style="fill: #1a1a1a; stroke: #1a1a1a; stroke-width: 0.6"/>
      </g>
     </g>
    </g>
    <g id="xtick_25">
     <g id="line2d_25">
      <g>
       <use xlink:href="#ma197810967" x="214.784456" y="206.784" style="fill: #1a1a1a; stroke: #1a1a1a; stroke-width: 0.6"/>
      </g>
     </g>
    </g>
    <g id="xtick_26">
     <g id="line2d_26">
      <g>
       <use xlink:href="#ma197810967" x="226.843506" y="206.784" style="fill: #1a1a1a; stroke: #1a1a1a; stroke-width: 0.6"/>
      </g>
     </g>
    </g>
    <g id="xtick_27">
     <g id="line2d_27">
      <g>
       <use xlink:href="#ma197810967" x="235.399538" y="206.784" style="fill: #1a1a1a; stroke: #1a1a1a; stroke-width: 0.6"/>
      </g>
     </g>
    </g>
    <g id="xtick_28">
     <g id="line2d_28">
      <g>
       <use xlink:href="#ma197810967" x="242.036112" y="206.784" style="fill: #1a1a1a; stroke: #1a1a1a; stroke-width: 0.6"/>
      </g>
     </g>
    </g>
    <g id="xtick_29">
     <g id="line2d_29">
      <g>
       <use xlink:href="#ma197810967" x="247.458587" y="206.784" style="fill: #1a1a1a; stroke: #1a1a1a; stroke-width: 0.6"/>
      </g>
     </g>
    </g>
    <g id="xtick_30">
     <g id="line2d_30">
      <g>
       <use xlink:href="#ma197810967" x="252.043225" y="206.784" style="fill: #1a1a1a; stroke: #1a1a1a; stroke-width: 0.6"/>
      </g>
     </g>
    </g>
    <g id="xtick_31">
     <g id="line2d_31">
      <g>
       <use xlink:href="#ma197810967" x="256.014619" y="206.784" style="fill: #1a1a1a; stroke: #1a1a1a; stroke-width: 0.6"/>
      </g>
     </g>
    </g>
    <g id="xtick_32">
     <g id="line2d_32">
      <g>
       <use xlink:href="#ma197810967" x="259.517637" y="206.784" style="fill: #1a1a1a; stroke: #1a1a1a; stroke-width: 0.6"/>
      </g>
     </g>
    </g>
    <g id="xtick_33">
     <g id="line2d_33">
      <g>
       <use xlink:href="#ma197810967" x="283.266275" y="206.784" style="fill: #1a1a1a; stroke: #1a1a1a; stroke-width: 0.6"/>
      </g>
     </g>
    </g>
    <g id="xtick_34">
     <g id="line2d_34">
      <g>
       <use xlink:href="#ma197810967" x="295.325324" y="206.784" style="fill: #1a1a1a; stroke: #1a1a1a; stroke-width: 0.6"/>
      </g>
     </g>
    </g>
    <g id="xtick_35">
     <g id="line2d_35">
      <g>
       <use xlink:href="#ma197810967" x="303.881356" y="206.784" style="fill: #1a1a1a; stroke: #1a1a1a; stroke-width: 0.6"/>
      </g>
     </g>
    </g>
    <g id="xtick_36">
     <g id="line2d_36">
      <g>
       <use xlink:href="#ma197810967" x="310.51793" y="206.784" style="fill: #1a1a1a; stroke: #1a1a1a; stroke-width: 0.6"/>
      </g>
     </g>
    </g>
    <g id="xtick_37">
     <g id="line2d_37">
      <g>
       <use xlink:href="#ma197810967" x="315.940406" y="206.784" style="fill: #1a1a1a; stroke: #1a1a1a; stroke-width: 0.6"/>
      </g>
     </g>
    </g>
    <g id="xtick_38">
     <g id="line2d_38">
      <g>
       <use xlink:href="#ma197810967" x="320.525044" y="206.784" style="fill: #1a1a1a; stroke: #1a1a1a; stroke-width: 0.6"/>
      </g>
     </g>
    </g>
    <g id="xtick_39">
     <g id="line2d_39">
      <g>
       <use xlink:href="#ma197810967" x="324.496437" y="206.784" style="fill: #1a1a1a; stroke: #1a1a1a; stroke-width: 0.6"/>
      </g>
     </g>
    </g>
    <g id="xtick_40">
     <g id="line2d_40">
      <g>
       <use xlink:href="#ma197810967" x="327.999455" y="206.784" style="fill: #1a1a1a; stroke: #1a1a1a; stroke-width: 0.6"/>
      </g>
     </g>
    </g>
    <g id="text_6">
     <!-- 모델 규모 · parameters (log) -->
     <g style="fill: #1a1a1a" transform="translate(129.926406 236.893375) scale(0.1 -0.1)">
      <defs>
       <path id="NotoSerifKR-ExtraLight-baa8" d="M 1805 4384 
L 1414 4320 
Q 1357 4371 1251 4425 
Q 1146 4480 1037 4506 
L 1062 4627 
Q 1069 4653 1120 4653 
Q 1210 4653 1338 4646 
Q 1466 4640 1594 4627 
Q 1722 4614 1798 4595 
L 1805 4384 
z
M 1779 2086 
L 1581 2086 
Q 1562 2150 1549 2236 
Q 1536 2323 1530 2406 
L 1414 4339 
L 1805 4384 
L 1850 2490 
Q 1850 2355 1834 2259 
Q 1818 2163 1779 2086 
z
M 4346 4627 
L 4410 4403 
Q 4006 4410 3548 4406 
Q 3091 4403 2636 4396 
Q 2182 4390 1786 4384 
L 1792 4595 
Q 2022 4595 2364 4595 
Q 2707 4595 3078 4601 
Q 3450 4608 3786 4614 
Q 4122 4621 4346 4627 
z
M 4781 4346 
L 4397 4403 
L 4320 4621 
L 4512 4736 
Q 4557 4762 4602 4736 
Q 4653 4710 4729 4668 
Q 4806 4627 4845 4602 
Q 4877 4576 4858 4531 
L 4781 4346 
z
M 4608 2592 
L 4339 2579 
L 4397 4403 
L 4781 4358 
Q 4768 3949 4720 3485 
Q 4672 3021 4608 2592 
z
M 4710 2349 
L 1830 2323 
L 1837 2534 
Q 2086 2534 2412 2534 
Q 2739 2534 3081 2540 
Q 3424 2547 3721 2553 
Q 4019 2560 4211 2566 
L 4384 2618 
Q 4442 2630 4480 2633 
Q 4518 2637 4563 2618 
L 4736 2560 
Q 4774 2554 4774 2502 
Q 4774 2458 4755 2413 
Q 4736 2368 4710 2349 
z
M 3283 544 
L 2944 544 
L 2944 2419 
L 3283 2419 
L 3283 544 
z
M 5069 736 
L 5280 826 
Q 5395 826 5523 813 
Q 5651 800 5769 784 
Q 5888 768 5958 742 
Q 6035 723 6035 653 
Q 6035 589 5996 534 
Q 5958 480 5920 461 
Q 5837 474 5702 480 
Q 5568 486 5437 489 
Q 5306 493 5210 493 
Q 5101 493 4800 493 
Q 4499 493 4096 486 
Q 3693 480 3254 477 
Q 2816 474 2422 467 
Q 2029 461 1753 454 
Q 1478 448 1395 442 
Q 1318 435 1203 416 
Q 1088 397 976 371 
Q 864 346 787 320 
Q 621 371 464 448 
Q 307 525 198 608 
Q 173 627 179 653 
L 218 736 
Q 365 710 553 691 
Q 742 672 883 672 
Q 966 672 1209 672 
Q 1453 672 1801 675 
Q 2150 678 2550 684 
Q 2950 691 3353 697 
Q 3757 704 4112 710 
Q 4467 717 4720 723 
Q 4973 730 5069 736 
z
" transform="scale(0.015625)"/>
       <path id="NotoSerifKR-ExtraLight-b378" d="M 4915 1709 
L 4915 1510 
Q 4806 1510 4592 1510 
Q 4378 1510 4118 1507 
Q 3859 1504 3603 1501 
Q 3347 1498 3148 1494 
Q 2950 1491 2867 1485 
Q 2784 1478 2637 1449 
Q 2490 1421 2381 1382 
Q 2240 1427 2115 1484 
Q 1990 1542 1894 1606 
Q 1862 1632 1875 1664 
L 1907 1722 
Q 2029 1696 2179 1683 
Q 2330 1670 2445 1670 
Q 2554 1670 2797 1673 
Q 3040 1677 3350 1680 
Q 3661 1683 3974 1686 
Q 4288 1690 4541 1696 
Q 4794 1702 4915 1709 
z
M 5632 -474 
L 2682 -486 
L 2669 -275 
Q 2810 -275 3050 -275 
Q 3290 -275 3571 -275 
Q 3853 -275 4131 -272 
Q 4410 -269 4634 -265 
Q 4858 -262 4979 -256 
L 5158 -160 
Q 5286 -160 5443 -169 
Q 5600 -179 5683 -198 
Q 5754 -211 5754 -269 
Q 5754 -339 5734 -387 
Q 5715 -435 5702 -448 
Q 5677 -474 5632 -474 
z
M 2726 -275 
L 2682 -486 
Q 2438 -486 2348 -403 
Q 2259 -320 2259 -122 
L 2259 250 
L 2618 250 
L 2618 -166 
Q 2618 -275 2726 -275 
z
M 2618 26 
L 2259 26 
L 2259 480 
Q 2195 531 2102 569 
Q 2010 608 1901 621 
L 1920 723 
Q 1933 755 1984 755 
Q 2061 755 2185 752 
Q 2310 749 2435 742 
Q 2560 736 2630 723 
L 2618 531 
L 2618 26 
z
M 5306 1478 
L 4902 1510 
L 4896 1709 
L 5062 1792 
Q 5107 1811 5158 1792 
Q 5197 1773 5261 1737 
Q 5325 1702 5357 1677 
Q 5389 1651 5370 1600 
L 5306 1478 
z
M 5178 774 
L 4890 774 
Q 4896 858 4899 1002 
Q 4902 1146 4905 1293 
Q 4909 1440 4902 1517 
L 5306 1491 
Q 5299 1344 5257 1123 
Q 5216 902 5178 774 
z
M 5274 563 
L 2522 531 
L 2522 723 
Q 2624 723 2857 726 
Q 3091 730 3385 733 
Q 3680 736 3971 739 
Q 4262 742 4486 745 
Q 4710 749 4794 755 
L 4928 800 
Q 4979 813 5046 813 
Q 5114 813 5152 794 
L 5293 723 
Q 5318 704 5318 678 
Q 5318 640 5305 608 
Q 5293 576 5274 563 
z
M 3283 2611 
L 3302 2547 
Q 3315 2515 3270 2496 
Q 3014 2400 2684 2313 
Q 2355 2227 2032 2172 
Q 1709 2118 1472 2106 
Q 1427 2099 1369 2099 
Q 1312 2099 1274 2099 
Q 1133 2099 1046 2150 
Q 960 2202 909 2317 
Q 896 2349 886 2425 
Q 877 2502 877 2611 
L 877 3456 
L 1229 3456 
L 1229 2515 
Q 1229 2413 1344 2413 
Q 1613 2413 1965 2441 
Q 2317 2470 2656 2524 
Q 2995 2579 3232 2637 
Q 3277 2650 3283 2611 
z
M 1229 3168 
L 877 3168 
L 877 4147 
Q 730 4262 512 4301 
L 538 4422 
Q 550 4454 602 4454 
Q 678 4454 800 4448 
Q 922 4442 1046 4435 
Q 1171 4429 1242 4416 
L 1229 4192 
L 1229 3168 
z
M 2893 4269 
L 1210 4192 
L 1210 4416 
Q 1293 4416 1456 4425 
Q 1619 4435 1804 4444 
Q 1990 4454 2147 4467 
Q 2304 4480 2368 4486 
L 2509 4576 
Q 2598 4576 2732 4563 
Q 2867 4550 2944 4538 
Q 3008 4531 3008 4467 
Q 3008 4403 2992 4358 
Q 2976 4314 2963 4294 
Q 2944 4269 2893 4269 
z
M 2867 3590 
L 3213 3373 
Q 3123 3366 3011 3344 
Q 2899 3322 2810 3290 
Q 2522 3379 2330 3514 
Q 2298 3533 2310 3565 
L 2336 3629 
Q 2464 3610 2605 3600 
Q 2746 3590 2867 3590 
z
M 4032 3635 
L 4032 3398 
Q 3917 3405 3757 3398 
Q 3597 3392 3446 3385 
Q 3296 3379 3213 3373 
L 2867 3590 
Q 2989 3590 3203 3596 
Q 3418 3603 3648 3612 
Q 3878 3622 4032 3635 
z
M 5286 2010 
L 5075 2010 
Q 5069 2118 5065 2278 
Q 5062 2438 5059 2601 
Q 5056 2765 5056 2880 
L 5056 5005 
Q 4973 5094 4838 5171 
Q 4704 5248 4544 5293 
L 4582 5414 
Q 4589 5434 4605 5440 
Q 4621 5446 4646 5446 
Q 4742 5446 4876 5424 
Q 5011 5402 5139 5370 
Q 5267 5338 5338 5306 
Q 5421 5280 5408 5197 
L 5395 4902 
L 5395 3008 
Q 5395 2842 5382 2659 
Q 5370 2477 5344 2307 
Q 5318 2138 5286 2010 
z
M 4166 2029 
L 3962 2029 
Q 3955 2144 3948 2301 
Q 3942 2458 3942 2621 
Q 3942 2784 3942 2899 
L 3942 4672 
Q 3872 4755 3747 4822 
Q 3622 4890 3482 4934 
L 3520 5056 
Q 3533 5088 3584 5088 
Q 3674 5088 3798 5065 
Q 3923 5043 4038 5014 
Q 4154 4986 4224 4954 
Q 4288 4928 4288 4851 
L 4275 4589 
L 4275 3027 
Q 4275 2848 4262 2665 
Q 4250 2483 4224 2316 
Q 4198 2150 4166 2029 
z
" transform="scale(0.015625)"/>
       <path id="NotoSerifKR-ExtraLight-20" transform="scale(0.015625)"/>
       <path id="NotoSerifKR-ExtraLight-addc" d="M 4493 4819 
L 4493 4602 
Q 4346 4602 4090 4598 
Q 3834 4595 3533 4592 
Q 3232 4589 2941 4582 
Q 2650 4576 2426 4569 
Q 2202 4563 2106 4557 
Q 1990 4550 1808 4518 
Q 1626 4486 1517 4448 
Q 1376 4493 1238 4563 
Q 1101 4634 998 4710 
Q 973 4736 979 4762 
L 1018 4832 
Q 1146 4806 1309 4790 
Q 1472 4774 1600 4774 
Q 1690 4774 1904 4777 
Q 2118 4781 2412 4784 
Q 2707 4787 3027 4790 
Q 3347 4794 3644 4800 
Q 3942 4806 4169 4809 
Q 4397 4813 4493 4819 
z
M 4902 4538 
L 4486 4602 
L 4435 4813 
L 4659 4928 
Q 4710 4947 4755 4928 
Q 4806 4902 4873 4857 
Q 4941 4813 4973 4781 
Q 5005 4755 4986 4710 
L 4902 4538 
z
M 4301 2214 
L 4230 2234 
Q 4198 2240 4205 2291 
Q 4282 2650 4342 3066 
Q 4403 3482 4441 3885 
Q 4480 4288 4486 4602 
L 4730 4666 
L 4902 4538 
Q 4883 4218 4803 3811 
Q 4723 3405 4611 2998 
Q 4499 2592 4365 2253 
Q 4346 2214 4301 2214 
z
M 5069 2336 
L 5280 2426 
Q 5395 2426 5523 2413 
Q 5651 2400 5769 2384 
Q 5888 2368 5958 2342 
Q 6035 2323 6035 2253 
Q 6035 2189 5996 2134 
Q 5958 2080 5920 2061 
Q 5837 2074 5702 2080 
Q 5568 2086 5437 2089 
Q 5306 2093 5210 2093 
Q 5101 2093 4800 2093 
Q 4499 2093 4096 2086 
Q 3693 2080 3254 2077 
Q 2816 2074 2422 2067 
Q 2029 2061 1753 2054 
Q 1478 2048 1395 2042 
Q 1318 2035 1203 2016 
Q 1088 1997 976 1971 
Q 864 1946 787 1920 
Q 621 1971 464 2048 
Q 307 2125 198 2208 
Q 173 2227 179 2253 
L 218 2336 
Q 365 2310 553 2291 
Q 742 2272 883 2272 
Q 966 2272 1209 2272 
Q 1453 2272 1801 2275 
Q 2150 2278 2550 2284 
Q 2950 2291 3353 2297 
Q 3757 2304 4112 2310 
Q 4467 2317 4720 2323 
Q 4973 2330 5069 2336 
z
M 4141 -685 
L 3936 -685 
Q 3930 -576 3923 -435 
Q 3917 -294 3913 -147 
Q 3910 0 3910 141 
Q 3910 282 3910 390 
L 3910 2291 
L 4250 2291 
L 4250 499 
Q 4250 384 4243 233 
Q 4237 83 4221 -83 
Q 4205 -250 4185 -403 
Q 4166 -557 4141 -685 
z
M 2221 -576 
L 2016 -576 
Q 2010 -467 2003 -329 
Q 1997 -192 1993 -45 
Q 1990 102 1990 243 
Q 1990 384 1990 493 
L 1990 2208 
L 2330 2208 
L 2330 608 
Q 2330 493 2323 339 
Q 2317 186 2301 22 
Q 2285 -141 2265 -297 
Q 2246 -454 2221 -576 
z
" transform="scale(0.015625)"/>
       <path id="NotoSerifKR-ExtraLight-b7" d="M 1030 1958 
Q 883 1958 787 2060 
Q 691 2163 691 2298 
Q 691 2445 787 2544 
Q 883 2643 1030 2643 
Q 1178 2643 1277 2544 
Q 1376 2445 1376 2298 
Q 1376 2163 1277 2060 
Q 1178 1958 1030 1958 
z
" transform="scale(0.015625)"/>
       <path id="NotoSerifKR-ExtraLight-70" d="M 269 -1664 
L 269 -1491 
L 986 -1427 
L 1120 -1427 
L 1914 -1491 
L 1914 -1664 
L 269 -1664 
z
M 845 -1664 
Q 851 -1466 854 -1213 
Q 858 -960 861 -694 
Q 864 -429 864 -205 
L 864 1779 
Q 864 2112 861 2393 
Q 858 2675 845 2912 
L 250 2938 
L 250 3104 
L 1126 3322 
L 1210 3270 
L 1242 2720 
L 1254 2688 
L 1254 512 
L 1248 454 
L 1248 -205 
Q 1248 -422 1251 -688 
Q 1254 -954 1257 -1210 
Q 1261 -1466 1267 -1664 
L 845 -1664 
z
M 2272 -90 
Q 1997 -90 1705 28 
Q 1414 147 1165 480 
L 1082 480 
L 1158 691 
Q 1421 397 1664 285 
Q 1907 173 2189 173 
Q 2477 173 2713 320 
Q 2950 467 3094 793 
Q 3238 1120 3238 1645 
Q 3238 2362 2953 2723 
Q 2669 3085 2214 3085 
Q 1958 3085 1699 2960 
Q 1440 2835 1139 2490 
L 1082 2688 
L 1158 2688 
Q 1414 3040 1724 3190 
Q 2035 3341 2342 3341 
Q 2733 3341 3027 3133 
Q 3322 2925 3491 2547 
Q 3661 2170 3661 1658 
Q 3661 1120 3485 726 
Q 3309 333 2995 121 
Q 2682 -90 2272 -90 
z
" transform="scale(0.015625)"/>
       <path id="NotoSerifKR-ExtraLight-61" d="M 1222 -90 
Q 851 -90 601 121 
Q 352 333 352 730 
Q 352 966 457 1155 
Q 563 1344 803 1497 
Q 1043 1651 1440 1766 
Q 1715 1850 2000 1923 
Q 2285 1997 2541 2054 
L 2541 1901 
Q 2285 1837 2019 1760 
Q 1754 1683 1517 1594 
Q 1088 1440 918 1241 
Q 749 1043 749 800 
Q 749 499 921 345 
Q 1094 192 1376 192 
Q 1536 192 1686 253 
Q 1837 314 2025 461 
Q 2214 608 2470 858 
L 2509 570 
L 2387 570 
Q 2182 352 2003 205 
Q 1824 58 1638 -16 
Q 1453 -90 1222 -90 
z
M 2899 -83 
Q 2630 -83 2499 112 
Q 2368 307 2355 653 
L 2355 678 
L 2355 2240 
Q 2355 2605 2272 2800 
Q 2189 2995 2022 3072 
Q 1856 3149 1600 3149 
Q 1408 3149 1216 3091 
Q 1024 3034 819 2906 
L 1050 3085 
L 928 2573 
Q 902 2445 838 2393 
Q 774 2342 672 2342 
Q 474 2342 435 2541 
Q 544 2918 870 3129 
Q 1197 3341 1683 3341 
Q 2208 3341 2470 3088 
Q 2733 2835 2733 2266 
L 2733 723 
Q 2733 390 2809 275 
Q 2886 160 3027 160 
Q 3110 160 3174 192 
Q 3238 224 3315 294 
L 3411 192 
Q 3315 51 3184 -16 
Q 3053 -83 2899 -83 
z
" transform="scale(0.015625)"/>
       <path id="NotoSerifKR-ExtraLight-72" d="M 282 0 
L 282 173 
L 992 250 
L 1139 250 
L 1869 173 
L 1869 0 
L 282 0 
z
M 838 0 
Q 845 154 848 413 
Q 851 672 854 953 
Q 858 1235 858 1446 
L 858 1798 
Q 858 2131 854 2403 
Q 851 2675 838 2912 
L 250 2938 
L 250 3104 
L 1126 3322 
L 1210 3270 
L 1248 2374 
L 1248 2368 
L 1248 1446 
Q 1248 1235 1251 953 
Q 1254 672 1257 413 
Q 1261 154 1267 0 
L 838 0 
z
M 1242 2035 
L 1133 2349 
L 1222 2349 
Q 1325 2643 1497 2867 
Q 1670 3091 1884 3216 
Q 2099 3341 2330 3341 
Q 2502 3341 2633 3277 
Q 2765 3213 2810 3110 
Q 2810 2957 2739 2873 
Q 2669 2790 2515 2790 
Q 2413 2790 2326 2841 
Q 2240 2893 2131 2995 
L 1984 3123 
L 2298 3123 
Q 1939 3053 1683 2790 
Q 1427 2528 1242 2035 
z
" transform="scale(0.015625)"/>
       <path id="NotoSerifKR-ExtraLight-6d" d="M 282 0 
L 282 173 
L 986 243 
L 1114 243 
L 1773 173 
L 1773 0 
L 282 0 
z
M 838 0 
Q 845 154 848 413 
Q 851 672 854 953 
Q 858 1235 858 1446 
L 858 1805 
Q 858 2131 854 2403 
Q 851 2675 838 2912 
L 250 2938 
L 250 3104 
L 1126 3322 
L 1210 3270 
L 1248 2534 
L 1248 2515 
L 1248 1446 
Q 1248 1235 1251 953 
Q 1254 672 1257 413 
Q 1261 154 1267 0 
L 838 0 
z
M 2362 0 
L 2362 173 
L 3059 243 
L 3194 243 
L 3846 173 
L 3846 0 
L 2362 0 
z
M 2918 0 
Q 2925 154 2928 410 
Q 2931 666 2934 947 
Q 2938 1229 2938 1446 
L 2938 2138 
Q 2938 2630 2774 2832 
Q 2611 3034 2349 3034 
Q 2106 3034 1821 2890 
Q 1536 2746 1178 2349 
L 1107 2547 
L 1165 2547 
Q 1485 2944 1814 3142 
Q 2144 3341 2477 3341 
Q 2874 3341 3094 3069 
Q 3315 2797 3315 2144 
L 3315 1446 
Q 3315 1229 3318 947 
Q 3322 666 3325 410 
Q 3328 154 3334 0 
L 2918 0 
z
M 4435 0 
L 4435 173 
L 5133 243 
L 5261 243 
L 5926 173 
L 5926 0 
L 4435 0 
z
M 4986 0 
Q 4998 154 5001 410 
Q 5005 666 5008 947 
Q 5011 1229 5011 1446 
L 5011 2138 
Q 5011 2643 4844 2838 
Q 4678 3034 4390 3034 
Q 4154 3034 3869 2902 
Q 3584 2771 3245 2394 
L 3168 2586 
L 3219 2586 
Q 3533 2976 3859 3158 
Q 4186 3341 4525 3341 
Q 4941 3341 5168 3072 
Q 5395 2803 5395 2163 
L 5395 1446 
Q 5395 1229 5398 947 
Q 5402 666 5405 410 
Q 5408 154 5414 0 
L 4986 0 
z
" transform="scale(0.015625)"/>
       <path id="NotoSerifKR-ExtraLight-65" d="M 1907 -90 
Q 1453 -90 1094 96 
Q 736 282 534 662 
Q 333 1043 333 1613 
Q 333 2138 541 2525 
Q 749 2912 1094 3126 
Q 1440 3341 1850 3341 
Q 2246 3341 2531 3171 
Q 2816 3002 2969 2710 
Q 3123 2419 3123 2048 
Q 3123 1811 3085 1664 
L 525 1664 
L 525 1856 
L 2477 1856 
Q 2630 1856 2684 1936 
Q 2739 2016 2739 2182 
Q 2739 2586 2505 2864 
Q 2272 3142 1843 3142 
Q 1536 3142 1286 2963 
Q 1037 2784 889 2454 
Q 742 2125 742 1683 
Q 742 1171 902 838 
Q 1062 506 1344 349 
Q 1626 192 1990 192 
Q 2330 192 2589 307 
Q 2848 422 3053 653 
L 3149 563 
Q 2938 262 2630 86 
Q 2323 -90 1907 -90 
z
" transform="scale(0.015625)"/>
       <path id="NotoSerifKR-ExtraLight-74" d="M 954 3021 
L 954 3251 
L 2106 3251 
L 2106 3021 
L 954 3021 
z
M 1485 -90 
Q 1107 -90 931 112 
Q 755 314 755 717 
Q 755 864 758 976 
Q 762 1088 762 1254 
L 762 3021 
L 90 3021 
L 90 3213 
L 890 3270 
L 762 3174 
L 909 4243 
L 1184 4243 
L 1152 3155 
L 1152 3078 
L 1152 736 
Q 1152 429 1264 291 
Q 1376 154 1594 154 
Q 1741 154 1853 192 
Q 1965 230 2093 301 
L 2182 186 
Q 2054 51 1881 -19 
Q 1709 -90 1485 -90 
z
" transform="scale(0.015625)"/>
       <path id="NotoSerifKR-ExtraLight-73" d="M 1389 -90 
Q 1094 -90 860 -29 
Q 627 32 371 147 
L 358 877 
L 602 877 
L 736 109 
L 531 115 
L 531 346 
Q 704 230 902 166 
Q 1101 102 1389 102 
Q 1830 102 2051 284 
Q 2272 467 2272 742 
Q 2272 986 2121 1136 
Q 1971 1286 1574 1414 
L 1254 1536 
Q 877 1677 653 1888 
Q 429 2099 429 2445 
Q 429 2822 720 3081 
Q 1011 3341 1555 3341 
Q 1837 3341 2051 3273 
Q 2266 3206 2496 3059 
L 2477 2406 
L 2253 2406 
L 2138 3104 
L 2310 3091 
L 2310 2880 
Q 2112 3021 1926 3081 
Q 1741 3142 1549 3142 
Q 1165 3142 976 2976 
Q 787 2810 787 2554 
Q 787 2304 947 2160 
Q 1107 2016 1453 1894 
L 1760 1779 
Q 2240 1606 2438 1385 
Q 2637 1165 2637 845 
Q 2637 595 2499 380 
Q 2362 166 2086 38 
Q 1811 -90 1389 -90 
z
" transform="scale(0.015625)"/>
       <path id="NotoSerifKR-ExtraLight-28" d="M 966 1914 
Q 966 1318 1068 812 
Q 1171 307 1411 -201 
Q 1651 -710 2074 -1312 
L 1958 -1408 
Q 1261 -646 931 160 
Q 602 966 602 1914 
Q 602 2861 931 3667 
Q 1261 4474 1958 5235 
L 2074 5139 
Q 1651 4538 1408 4029 
Q 1165 3520 1065 3014 
Q 966 2509 966 1914 
z
" transform="scale(0.015625)"/>
       <path id="NotoSerifKR-ExtraLight-6c" d="M 224 0 
L 224 173 
L 986 243 
L 1107 243 
L 1862 173 
L 1862 0 
L 224 0 
z
M 838 0 
Q 845 192 848 441 
Q 851 691 854 956 
Q 858 1222 858 1446 
L 858 4749 
L 269 4774 
L 269 4947 
L 1171 5120 
L 1267 5062 
L 1248 4077 
L 1248 1446 
Q 1248 1222 1251 956 
Q 1254 691 1257 441 
Q 1261 192 1267 0 
L 838 0 
z
" transform="scale(0.015625)"/>
       <path id="NotoSerifKR-ExtraLight-6f" d="M 1869 -90 
Q 1478 -90 1126 96 
Q 774 282 553 662 
Q 333 1043 333 1619 
Q 333 2195 557 2579 
Q 781 2963 1133 3152 
Q 1485 3341 1869 3341 
Q 2259 3341 2611 3152 
Q 2963 2963 3187 2579 
Q 3411 2195 3411 1619 
Q 3411 1043 3187 662 
Q 2963 282 2611 96 
Q 2259 -90 1869 -90 
z
M 1869 102 
Q 2381 102 2678 496 
Q 2976 890 2976 1613 
Q 2976 2336 2678 2739 
Q 2381 3142 1869 3142 
Q 1357 3142 1059 2739 
Q 762 2336 762 1613 
Q 762 890 1059 496 
Q 1357 102 1869 102 
z
" transform="scale(0.015625)"/>
       <path id="NotoSerifKR-ExtraLight-67" d="M 1574 -1664 
Q 1126 -1664 844 -1555 
Q 563 -1446 428 -1257 
Q 294 -1069 294 -819 
Q 294 -512 508 -301 
Q 723 -90 1133 83 
L 1171 19 
Q 896 -173 771 -339 
Q 646 -506 646 -749 
Q 646 -1094 892 -1270 
Q 1139 -1446 1600 -1446 
Q 2272 -1446 2617 -1206 
Q 2963 -966 2963 -621 
Q 2963 -390 2803 -230 
Q 2643 -70 2214 -70 
L 1408 -70 
Q 1299 -70 1196 -64 
Q 1094 -58 1005 -32 
L 1005 -19 
Q 525 96 525 525 
Q 525 723 646 896 
Q 768 1069 1037 1286 
L 1037 1344 
L 1190 1267 
Q 1005 1088 918 963 
Q 832 838 832 672 
Q 832 506 947 397 
Q 1062 288 1325 288 
L 2266 288 
Q 2618 288 2851 195 
Q 3085 102 3203 -80 
Q 3322 -262 3322 -531 
Q 3322 -813 3123 -1075 
Q 2925 -1338 2537 -1501 
Q 2150 -1664 1574 -1664 
z
M 1645 1075 
Q 1286 1075 1017 1216 
Q 749 1357 601 1609 
Q 454 1862 454 2208 
Q 454 2726 784 3033 
Q 1114 3341 1645 3341 
Q 1914 3341 2134 3264 
Q 2355 3187 2502 3040 
L 2515 3027 
Q 2835 2739 2835 2208 
Q 2835 1862 2684 1609 
Q 2534 1357 2265 1216 
Q 1997 1075 1645 1075 
z
M 1638 1261 
Q 2010 1261 2237 1526 
Q 2464 1792 2464 2214 
Q 2464 2637 2237 2896 
Q 2010 3155 1651 3155 
Q 1280 3155 1056 2892 
Q 832 2630 832 2208 
Q 832 1786 1053 1523 
Q 1274 1261 1638 1261 
z
M 2317 2950 
L 2317 3059 
L 2355 3059 
L 3238 3315 
L 3341 3245 
L 3341 2938 
L 2317 2950 
z
" transform="scale(0.015625)"/>
       <path id="NotoSerifKR-ExtraLight-29" d="M 1280 1914 
Q 1280 2509 1177 3014 
Q 1075 3520 835 4029 
Q 595 4538 173 5139 
L 282 5235 
Q 986 4474 1315 3667 
Q 1645 2861 1645 1914 
Q 1645 966 1315 160 
Q 986 -646 282 -1408 
L 173 -1312 
Q 595 -710 835 -201 
Q 1075 307 1177 812 
Q 1280 1318 1280 1914 
z
" transform="scale(0.015625)"/>
      </defs>
      <use xlink:href="#NotoSerifKR-ExtraLight-baa8"/>
      <use xlink:href="#NotoSerifKR-ExtraLight-b378" transform="translate(96.599991 0)"/>
      <use xlink:href="#NotoSerifKR-ExtraLight-20" transform="translate(193.199982 0)"/>
      <use xlink:href="#NotoSerifKR-ExtraLight-addc" transform="translate(219.099976 0)"/>
      <use xlink:href="#NotoSerifKR-ExtraLight-baa8" transform="translate(315.699966 0)"/>
      <use xlink:href="#NotoSerifKR-ExtraLight-20" transform="translate(412.299957 0)"/>
      <use xlink:href="#NotoSerifKR-ExtraLight-b7" transform="translate(438.199951 0)"/>
      <use xlink:href="#NotoSerifKR-ExtraLight-20" transform="translate(470.499939 0)"/>
      <use xlink:href="#NotoSerifKR-ExtraLight-70" transform="translate(496.399933 0)"/>
      <use xlink:href="#NotoSerifKR-ExtraLight-61" transform="translate(558.799927 0)"/>
      <use xlink:href="#NotoSerifKR-ExtraLight-72" transform="translate(613.399918 0)"/>
      <use xlink:href="#NotoSerifKR-ExtraLight-61" transform="translate(657.999908 0)"/>
      <use xlink:href="#NotoSerifKR-ExtraLight-6d" transform="translate(712.599899 0)"/>
      <use xlink:href="#NotoSerifKR-ExtraLight-65" transform="translate(808.69989 0)"/>
      <use xlink:href="#NotoSerifKR-ExtraLight-74" transform="translate(862.299881 0)"/>
      <use xlink:href="#NotoSerifKR-ExtraLight-65" transform="translate(897.999878 0)"/>
      <use xlink:href="#NotoSerifKR-ExtraLight-72" transform="translate(951.599869 0)"/>
      <use xlink:href="#NotoSerifKR-ExtraLight-73" transform="translate(996.19986 0)"/>
      <use xlink:href="#NotoSerifKR-ExtraLight-20" transform="translate(1042.499847 0)"/>
      <use xlink:href="#NotoSerifKR-ExtraLight-28" transform="translate(1068.399841 0)"/>
      <use xlink:href="#NotoSerifKR-ExtraLight-6c" transform="translate(1103.399826 0)"/>
      <use xlink:href="#NotoSerifKR-ExtraLight-6f" transform="translate(1135.999817 0)"/>
      <use xlink:href="#NotoSerifKR-ExtraLight-67" transform="translate(1194.499802 0)"/>
      <use xlink:href="#NotoSerifKR-ExtraLight-29" transform="translate(1249.899796 0)"/>
     </g>
    </g>
   </g>
   <g id="matplotlib.axis_2">
    <g id="ytick_1">
     <g id="line2d_41">
      <defs>
       <path id="ma24de34749" d="M 0 0 
L -3.5 0 
" style="stroke: #1a1a1a; stroke-width: 0.8"/>
      </defs>
      <g>
       <use xlink:href="#ma24de34749" x="43.509375" y="206.784" style="fill: #1a1a1a; stroke: #1a1a1a; stroke-width: 0.8"/>
      </g>
     </g>
     <g id="text_7">
      <!-- 0.0 -->
      <g style="fill: #1a1a1a" transform="translate(22.439063 210.784) scale(0.1 -0.1)">
       <defs>
        <path id="NotoSerifKR-ExtraLight-2e" d="M 1030 -90 
Q 883 -90 787 12 
Q 691 115 691 250 
Q 691 397 787 493 
Q 883 589 1030 589 
Q 1178 589 1277 493 
Q 1376 397 1376 250 
Q 1376 115 1277 12 
Q 1178 -90 1030 -90 
z
" transform="scale(0.015625)"/>
       </defs>
       <use xlink:href="#NotoSerifKR-ExtraLight-30"/>
       <use xlink:href="#NotoSerifKR-ExtraLight-2e" transform="translate(54.199997 0)"/>
       <use xlink:href="#NotoSerifKR-ExtraLight-30" transform="translate(86.499985 0)"/>
      </g>
     </g>
    </g>
    <g id="ytick_2">
     <g id="line2d_42">
      <g>
       <use xlink:href="#ma24de34749" x="43.509375" y="168.768" style="fill: #1a1a1a; stroke: #1a1a1a; stroke-width: 0.8"/>
      </g>
     </g>
     <g id="text_8">
      <!-- 0.2 -->
      <g style="fill: #1a1a1a" transform="translate(22.41875 172.768) scale(0.1 -0.1)">
       <use xlink:href="#NotoSerifKR-ExtraLight-30"/>
       <use xlink:href="#NotoSerifKR-ExtraLight-2e" transform="translate(54.199997 0)"/>
       <use xlink:href="#NotoSerifKR-ExtraLight-32" transform="translate(86.499985 0)"/>
      </g>
     </g>
    </g>
    <g id="ytick_3">
     <g id="line2d_43">
      <g>
       <use xlink:href="#ma24de34749" x="43.509375" y="130.752" style="fill: #1a1a1a; stroke: #1a1a1a; stroke-width: 0.8"/>
      </g>
     </g>
     <g id="text_9">
      <!-- 0.4 -->
      <g style="fill: #1a1a1a" transform="translate(22.459375 134.752) scale(0.1 -0.1)">
       <defs>
        <path id="NotoSerifKR-ExtraLight-34" d="M 2176 -122 
L 2176 1370 
L 2176 1440 
L 2176 4365 
L 2112 4365 
L 2349 4480 
L 1382 2970 
L 403 1446 
L 448 1638 
L 448 1562 
L 3328 1562 
L 3328 1267 
L 218 1267 
L 218 1504 
L 2285 4698 
L 2547 4698 
L 2547 -122 
L 2176 -122 
z
" transform="scale(0.015625)"/>
       </defs>
       <use xlink:href="#NotoSerifKR-ExtraLight-30"/>
       <use xlink:href="#NotoSerifKR-ExtraLight-2e" transform="translate(54.199997 0)"/>
       <use xlink:href="#NotoSerifKR-ExtraLight-34" transform="translate(86.499985 0)"/>
      </g>
     </g>
    </g>
    <g id="ytick_4">
     <g id="line2d_44">
      <g>
       <use xlink:href="#ma24de34749" x="43.509375" y="92.736" style="fill: #1a1a1a; stroke: #1a1a1a; stroke-width: 0.8"/>
      </g>
     </g>
     <g id="text_10">
      <!-- 0.6 -->
      <g style="fill: #1a1a1a" transform="translate(22.41875 96.736) scale(0.1 -0.1)">
       <defs>
        <path id="NotoSerifKR-ExtraLight-36" d="M 1805 -90 
Q 1363 -90 1043 140 
Q 723 371 553 784 
Q 384 1197 384 1754 
Q 384 2304 566 2803 
Q 749 3302 1091 3705 
Q 1434 4109 1923 4374 
Q 2413 4640 3034 4717 
L 3059 4582 
Q 2310 4429 1808 4022 
Q 1306 3616 1056 3033 
Q 806 2451 806 1766 
Q 806 1005 1068 553 
Q 1331 102 1811 102 
Q 2074 102 2285 252 
Q 2496 403 2621 691 
Q 2746 979 2746 1376 
Q 2746 1946 2496 2250 
Q 2246 2554 1824 2554 
Q 1536 2554 1273 2422 
Q 1011 2291 742 1984 
L 627 2054 
L 666 2054 
Q 1184 2790 1939 2790 
Q 2317 2790 2589 2617 
Q 2861 2445 3005 2131 
Q 3149 1818 3149 1395 
Q 3149 966 2969 630 
Q 2790 294 2486 102 
Q 2182 -90 1805 -90 
z
" transform="scale(0.015625)"/>
       </defs>
       <use xlink:href="#NotoSerifKR-ExtraLight-30"/>
       <use xlink:href="#NotoSerifKR-ExtraLight-2e" transform="translate(54.199997 0)"/>
       <use xlink:href="#NotoSerifKR-ExtraLight-36" transform="translate(86.499985 0)"/>
      </g>
     </g>
    </g>
    <g id="ytick_5">
     <g id="line2d_45">
      <g>
       <use xlink:href="#ma24de34749" x="43.509375" y="54.72" style="fill: #1a1a1a; stroke: #1a1a1a; stroke-width: 0.8"/>
      </g>
     </g>
     <g id="text_11">
      <!-- 0.8 -->
      <g style="fill: #1a1a1a" transform="translate(22.41875 58.72) scale(0.1 -0.1)">
       <use xlink:href="#NotoSerifKR-ExtraLight-30"/>
       <use xlink:href="#NotoSerifKR-ExtraLight-2e" transform="translate(54.199997 0)"/>
       <use xlink:href="#NotoSerifKR-ExtraLight-38" transform="translate(86.499985 0)"/>
      </g>
     </g>
    </g>
    <g id="ytick_6">
     <g id="line2d_46">
      <g>
       <use xlink:href="#ma24de34749" x="43.509375" y="16.704" style="fill: #1a1a1a; stroke: #1a1a1a; stroke-width: 0.8"/>
      </g>
     </g>
     <g id="text_12">
      <!-- 1.0 -->
      <g style="fill: #1a1a1a" transform="translate(23.129688 20.704) scale(0.1 -0.1)">
       <use xlink:href="#NotoSerifKR-ExtraLight-31"/>
       <use xlink:href="#NotoSerifKR-ExtraLight-2e" transform="translate(47.299988 0)"/>
       <use xlink:href="#NotoSerifKR-ExtraLight-30" transform="translate(79.599976 0)"/>
      </g>
     </g>
    </g>
    <g id="text_13">
     <!-- 능력 (capability) -->
     <g style="fill: #1a1a1a" transform="translate(15.709375 145.151375) rotate(-90) scale(0.1 -0.1)">
      <defs>
       <path id="NotoSerifKR-ExtraLight-b2a5" d="M 5069 2464 
L 5280 2554 
Q 5395 2554 5523 2541 
Q 5651 2528 5769 2512 
Q 5888 2496 5958 2470 
Q 6035 2451 6035 2381 
Q 6035 2317 5996 2262 
Q 5958 2208 5920 2189 
Q 5837 2202 5702 2208 
Q 5568 2214 5437 2217 
Q 5306 2221 5210 2221 
Q 5101 2221 4800 2221 
Q 4499 2221 4096 2214 
Q 3693 2208 3254 2205 
Q 2816 2202 2422 2195 
Q 2029 2189 1753 2182 
Q 1478 2176 1395 2170 
Q 1318 2163 1203 2144 
Q 1088 2125 976 2099 
Q 864 2074 787 2048 
Q 621 2099 464 2176 
Q 307 2253 198 2336 
Q 173 2355 179 2381 
L 218 2464 
Q 365 2438 553 2419 
Q 742 2400 883 2400 
Q 966 2400 1209 2400 
Q 1453 2400 1801 2403 
Q 2150 2406 2550 2412 
Q 2950 2419 3353 2425 
Q 3757 2432 4112 2438 
Q 4467 2445 4720 2451 
Q 4973 2458 5069 2464 
z
M 1875 4122 
L 1517 4122 
L 1517 4730 
Q 1440 4787 1328 4828 
Q 1216 4870 1088 4896 
L 1114 5018 
Q 1120 5050 1171 5050 
Q 1261 5050 1382 5043 
Q 1504 5037 1619 5027 
Q 1734 5018 1798 4998 
Q 1888 4979 1888 4890 
L 1875 4627 
L 1875 4122 
z
M 4947 3258 
L 2042 3219 
L 2029 3430 
Q 2163 3430 2390 3430 
Q 2618 3430 2890 3433 
Q 3162 3437 3427 3443 
Q 3693 3450 3910 3456 
Q 4128 3462 4243 3469 
L 4429 3571 
Q 4563 3571 4739 3558 
Q 4915 3546 4998 3526 
Q 5069 3514 5069 3456 
Q 5069 3392 5053 3347 
Q 5037 3302 5018 3283 
Q 4992 3258 4947 3258 
z
M 2042 3430 
L 2042 3219 
Q 1766 3213 1641 3337 
Q 1517 3462 1517 3699 
L 1517 4262 
L 1875 4262 
L 1875 3610 
Q 1875 3507 1910 3472 
Q 1946 3437 2042 3430 
z
M 4518 416 
Q 4518 102 4339 -144 
Q 4160 -390 3840 -528 
Q 3520 -666 3098 -666 
Q 2675 -666 2355 -528 
Q 2035 -390 1856 -144 
Q 1677 102 1677 416 
Q 1677 736 1856 976 
Q 2035 1216 2355 1350 
Q 2675 1485 3098 1485 
Q 3520 1485 3840 1350 
Q 4160 1216 4339 976 
Q 4518 736 4518 416 
z
M 4154 416 
Q 4154 813 3856 1040 
Q 3558 1267 3098 1267 
Q 2637 1267 2339 1040 
Q 2042 813 2042 416 
Q 2042 26 2339 -201 
Q 2637 -429 3098 -429 
Q 3558 -429 3856 -201 
Q 4154 26 4154 416 
z
" transform="scale(0.015625)"/>
       <path id="NotoSerifKR-ExtraLight-b825" d="M 5062 1478 
L 4858 1478 
Q 4851 1555 4848 1664 
Q 4845 1773 4841 1888 
Q 4838 2003 4838 2118 
Q 4838 2234 4838 2323 
L 4838 4986 
Q 4749 5082 4601 5162 
Q 4454 5242 4282 5293 
L 4320 5421 
Q 4326 5446 4384 5446 
Q 4486 5446 4627 5420 
Q 4768 5395 4902 5363 
Q 5037 5331 5120 5299 
Q 5190 5274 5190 5184 
L 5178 4870 
L 5178 2451 
Q 5178 2259 5165 2076 
Q 5152 1894 5126 1744 
Q 5101 1594 5062 1478 
z
M 3802 2995 
L 4147 2797 
Q 4058 2790 3946 2764 
Q 3834 2739 3744 2707 
Q 3616 2746 3501 2800 
Q 3386 2854 3296 2918 
Q 3264 2938 3277 2970 
L 3302 3027 
Q 3418 3014 3549 3004 
Q 3680 2995 3802 2995 
z
M 4883 3034 
L 4883 2803 
Q 4781 2810 4637 2810 
Q 4493 2810 4358 2806 
Q 4224 2803 4147 2797 
L 3802 2995 
Q 3917 2995 4115 2998 
Q 4314 3002 4525 3011 
Q 4736 3021 4883 3034 
z
M 3853 4166 
L 4198 3968 
Q 4109 3962 3997 3936 
Q 3885 3910 3795 3878 
Q 3667 3917 3552 3971 
Q 3437 4026 3347 4090 
Q 3315 4109 3328 4141 
L 3354 4198 
Q 3469 4186 3600 4176 
Q 3731 4166 3853 4166 
z
M 4934 4205 
L 4934 3974 
Q 4832 3981 4688 3981 
Q 4544 3981 4409 3977 
Q 4275 3974 4198 3968 
L 3853 4166 
Q 3968 4166 4166 4169 
Q 4365 4173 4576 4182 
Q 4787 4192 4934 4205 
z
M 4768 1229 
L 4768 986 
Q 4634 986 4397 986 
Q 4160 986 3881 979 
Q 3603 973 3334 966 
Q 3066 960 2861 953 
Q 2656 947 2573 941 
Q 2470 934 2300 905 
Q 2131 877 2029 838 
Q 1888 883 1753 950 
Q 1619 1018 1510 1094 
Q 1478 1114 1491 1146 
L 1530 1222 
Q 1658 1197 1824 1181 
Q 1990 1165 2112 1165 
Q 2189 1165 2384 1168 
Q 2579 1171 2851 1174 
Q 3123 1178 3417 1187 
Q 3712 1197 3987 1203 
Q 4262 1210 4470 1216 
Q 4678 1222 4768 1229 
z
M 5120 941 
L 4768 986 
L 4742 1222 
L 4902 1306 
Q 4941 1331 4986 1306 
Q 5030 1280 5094 1241 
Q 5158 1203 5184 1178 
Q 5210 1152 5190 1107 
L 5120 941 
z
M 5011 -755 
L 4794 -755 
Q 4787 -640 4780 -489 
Q 4774 -339 4771 -188 
Q 4768 -38 4768 77 
L 4768 986 
L 5120 986 
L 5107 166 
Q 5107 38 5094 -128 
Q 5082 -294 5062 -460 
Q 5043 -627 5011 -755 
z
M 2752 4774 
L 2752 4550 
Q 2669 4550 2486 4544 
Q 2304 4538 2096 4534 
Q 1888 4531 1718 4524 
Q 1549 4518 1478 4512 
Q 1395 4506 1264 4477 
Q 1133 4448 1030 4416 
Q 909 4461 790 4521 
Q 672 4582 582 4646 
Q 550 4672 563 4698 
L 602 4774 
Q 710 4749 851 4739 
Q 992 4730 1101 4730 
Q 1171 4730 1334 4733 
Q 1498 4736 1706 4739 
Q 1914 4742 2122 4748 
Q 2330 4755 2499 4761 
Q 2669 4768 2752 4774 
z
M 3130 4512 
L 2739 4550 
L 2720 4768 
L 2886 4864 
Q 2938 4890 2982 4864 
Q 3027 4838 3091 4796 
Q 3155 4755 3181 4730 
Q 3213 4698 3194 4653 
L 3130 4512 
z
M 3008 3507 
L 2726 3507 
Q 2739 3622 2742 3827 
Q 2746 4032 2746 4240 
Q 2746 4448 2739 4557 
L 3130 4525 
Q 3130 4390 3110 4195 
Q 3091 4000 3065 3814 
Q 3040 3629 3008 3507 
z
M 3091 3290 
L 1139 3245 
L 1139 3462 
Q 1235 3462 1446 3465 
Q 1658 3469 1901 3475 
Q 2144 3482 2345 3488 
Q 2547 3494 2624 3501 
L 2739 3533 
Q 2803 3552 2880 3552 
Q 2957 3552 2989 3533 
L 3110 3462 
Q 3136 3443 3136 3411 
Q 3136 3373 3120 3337 
Q 3104 3302 3091 3290 
z
M 3622 2291 
L 3642 2214 
Q 3642 2189 3610 2176 
Q 3296 2074 2889 1987 
Q 2483 1901 2089 1846 
Q 1696 1792 1408 1773 
Q 1370 1773 1312 1773 
Q 1254 1773 1216 1773 
Q 1082 1773 1005 1821 
Q 928 1869 877 1971 
Q 864 2003 854 2080 
Q 845 2157 845 2266 
L 845 2893 
L 1203 2893 
L 1203 2163 
Q 1203 2054 1318 2054 
Q 1562 2054 1859 2073 
Q 2157 2093 2470 2131 
Q 2784 2170 3072 2218 
Q 3360 2266 3571 2317 
Q 3610 2330 3622 2291 
z
M 1203 2682 
L 845 2682 
L 845 3200 
Q 704 3302 461 3347 
L 480 3456 
Q 493 3488 544 3488 
Q 621 3488 749 3485 
Q 877 3482 1008 3478 
Q 1139 3475 1216 3462 
L 1203 3245 
L 1203 2682 
z
" transform="scale(0.015625)"/>
       <path id="NotoSerifKR-ExtraLight-63" d="M 1869 -90 
Q 1408 -90 1062 112 
Q 717 314 525 691 
Q 333 1069 333 1587 
Q 333 2144 560 2537 
Q 787 2931 1152 3136 
Q 1517 3341 1933 3341 
Q 2202 3341 2435 3245 
Q 2669 3149 2838 2973 
Q 3008 2797 3085 2547 
Q 3040 2355 2854 2355 
Q 2739 2355 2678 2409 
Q 2618 2464 2586 2586 
L 2406 3136 
L 2682 2893 
Q 2483 3034 2304 3088 
Q 2125 3142 1939 3142 
Q 1600 3142 1328 2956 
Q 1056 2771 899 2435 
Q 742 2099 742 1632 
Q 742 947 1088 569 
Q 1434 192 1978 192 
Q 2266 192 2522 301 
Q 2778 410 3002 646 
L 3098 563 
Q 2893 262 2598 86 
Q 2304 -90 1869 -90 
z
" transform="scale(0.015625)"/>
       <path id="NotoSerifKR-ExtraLight-62" d="M 282 0 
L 282 173 
L 845 224 
Q 851 403 851 620 
Q 851 838 854 1056 
Q 858 1274 858 1446 
L 858 4749 
L 269 4774 
L 269 4947 
L 1158 5120 
L 1261 5062 
L 1242 4077 
L 1242 2726 
L 1248 2662 
L 1248 525 
L 1248 518 
L 1197 -51 
L 282 0 
z
M 2285 -90 
Q 2003 -90 1705 51 
Q 1408 192 1158 544 
L 1088 544 
L 1158 723 
Q 1427 429 1676 301 
Q 1926 173 2202 173 
Q 2483 173 2720 323 
Q 2957 474 3101 800 
Q 3245 1126 3245 1651 
Q 3245 2362 2957 2723 
Q 2669 3085 2214 3085 
Q 2054 3085 1881 3033 
Q 1709 2982 1526 2851 
Q 1344 2720 1133 2483 
L 1069 2669 
L 1133 2669 
Q 1395 3027 1715 3184 
Q 2035 3341 2349 3341 
Q 2739 3341 3033 3133 
Q 3328 2925 3497 2547 
Q 3667 2170 3667 1664 
Q 3667 1146 3494 749 
Q 3322 352 3011 131 
Q 2701 -90 2285 -90 
z
" transform="scale(0.015625)"/>
       <path id="NotoSerifKR-ExtraLight-69" d="M 288 0 
L 288 173 
L 998 243 
L 1120 243 
L 1792 173 
L 1792 0 
L 288 0 
z
M 851 0 
Q 858 154 864 413 
Q 870 672 873 953 
Q 877 1235 877 1446 
L 877 1798 
Q 877 2125 870 2400 
Q 864 2675 851 2918 
L 256 2938 
L 256 3104 
L 1197 3322 
L 1274 3270 
L 1261 2413 
L 1261 1446 
Q 1261 1235 1264 953 
Q 1267 672 1270 413 
Q 1274 154 1280 0 
L 851 0 
z
M 1011 4192 
Q 877 4192 784 4278 
Q 691 4365 691 4506 
Q 691 4646 784 4736 
Q 877 4826 1011 4826 
Q 1139 4826 1238 4736 
Q 1338 4646 1338 4506 
Q 1338 4365 1238 4278 
Q 1139 4192 1011 4192 
z
" transform="scale(0.015625)"/>
       <path id="NotoSerifKR-ExtraLight-79" d="M 467 -1734 
Q 269 -1734 105 -1654 
Q -58 -1574 -77 -1427 
Q -58 -1318 35 -1264 
Q 128 -1210 250 -1210 
Q 358 -1210 464 -1264 
Q 570 -1318 672 -1414 
L 851 -1574 
L 659 -1658 
L 531 -1549 
Q 851 -1478 1110 -1171 
Q 1370 -864 1542 -397 
L 1722 70 
L 1741 122 
L 2317 1715 
L 2861 3251 
L 3104 3251 
L 1773 -307 
Q 1587 -800 1382 -1117 
Q 1178 -1434 950 -1584 
Q 723 -1734 467 -1734 
z
M 1702 -275 
L 307 3251 
L 749 3251 
L 1850 282 
L 1888 192 
L 1702 -275 
z
M -51 3078 
L -51 3251 
L 1434 3251 
L 1434 3078 
L 730 3014 
L 576 3014 
L -51 3078 
z
M 2170 3078 
L 2170 3251 
L 3456 3251 
L 3456 3078 
L 2938 3021 
L 2848 3021 
L 2170 3078 
z
" transform="scale(0.015625)"/>
      </defs>
      <use xlink:href="#NotoSerifKR-ExtraLight-b2a5"/>
      <use xlink:href="#NotoSerifKR-ExtraLight-b825" transform="translate(96.599991 0)"/>
      <use xlink:href="#NotoSerifKR-ExtraLight-20" transform="translate(193.199982 0)"/>
      <use xlink:href="#NotoSerifKR-ExtraLight-28" transform="translate(219.099976 0)"/>
      <use xlink:href="#NotoSerifKR-ExtraLight-63" transform="translate(254.09996 0)"/>
      <use xlink:href="#NotoSerifKR-ExtraLight-61" transform="translate(306.799957 0)"/>
      <use xlink:href="#NotoSerifKR-ExtraLight-70" transform="translate(361.399948 0)"/>
      <use xlink:href="#NotoSerifKR-ExtraLight-61" transform="translate(423.799942 0)"/>
      <use xlink:href="#NotoSerifKR-ExtraLight-62" transform="translate(478.399933 0)"/>
      <use xlink:href="#NotoSerifKR-ExtraLight-69" transform="translate(540.899918 0)"/>
      <use xlink:href="#NotoSerifKR-ExtraLight-6c" transform="translate(573.399902 0)"/>
      <use xlink:href="#NotoSerifKR-ExtraLight-69" transform="translate(605.999893 0)"/>
      <use xlink:href="#NotoSerifKR-ExtraLight-74" transform="translate(638.499878 0)"/>
      <use xlink:href="#NotoSerifKR-ExtraLight-79" transform="translate(674.199875 0)"/>
      <use xlink:href="#NotoSerifKR-ExtraLight-29" transform="translate(728.19986 0)"/>
     </g>
    </g>
   </g>
   <g id="line2d_47">
    <path d="M 57.205739 206.314004 
L 70.970928 205.926779 
L 81.98308 205.399194 
L 90.242194 204.801818 
L 97.124788 204.114095 
L 104.007383 203.192321 
L 109.513459 202.236013 
L 115.019535 201.032934 
L 119.149092 199.933595 
L 123.278649 198.633404 
L 127.408206 197.099483 
L 131.537762 195.295112 
L 135.667319 193.179912 
L 139.796876 190.710336 
L 142.549914 188.844508 
L 145.302952 186.786986 
L 148.05599 184.523997 
L 150.809028 182.042168 
L 153.562066 179.328902 
L 156.315104 176.372819 
L 159.068142 173.164254 
L 161.821179 169.695799 
L 164.574217 165.962872 
L 167.327255 161.964295 
L 171.456812 155.475598 
L 175.586369 148.424915 
L 179.715926 140.865578 
L 183.845483 132.876476 
L 189.351559 121.736283 
L 204.493267 90.611524 
L 208.622824 82.622422 
L 212.752381 75.063085 
L 216.881938 68.012402 
L 221.011495 61.523705 
L 223.764533 57.525128 
L 226.517571 53.792201 
L 229.270608 50.323746 
L 232.023646 47.115181 
L 234.776684 44.159098 
L 237.529722 41.445832 
L 240.28276 38.964003 
L 243.035798 36.701014 
L 245.788836 34.643492 
L 248.541874 32.777664 
L 252.671431 30.308088 
L 256.800988 28.192888 
L 260.930544 26.388517 
L 265.060101 24.854596 
L 269.189658 23.554405 
L 273.319215 22.455066 
L 278.825291 21.251987 
L 284.331367 20.295679 
L 291.213962 19.373905 
L 298.096556 18.686182 
L 306.35567 18.088806 
L 315.991303 17.614248 
L 328.379973 17.234071 
L 331.133011 17.173996 
L 331.133011 17.173996 
" clip-path="url(#p4bf9ee6663)" style="fill: none; stroke: #1f7a6b; stroke-width: 2.2; stroke-linecap: square"/>
   </g>
   <g id="line2d_48">
    <path d="M 194.169375 206.784 
L 194.169375 7.2 
" clip-path="url(#p4bf9ee6663)" style="fill: none; stroke-dasharray: 4.44,1.92; stroke-dashoffset: 0; stroke: #6b3fa0; stroke-width: 1.2"/>
   </g>
   <g id="patch_3">
    <path d="M 43.509375 206.784 
L 43.509375 7.2 
" style="fill: none; stroke: #1a1a1a; stroke-width: 0.8; stroke-linejoin: miter; stroke-linecap: square"/>
   </g>
   <g id="patch_4">
    <path d="M 43.509375 206.784 
L 344.829375 206.784 
" style="fill: none; stroke: #1a1a1a; stroke-width: 0.8; stroke-linejoin: miter; stroke-linecap: square"/>
   </g>
   <g id="text_14">
    <!-- 임계 -->
    <g style="fill: #6b3fa0" transform="translate(200.805949 199.1808) scale(0.09 -0.09)">
     <defs>
      <path id="NotoSerifKR-ExtraLight-c784" d="M 4986 1741 
L 4781 1741 
Q 4774 1824 4771 1933 
Q 4768 2042 4765 2157 
Q 4762 2272 4762 2384 
Q 4762 2496 4762 2586 
L 4762 4986 
Q 4672 5082 4525 5162 
Q 4378 5242 4205 5293 
L 4243 5421 
Q 4250 5446 4307 5446 
Q 4410 5446 4550 5420 
Q 4691 5395 4825 5363 
Q 4960 5331 5043 5299 
Q 5114 5274 5114 5184 
L 5101 4870 
L 5101 2714 
Q 5101 2522 5088 2339 
Q 5075 2157 5049 2006 
Q 5024 1856 4986 1741 
z
M 3411 3494 
Q 3411 3136 3232 2857 
Q 3053 2579 2742 2419 
Q 2432 2259 2035 2259 
Q 1632 2259 1318 2419 
Q 1005 2579 825 2857 
Q 646 3136 646 3494 
Q 646 3853 825 4131 
Q 1005 4410 1318 4570 
Q 1632 4730 2035 4730 
Q 2432 4730 2742 4570 
Q 3053 4410 3232 4131 
Q 3411 3853 3411 3494 
z
M 3059 3494 
Q 3059 3795 2924 4012 
Q 2790 4230 2556 4348 
Q 2323 4467 2035 4467 
Q 1747 4467 1516 4348 
Q 1286 4230 1148 4012 
Q 1011 3795 1011 3494 
Q 1011 3200 1148 2982 
Q 1286 2765 1516 2646 
Q 1747 2528 2035 2528 
Q 2323 2528 2556 2646 
Q 2790 2765 2924 2982 
Q 3059 3200 3059 3494 
z
M 2547 1242 
L 2163 1222 
Q 2061 1325 1856 1402 
L 1882 1498 
Q 1888 1523 1933 1523 
Q 2016 1523 2128 1513 
Q 2240 1504 2352 1491 
Q 2464 1478 2541 1459 
L 2547 1242 
z
M 2534 -595 
L 2342 -595 
Q 2323 -544 2310 -470 
Q 2298 -397 2291 -320 
L 2163 1229 
L 2547 1274 
L 2598 -250 
Q 2598 -378 2582 -454 
Q 2566 -531 2534 -595 
z
M 5011 -397 
L 2573 -435 
L 2579 -218 
Q 2784 -218 3049 -214 
Q 3315 -211 3593 -204 
Q 3872 -198 4118 -188 
Q 4365 -179 4525 -173 
L 4698 -128 
Q 4762 -109 4803 -105 
Q 4845 -102 4890 -122 
L 5037 -179 
Q 5075 -198 5075 -243 
Q 5075 -288 5056 -333 
Q 5037 -378 5011 -397 
z
M 4646 1510 
L 4698 1280 
Q 4186 1286 3613 1270 
Q 3040 1254 2528 1242 
L 2534 1459 
Q 2726 1459 3008 1465 
Q 3290 1472 3594 1475 
Q 3898 1478 4176 1488 
Q 4454 1498 4646 1510 
z
M 5069 1229 
L 4685 1280 
L 4621 1510 
L 4800 1600 
Q 4845 1626 4890 1600 
Q 4941 1587 5011 1548 
Q 5082 1510 5114 1485 
Q 5139 1466 5126 1421 
L 5069 1229 
z
M 4922 -147 
L 4653 -154 
L 4685 1280 
L 5069 1235 
Q 5056 915 5014 553 
Q 4973 192 4922 -147 
z
" transform="scale(0.015625)"/>
      <path id="NotoSerifKR-ExtraLight-acc4" d="M 5280 -685 
L 5075 -685 
Q 5069 -589 5065 -457 
Q 5062 -326 5059 -182 
Q 5056 -38 5056 96 
Q 5056 230 5056 326 
L 5056 5005 
Q 4973 5094 4838 5171 
Q 4704 5248 4544 5293 
L 4582 5414 
Q 4589 5434 4605 5440 
Q 4621 5446 4646 5446 
Q 4742 5446 4876 5424 
Q 5011 5402 5139 5370 
Q 5267 5338 5338 5306 
Q 5421 5280 5408 5197 
L 5395 4902 
L 5395 461 
Q 5395 294 5382 86 
Q 5370 -122 5344 -323 
Q 5318 -525 5280 -685 
z
M 4141 -198 
L 3942 -198 
Q 3936 -102 3933 32 
Q 3930 166 3926 307 
Q 3923 448 3923 582 
Q 3923 717 3923 813 
L 3923 4576 
Q 3853 4659 3728 4726 
Q 3603 4794 3462 4838 
L 3501 4960 
Q 3514 4992 3565 4992 
Q 3654 4992 3779 4969 
Q 3904 4947 4019 4918 
Q 4134 4890 4205 4858 
Q 4269 4832 4269 4755 
L 4256 4493 
L 4256 947 
Q 4256 781 4243 573 
Q 4230 365 4204 163 
Q 4179 -38 4141 -198 
z
M 2547 4237 
L 2547 4013 
Q 2451 4013 2272 4013 
Q 2093 4013 1897 4006 
Q 1702 4000 1542 3997 
Q 1382 3994 1325 3987 
Q 1242 3981 1110 3955 
Q 979 3930 902 3898 
Q 794 3936 682 3997 
Q 570 4058 480 4122 
Q 461 4147 467 4173 
L 499 4230 
Q 608 4218 739 4211 
Q 870 4205 973 4205 
Q 1050 4205 1264 4205 
Q 1478 4205 1737 4211 
Q 1997 4218 2221 4224 
Q 2445 4230 2547 4237 
z
M 2918 3981 
L 2528 4013 
L 2522 4230 
L 2714 4339 
Q 2758 4352 2803 4339 
Q 2848 4320 2918 4285 
Q 2989 4250 3021 4230 
Q 3046 4205 3027 4166 
L 2918 3981 
z
M 397 800 
L 333 858 
Q 314 883 333 902 
Q 877 1357 1315 1885 
Q 1754 2413 2064 2960 
Q 2374 3507 2528 4013 
L 2746 4090 
L 2918 3981 
Q 2822 3578 2595 3149 
Q 2368 2720 2041 2297 
Q 1715 1875 1308 1494 
Q 902 1114 442 813 
Q 410 794 397 800 
z
M 2918 3386 
L 3226 3181 
Q 3142 3174 3040 3152 
Q 2938 3130 2854 3098 
Q 2752 3142 2653 3193 
Q 2554 3245 2470 3302 
Q 2445 3328 2451 3360 
L 2483 3418 
Q 2586 3405 2701 3395 
Q 2816 3386 2918 3386 
z
M 3968 3418 
L 3968 3200 
Q 3866 3206 3722 3203 
Q 3578 3200 3443 3193 
Q 3309 3187 3226 3181 
L 2918 3386 
Q 3034 3386 3226 3389 
Q 3418 3392 3622 3401 
Q 3827 3411 3968 3418 
z
M 2835 2099 
L 3142 1894 
Q 3059 1888 2956 1865 
Q 2854 1843 2771 1811 
Q 2541 1901 2387 2016 
Q 2362 2042 2368 2074 
L 2400 2131 
Q 2502 2118 2617 2108 
Q 2733 2099 2835 2099 
z
M 3974 2138 
L 3974 1920 
Q 3859 1920 3696 1917 
Q 3533 1914 3382 1907 
Q 3232 1901 3142 1894 
L 2835 2099 
Q 2957 2099 3165 2102 
Q 3373 2106 3597 2115 
Q 3821 2125 3974 2138 
z
" transform="scale(0.015625)"/>
     </defs>
     <use xlink:href="#NotoSerifKR-ExtraLight-c784"/>
     <use xlink:href="#NotoSerifKR-ExtraLight-acc4" transform="translate(96.599991 0)"/>
    </g>
   </g>
   <g id="text_15">
    <!-- 우연 수준 정체 -->
    <g style="fill: #555555" transform="translate(105.383902 182.0736) scale(0.09 -0.09)">
     <defs>
      <path id="NotoSerifKR-ExtraLight-c6b0" d="M 4576 3814 
Q 4576 3443 4371 3164 
Q 4166 2886 3830 2736 
Q 3494 2586 3085 2586 
Q 2682 2586 2342 2736 
Q 2003 2886 1798 3164 
Q 1594 3443 1594 3814 
Q 1594 4192 1798 4470 
Q 2003 4749 2342 4899 
Q 2682 5050 3085 5050 
Q 3494 5050 3830 4899 
Q 4166 4749 4371 4470 
Q 4576 4192 4576 3814 
z
M 4224 3814 
Q 4224 4128 4067 4345 
Q 3910 4563 3651 4678 
Q 3392 4794 3085 4794 
Q 2784 4794 2521 4678 
Q 2259 4563 2102 4345 
Q 1946 4128 1946 3814 
Q 1946 3501 2102 3283 
Q 2259 3066 2521 2954 
Q 2784 2842 3085 2842 
Q 3392 2842 3651 2954 
Q 3910 3066 4067 3283 
Q 4224 3501 4224 3814 
z
M 5069 2048 
L 5280 2138 
Q 5395 2138 5523 2125 
Q 5651 2112 5769 2096 
Q 5888 2080 5958 2054 
Q 6035 2035 6035 1965 
Q 6035 1901 5996 1846 
Q 5958 1792 5920 1773 
Q 5837 1786 5702 1792 
Q 5568 1798 5437 1801 
Q 5306 1805 5210 1805 
Q 5101 1805 4800 1805 
Q 4499 1805 4096 1798 
Q 3693 1792 3254 1789 
Q 2816 1786 2422 1779 
Q 2029 1773 1753 1766 
Q 1478 1760 1395 1754 
Q 1318 1747 1203 1728 
Q 1088 1709 976 1683 
Q 864 1658 787 1632 
Q 621 1683 464 1760 
Q 307 1837 198 1920 
Q 173 1939 179 1965 
L 218 2048 
Q 365 2022 553 2003 
Q 742 1984 883 1984 
Q 966 1984 1209 1984 
Q 1453 1984 1801 1987 
Q 2150 1990 2550 1996 
Q 2950 2003 3353 2009 
Q 3757 2016 4112 2022 
Q 4467 2029 4720 2035 
Q 4973 2042 5069 2048 
z
M 3168 -666 
L 2963 -666 
Q 2957 -550 2953 -406 
Q 2950 -262 2947 -108 
Q 2944 45 2944 189 
Q 2944 333 2944 442 
L 2944 1946 
L 3283 1946 
L 3283 557 
Q 3283 442 3273 285 
Q 3264 128 3251 -41 
Q 3238 -211 3216 -374 
Q 3194 -538 3168 -666 
z
" transform="scale(0.015625)"/>
      <path id="NotoSerifKR-ExtraLight-c5f0" d="M 5498 -410 
L 2733 -422 
L 2726 -211 
Q 2854 -211 3065 -211 
Q 3277 -211 3529 -211 
Q 3782 -211 4028 -208 
Q 4275 -205 4480 -201 
Q 4685 -198 4800 -192 
L 4986 -90 
Q 5120 -90 5296 -102 
Q 5472 -115 5555 -134 
Q 5626 -147 5626 -205 
Q 5626 -275 5606 -320 
Q 5587 -365 5568 -384 
Q 5542 -410 5498 -410 
z
M 2726 -211 
L 2739 -422 
Q 2445 -422 2329 -316 
Q 2214 -211 2214 45 
L 2214 653 
L 2566 653 
L 2566 -45 
Q 2566 -211 2726 -211 
z
M 5050 858 
L 4845 858 
Q 4838 954 4835 1085 
Q 4832 1216 4829 1360 
Q 4826 1504 4826 1638 
Q 4826 1773 4826 1875 
L 4826 4986 
Q 4736 5082 4589 5162 
Q 4442 5242 4269 5293 
L 4307 5421 
Q 4314 5446 4371 5446 
Q 4474 5446 4614 5420 
Q 4755 5395 4889 5363 
Q 5024 5331 5107 5299 
Q 5178 5274 5178 5184 
L 5165 4870 
L 5165 2010 
Q 5165 1798 5152 1587 
Q 5139 1376 5113 1190 
Q 5088 1005 5050 858 
z
M 3462 3360 
Q 3462 2976 3276 2678 
Q 3091 2381 2771 2211 
Q 2451 2042 2042 2042 
Q 1632 2042 1305 2211 
Q 979 2381 793 2678 
Q 608 2976 608 3360 
Q 608 3750 793 4048 
Q 979 4346 1305 4512 
Q 1632 4678 2042 4678 
Q 2451 4678 2771 4512 
Q 3091 4346 3276 4048 
Q 3462 3750 3462 3360 
z
M 3110 3360 
Q 3110 3693 2969 3926 
Q 2829 4160 2585 4288 
Q 2342 4416 2042 4416 
Q 1741 4416 1497 4288 
Q 1254 4160 1113 3926 
Q 973 3693 973 3360 
Q 973 3034 1113 2797 
Q 1254 2560 1497 2435 
Q 1741 2310 2042 2310 
Q 2342 2310 2585 2435 
Q 2829 2560 2969 2797 
Q 3110 3034 3110 3360 
z
M 3878 4179 
L 4224 3981 
Q 4134 3974 4022 3945 
Q 3910 3917 3821 3885 
Q 3699 3930 3587 3984 
Q 3475 4038 3386 4102 
Q 3354 4122 3366 4154 
L 3392 4211 
Q 3507 4198 3635 4188 
Q 3763 4179 3878 4179 
z
M 4922 4218 
L 4922 3994 
Q 4826 4000 4688 3997 
Q 4550 3994 4422 3990 
Q 4294 3987 4224 3981 
L 3878 4179 
Q 3994 4179 4186 4182 
Q 4378 4186 4579 4195 
Q 4781 4205 4922 4218 
z
M 3738 2765 
L 4083 2566 
Q 3994 2560 3882 2531 
Q 3770 2502 3680 2470 
Q 3558 2515 3446 2569 
Q 3334 2624 3245 2688 
Q 3213 2707 3226 2739 
L 3251 2797 
Q 3366 2784 3494 2774 
Q 3622 2765 3738 2765 
z
M 4902 2803 
L 4902 2579 
Q 4787 2586 4627 2586 
Q 4467 2586 4320 2579 
Q 4173 2573 4083 2566 
L 3738 2765 
Q 3859 2765 4073 2768 
Q 4288 2771 4518 2780 
Q 4749 2790 4902 2803 
z
M 2566 576 
L 2214 576 
L 2214 986 
Q 2138 1043 2013 1084 
Q 1888 1126 1760 1152 
L 1786 1274 
Q 1792 1306 1843 1306 
Q 1939 1306 2060 1299 
Q 2182 1293 2300 1283 
Q 2419 1274 2490 1254 
Q 2573 1235 2573 1146 
L 2566 883 
L 2566 576 
z
" transform="scale(0.015625)"/>
      <path id="NotoSerifKR-ExtraLight-c218" d="M 5069 2093 
L 5280 2182 
Q 5395 2182 5523 2169 
Q 5651 2157 5769 2141 
Q 5888 2125 5958 2099 
Q 6035 2080 6035 2010 
Q 6035 1946 5996 1891 
Q 5958 1837 5920 1818 
Q 5837 1830 5702 1836 
Q 5568 1843 5437 1846 
Q 5306 1850 5210 1850 
Q 5101 1850 4800 1850 
Q 4499 1850 4096 1843 
Q 3693 1837 3254 1833 
Q 2816 1830 2422 1824 
Q 2029 1818 1753 1811 
Q 1478 1805 1395 1798 
Q 1318 1792 1203 1773 
Q 1088 1754 976 1728 
Q 864 1702 787 1677 
Q 621 1728 464 1805 
Q 307 1882 198 1965 
Q 173 1984 179 2010 
L 218 2093 
Q 365 2067 553 2048 
Q 742 2029 883 2029 
Q 966 2029 1209 2029 
Q 1453 2029 1801 2032 
Q 2150 2035 2550 2041 
Q 2950 2048 3353 2054 
Q 3757 2061 4112 2067 
Q 4467 2074 4720 2080 
Q 4973 2086 5069 2093 
z
M 3162 -646 
L 2957 -646 
Q 2950 -538 2947 -394 
Q 2944 -250 2941 -93 
Q 2938 64 2938 208 
Q 2938 352 2938 461 
L 2938 1971 
L 3277 1971 
L 3277 576 
Q 3277 454 3267 297 
Q 3258 141 3245 -28 
Q 3232 -198 3209 -358 
Q 3187 -518 3162 -646 
z
M 3565 4915 
L 3091 4819 
Q 2970 4973 2733 5088 
L 2803 5197 
Q 2829 5229 2880 5222 
Q 2989 5210 3107 5178 
Q 3226 5146 3331 5110 
Q 3437 5075 3494 5037 
Q 3565 5005 3565 4915 
z
M 794 2688 
L 736 2752 
Q 717 2784 755 2803 
Q 1293 3066 1747 3398 
Q 2202 3731 2547 4096 
Q 2893 4461 3091 4819 
L 3565 4915 
Q 3565 4870 3552 4838 
Q 3539 4806 3526 4781 
Q 3290 4346 2896 3958 
Q 2502 3571 1984 3251 
Q 1466 2931 851 2694 
Q 819 2682 794 2688 
z
M 5178 2976 
L 2912 4141 
L 4506 3597 
L 4922 3514 
Q 5037 3443 5171 3344 
Q 5306 3245 5370 3181 
Q 5459 3098 5459 3040 
Q 5459 2995 5417 2956 
Q 5376 2918 5331 2918 
Q 5306 2918 5261 2934 
Q 5216 2950 5178 2976 
z
M 4506 3597 
L 4493 3565 
L 2912 4141 
L 3040 4326 
L 4506 3597 
z
" transform="scale(0.015625)"/>
      <path id="NotoSerifKR-ExtraLight-c900" d="M 4205 4941 
L 4205 4717 
Q 4077 4717 3856 4717 
Q 3635 4717 3376 4717 
Q 3117 4717 2867 4710 
Q 2618 4704 2429 4701 
Q 2240 4698 2163 4691 
Q 2074 4685 1917 4653 
Q 1760 4621 1670 4589 
Q 1536 4621 1392 4685 
Q 1248 4749 1139 4819 
Q 1107 4838 1120 4870 
L 1165 4947 
Q 1299 4922 1465 4909 
Q 1632 4896 1754 4896 
Q 1850 4896 2096 4899 
Q 2342 4902 2659 4905 
Q 2976 4909 3293 4915 
Q 3610 4922 3856 4928 
Q 4102 4934 4205 4941 
z
M 4678 4717 
L 4179 4717 
L 4205 4941 
L 4454 5037 
Q 4506 5056 4557 5037 
Q 4608 5018 4694 4982 
Q 4781 4947 4813 4928 
Q 4838 4915 4838 4892 
Q 4838 4870 4819 4851 
L 4678 4717 
z
M 755 2688 
L 704 2752 
Q 685 2784 717 2797 
Q 1786 3174 2691 3667 
Q 3597 4160 4179 4717 
L 4435 4826 
L 4678 4717 
Q 4256 4282 3645 3891 
Q 3034 3501 2307 3193 
Q 1581 2886 806 2682 
Q 768 2675 755 2688 
z
M 5203 2963 
L 2912 3635 
L 4582 3398 
L 4966 3379 
Q 5062 3354 5177 3299 
Q 5293 3245 5357 3206 
Q 5427 3162 5440 3110 
Q 5453 3059 5417 3011 
Q 5382 2963 5338 2950 
Q 5312 2944 5273 2950 
Q 5235 2957 5203 2963 
z
M 4582 3398 
L 4570 3366 
L 2912 3635 
L 3066 3821 
L 4582 3398 
z
M 4966 -442 
L 2131 -454 
L 2118 -243 
Q 2253 -243 2473 -243 
Q 2694 -243 2953 -243 
Q 3213 -243 3472 -240 
Q 3731 -237 3942 -233 
Q 4154 -230 4269 -224 
L 4454 -122 
Q 4589 -122 4765 -134 
Q 4941 -147 5024 -166 
Q 5094 -179 5094 -237 
Q 5094 -307 5075 -352 
Q 5056 -397 5037 -416 
Q 5011 -442 4966 -442 
z
M 2118 -243 
L 2131 -454 
Q 1837 -454 1718 -345 
Q 1600 -237 1600 13 
L 1600 621 
L 1958 621 
L 1958 -77 
Q 1958 -160 1993 -201 
Q 2029 -243 2118 -243 
z
M 5069 2304 
L 5280 2394 
Q 5395 2394 5523 2381 
Q 5651 2368 5769 2352 
Q 5888 2336 5958 2310 
Q 6035 2291 6035 2221 
Q 6035 2157 5996 2102 
Q 5958 2048 5920 2029 
Q 5837 2042 5702 2048 
Q 5568 2054 5437 2057 
Q 5306 2061 5210 2061 
Q 5101 2061 4800 2061 
Q 4499 2061 4096 2054 
Q 3693 2048 3254 2045 
Q 2816 2042 2422 2035 
Q 2029 2029 1753 2022 
Q 1478 2016 1395 2010 
Q 1318 2003 1203 1984 
Q 1088 1965 976 1939 
Q 864 1914 787 1888 
Q 621 1939 464 2016 
Q 307 2093 198 2176 
Q 173 2195 179 2221 
L 218 2304 
Q 365 2278 553 2259 
Q 742 2240 883 2240 
Q 966 2240 1209 2240 
Q 1453 2240 1801 2243 
Q 2150 2246 2550 2252 
Q 2950 2259 3353 2265 
Q 3757 2272 4112 2278 
Q 4467 2285 4720 2291 
Q 4973 2298 5069 2304 
z
M 3270 448 
L 3059 448 
Q 3053 582 3046 758 
Q 3040 934 3037 1113 
Q 3034 1293 3034 1421 
L 3034 2099 
L 3373 2099 
L 3373 1523 
Q 3373 1382 3360 1187 
Q 3347 992 3324 797 
Q 3302 602 3270 448 
z
M 1958 461 
L 1600 461 
L 1600 864 
Q 1517 922 1395 966 
Q 1274 1011 1146 1037 
L 1171 1158 
Q 1178 1190 1229 1190 
Q 1325 1190 1449 1184 
Q 1574 1178 1692 1168 
Q 1811 1158 1882 1139 
Q 1971 1120 1971 1030 
L 1958 762 
L 1958 461 
z
" transform="scale(0.015625)"/>
      <path id="NotoSerifKR-ExtraLight-c815" d="M 5062 1536 
L 4858 1536 
Q 4851 1626 4848 1744 
Q 4845 1862 4841 1993 
Q 4838 2125 4838 2246 
Q 4838 2368 4838 2458 
L 4838 4986 
Q 4749 5082 4601 5162 
Q 4454 5242 4282 5293 
L 4320 5421 
Q 4326 5446 4384 5446 
Q 4486 5446 4627 5420 
Q 4768 5395 4902 5363 
Q 5037 5331 5120 5299 
Q 5190 5274 5190 5184 
L 5178 4870 
L 5178 2586 
Q 5178 2432 5165 2237 
Q 5152 2042 5126 1859 
Q 5101 1677 5062 1536 
z
M 5178 518 
Q 5178 198 5005 -61 
Q 4832 -320 4525 -470 
Q 4218 -621 3814 -621 
Q 3411 -621 3104 -470 
Q 2797 -320 2624 -61 
Q 2451 198 2451 518 
Q 2451 832 2624 1078 
Q 2797 1325 3104 1472 
Q 3411 1619 3814 1619 
Q 4218 1619 4525 1472 
Q 4832 1325 5005 1078 
Q 5178 832 5178 518 
z
M 4813 518 
Q 4813 915 4531 1155 
Q 4250 1395 3814 1395 
Q 3379 1395 3097 1155 
Q 2816 915 2816 518 
Q 2816 128 3097 -115 
Q 3379 -358 3814 -358 
Q 4250 -358 4531 -115 
Q 4813 128 4813 518 
z
M 3866 3629 
L 4218 3411 
Q 4128 3405 4013 3376 
Q 3898 3347 3808 3302 
Q 3680 3354 3561 3418 
Q 3443 3482 3354 3546 
Q 3322 3578 3334 3603 
L 3360 3661 
Q 3482 3648 3613 3638 
Q 3744 3629 3866 3629 
z
M 4915 3667 
L 4915 3443 
Q 4819 3443 4681 3436 
Q 4544 3430 4416 3424 
Q 4288 3418 4218 3411 
L 3866 3629 
Q 3981 3629 4173 3632 
Q 4365 3635 4569 3644 
Q 4774 3654 4915 3667 
z
M 3008 4691 
L 3008 4480 
Q 2893 4480 2681 4477 
Q 2470 4474 2233 4467 
Q 1997 4461 1808 4454 
Q 1619 4448 1549 4442 
Q 1466 4435 1325 4406 
Q 1184 4378 1107 4346 
Q 992 4384 870 4451 
Q 749 4518 659 4582 
Q 627 4602 640 4627 
L 672 4698 
Q 787 4678 931 4665 
Q 1075 4653 1184 4653 
Q 1254 4653 1430 4656 
Q 1606 4659 1840 4662 
Q 2074 4666 2307 4669 
Q 2541 4672 2729 4678 
Q 2918 4685 3008 4691 
z
M 3405 4442 
L 2982 4480 
L 2995 4691 
L 3181 4787 
Q 3226 4800 3270 4787 
Q 3322 4768 3398 4733 
Q 3475 4698 3514 4672 
Q 3552 4646 3520 4602 
L 3405 4442 
z
M 3603 2138 
L 2438 3328 
L 3392 2746 
L 3648 2650 
Q 3706 2566 3770 2451 
Q 3834 2336 3859 2266 
Q 3898 2170 3878 2131 
Q 3866 2086 3814 2064 
Q 3763 2042 3718 2054 
Q 3693 2061 3661 2086 
Q 3629 2112 3603 2138 
z
M 3392 2746 
L 3373 2714 
L 2438 3328 
L 2611 3494 
L 3392 2746 
z
M 512 1683 
L 461 1734 
Q 442 1760 461 1779 
Q 1050 2170 1539 2618 
Q 2029 3066 2397 3542 
Q 2765 4019 2982 4480 
L 3213 4563 
L 3405 4442 
Q 3181 3949 2755 3443 
Q 2330 2938 1763 2483 
Q 1197 2029 557 1690 
Q 531 1670 512 1683 
z
" transform="scale(0.015625)"/>
      <path id="NotoSerifKR-ExtraLight-ccb4" d="M 5280 -685 
L 5075 -685 
Q 5069 -589 5065 -457 
Q 5062 -326 5059 -182 
Q 5056 -38 5056 96 
Q 5056 230 5056 326 
L 5056 5005 
Q 4973 5094 4838 5171 
Q 4704 5248 4544 5293 
L 4582 5414 
Q 4589 5434 4605 5440 
Q 4621 5446 4646 5446 
Q 4742 5446 4876 5424 
Q 5011 5402 5139 5370 
Q 5267 5338 5338 5306 
Q 5421 5280 5408 5197 
L 5395 4902 
L 5395 461 
Q 5395 294 5382 86 
Q 5370 -122 5344 -323 
Q 5318 -525 5280 -685 
z
M 4211 -218 
L 4013 -218 
Q 4006 -122 4003 12 
Q 4000 147 3997 288 
Q 3994 429 3994 563 
Q 3994 698 3994 794 
L 3994 4576 
Q 3923 4659 3798 4726 
Q 3674 4794 3533 4838 
L 3571 4960 
Q 3584 4992 3635 4992 
Q 3725 4992 3849 4969 
Q 3974 4947 4089 4918 
Q 4205 4890 4275 4858 
Q 4339 4832 4339 4755 
L 4326 4493 
L 4326 928 
Q 4326 762 4313 554 
Q 4301 346 4275 144 
Q 4250 -58 4211 -218 
z
M 3328 2566 
L 3635 2342 
Q 3552 2336 3446 2310 
Q 3341 2285 3258 2253 
Q 3149 2298 3049 2352 
Q 2950 2406 2874 2470 
Q 2848 2496 2854 2528 
L 2886 2586 
Q 2989 2579 3104 2572 
Q 3219 2566 3328 2566 
z
M 4064 2598 
L 4064 2368 
Q 3974 2368 3840 2361 
Q 3706 2355 3635 2342 
L 3328 2566 
Q 3462 2566 3683 2576 
Q 3904 2586 4064 2598 
z
M 2618 3680 
L 2618 3462 
Q 2515 3462 2332 3459 
Q 2150 3456 1945 3449 
Q 1741 3443 1577 3436 
Q 1414 3430 1350 3424 
Q 1267 3418 1136 3392 
Q 1005 3366 928 3334 
Q 819 3379 704 3446 
Q 589 3514 506 3578 
Q 480 3603 486 3629 
L 518 3686 
Q 627 3667 761 3660 
Q 896 3654 998 3654 
Q 1062 3654 1219 3654 
Q 1376 3654 1581 3657 
Q 1786 3661 1994 3664 
Q 2202 3667 2368 3670 
Q 2534 3674 2618 3680 
z
M 2989 3430 
L 2579 3462 
L 2605 3680 
L 2771 3776 
Q 2810 3802 2861 3776 
Q 2906 3763 2976 3728 
Q 3046 3693 3072 3674 
Q 3110 3654 3085 3603 
L 2989 3430 
z
M 3091 1018 
L 2042 2349 
L 2880 1715 
L 3162 1568 
Q 3219 1466 3276 1334 
Q 3334 1203 3366 1114 
Q 3386 1062 3389 1027 
Q 3392 992 3379 973 
Q 3354 928 3296 912 
Q 3238 896 3200 915 
Q 3174 928 3145 960 
Q 3117 992 3091 1018 
z
M 2880 1715 
L 2848 1683 
L 2042 2349 
L 2246 2496 
L 2880 1715 
z
M 1120 4627 
L 1158 4672 
Q 1555 4608 1910 4592 
Q 2266 4576 2573 4570 
Q 2611 4570 2630 4560 
Q 2650 4550 2656 4518 
Q 2669 4480 2662 4422 
Q 2656 4365 2643 4333 
Q 2618 4294 2566 4294 
Q 2342 4294 2048 4288 
Q 1754 4282 1549 4269 
Q 1517 4269 1497 4272 
Q 1478 4275 1453 4288 
Q 1370 4339 1283 4416 
Q 1197 4493 1126 4576 
Q 1114 4602 1120 4627 
z
M 346 723 
L 288 774 
Q 269 800 288 819 
Q 826 1197 1270 1641 
Q 1715 2086 2051 2553 
Q 2387 3021 2579 3462 
L 2803 3546 
L 2989 3430 
Q 2797 2957 2409 2461 
Q 2022 1965 1504 1517 
Q 986 1069 397 736 
Q 365 717 346 723 
z
" transform="scale(0.015625)"/>
     </defs>
     <use xlink:href="#NotoSerifKR-ExtraLight-c6b0"/>
     <use xlink:href="#NotoSerifKR-ExtraLight-c5f0" transform="translate(96.599991 0)"/>
     <use xlink:href="#NotoSerifKR-ExtraLight-20" transform="translate(193.199982 0)"/>
     <use xlink:href="#NotoSerifKR-ExtraLight-c218" transform="translate(219.099976 0)"/>
     <use xlink:href="#NotoSerifKR-ExtraLight-c900" transform="translate(315.699966 0)"/>
     <use xlink:href="#NotoSerifKR-ExtraLight-20" transform="translate(412.299957 0)"/>
     <use xlink:href="#NotoSerifKR-ExtraLight-c815" transform="translate(438.199951 0)"/>
     <use xlink:href="#NotoSerifKR-ExtraLight-ccb4" transform="translate(534.799942 0)"/>
    </g>
   </g>
   <g id="text_16">
    <!-- 창발적 능력 -->
    <g style="fill: #1f7a6b" transform="translate(263.683582 39.5136) scale(0.09 -0.09)">
     <defs>
      <path id="NotoSerifKR-ExtraLight-cc3d" d="M 4691 1459 
L 4486 1459 
Q 4480 1555 4477 1686 
Q 4474 1818 4470 1958 
Q 4467 2099 4467 2233 
Q 4467 2368 4467 2470 
L 4467 4986 
Q 4378 5082 4230 5162 
Q 4083 5242 3910 5293 
L 3949 5421 
Q 3955 5446 4013 5446 
Q 4115 5446 4256 5420 
Q 4397 5395 4531 5363 
Q 4666 5331 4749 5299 
Q 4819 5274 4819 5184 
L 4806 4870 
L 4806 2605 
Q 4806 2394 4793 2186 
Q 4781 1978 4755 1792 
Q 4730 1606 4691 1459 
z
M 5965 3104 
L 4749 3091 
L 4749 3296 
L 5299 3315 
L 5504 3430 
Q 5645 3437 5811 3427 
Q 5978 3418 6061 3398 
Q 6138 3379 6138 3309 
Q 6138 3232 6115 3184 
Q 6093 3136 6061 3123 
Q 6042 3117 6016 3110 
Q 5990 3104 5965 3104 
z
M 4787 474 
Q 4787 147 4614 -112 
Q 4442 -371 4141 -521 
Q 3840 -672 3443 -672 
Q 3053 -672 2749 -521 
Q 2445 -371 2272 -112 
Q 2099 147 2099 474 
Q 2099 794 2272 1043 
Q 2445 1293 2749 1437 
Q 3053 1581 3443 1581 
Q 3840 1581 4141 1437 
Q 4442 1293 4614 1043 
Q 4787 794 4787 474 
z
M 4410 474 
Q 4410 870 4134 1104 
Q 3859 1338 3443 1338 
Q 3027 1338 2755 1104 
Q 2483 870 2483 474 
Q 2483 83 2755 -150 
Q 3027 -384 3443 -384 
Q 3859 -384 4134 -150 
Q 4410 83 4410 474 
z
M 2989 4179 
L 2989 3962 
Q 2867 3962 2640 3955 
Q 2413 3949 2166 3942 
Q 1920 3936 1718 3926 
Q 1517 3917 1440 3910 
Q 1344 3904 1193 3881 
Q 1043 3859 954 3827 
Q 845 3866 729 3933 
Q 614 4000 531 4064 
Q 506 4090 512 4115 
L 544 4173 
Q 653 4154 787 4144 
Q 922 4134 1024 4134 
Q 1094 4134 1286 4137 
Q 1478 4141 1728 4144 
Q 1978 4147 2234 4153 
Q 2490 4160 2691 4166 
Q 2893 4173 2989 4179 
z
M 3386 3930 
L 2950 3962 
L 2982 4179 
L 3168 4275 
Q 3213 4294 3264 4275 
Q 3315 4262 3392 4227 
Q 3469 4192 3501 4166 
Q 3539 4141 3507 4096 
L 3386 3930 
z
M 3648 1926 
L 2413 2842 
L 3270 2528 
L 3597 2432 
Q 3667 2349 3744 2249 
Q 3821 2150 3866 2080 
Q 3917 2003 3904 1958 
Q 3898 1914 3853 1885 
Q 3808 1856 3763 1862 
Q 3744 1862 3709 1881 
Q 3674 1901 3648 1926 
z
M 3270 2528 
L 3251 2496 
L 2413 2842 
L 2534 3046 
L 3270 2528 
z
M 378 1574 
L 333 1626 
Q 307 1651 333 1670 
Q 1210 2144 1891 2749 
Q 2573 3354 2950 3962 
L 3187 4051 
L 3386 3930 
Q 3123 3482 2672 3043 
Q 2221 2605 1641 2227 
Q 1062 1850 422 1581 
Q 390 1562 378 1574 
z
M 1216 5018 
L 1254 5062 
Q 1658 4986 2035 4966 
Q 2413 4947 2739 4941 
Q 2797 4941 2810 4890 
Q 2822 4858 2816 4806 
Q 2810 4755 2797 4723 
Q 2784 4685 2726 4685 
Q 2566 4685 2377 4681 
Q 2189 4678 2013 4675 
Q 1837 4672 1702 4659 
Q 1670 4659 1651 4662 
Q 1632 4666 1606 4678 
Q 1510 4730 1408 4806 
Q 1306 4883 1222 4973 
Q 1203 4998 1216 5018 
z
" transform="scale(0.015625)"/>
      <path id="NotoSerifKR-ExtraLight-bc1c" d="M 4710 2029 
L 4506 2029 
Q 4499 2138 4492 2288 
Q 4486 2438 4486 2595 
Q 4486 2752 4486 2867 
L 4486 4986 
Q 4397 5082 4249 5162 
Q 4102 5242 3930 5293 
L 3968 5421 
Q 3974 5446 4032 5446 
Q 4134 5446 4275 5420 
Q 4416 5395 4550 5363 
Q 4685 5331 4768 5299 
Q 4838 5274 4838 5184 
L 4826 4870 
L 4826 3002 
Q 4826 2803 4813 2620 
Q 4800 2438 4774 2288 
Q 4749 2138 4710 2029 
z
M 5965 3251 
L 4749 3238 
L 4749 3443 
L 5299 3462 
L 5504 3578 
Q 5645 3584 5811 3574 
Q 5978 3565 6061 3546 
Q 6138 3526 6138 3456 
Q 6138 3379 6115 3331 
Q 6093 3283 6061 3270 
Q 6042 3264 6016 3257 
Q 5990 3251 5965 3251 
z
M 4390 1741 
L 4390 1542 
Q 4282 1542 4077 1542 
Q 3872 1542 3622 1539 
Q 3373 1536 3129 1533 
Q 2886 1530 2697 1526 
Q 2509 1523 2426 1517 
Q 2342 1510 2195 1481 
Q 2048 1453 1939 1414 
Q 1798 1459 1673 1516 
Q 1549 1574 1453 1638 
Q 1421 1664 1434 1696 
L 1466 1754 
Q 1587 1728 1737 1715 
Q 1888 1702 2003 1702 
Q 2112 1702 2345 1705 
Q 2579 1709 2880 1712 
Q 3181 1715 3485 1718 
Q 3789 1722 4032 1728 
Q 4275 1734 4390 1741 
z
M 5094 -474 
L 2259 -486 
L 2246 -275 
Q 2381 -275 2608 -275 
Q 2835 -275 3104 -275 
Q 3373 -275 3638 -272 
Q 3904 -269 4118 -265 
Q 4333 -262 4448 -256 
L 4634 -160 
Q 4755 -160 4915 -169 
Q 5075 -179 5158 -198 
Q 5222 -211 5222 -269 
Q 5222 -333 5203 -381 
Q 5184 -429 5165 -448 
Q 5139 -474 5094 -474 
z
M 2304 -275 
L 2259 -486 
Q 2016 -486 1926 -403 
Q 1837 -320 1837 -122 
L 1837 250 
L 2195 250 
L 2195 -166 
Q 2195 -275 2304 -275 
z
M 2195 38 
L 1837 38 
L 1837 493 
Q 1773 544 1680 582 
Q 1587 621 1478 634 
L 1498 736 
Q 1510 768 1562 768 
Q 1638 768 1763 765 
Q 1888 762 2013 755 
Q 2138 749 2208 736 
L 2195 544 
L 2195 38 
z
M 4787 1510 
L 4384 1542 
L 4378 1741 
L 4544 1824 
Q 4589 1843 4640 1824 
Q 4678 1805 4742 1769 
Q 4806 1734 4838 1709 
Q 4870 1683 4851 1632 
L 4787 1510 
z
M 4659 781 
L 4371 781 
Q 4378 864 4381 1014 
Q 4384 1165 4387 1315 
Q 4390 1466 4384 1549 
L 4787 1523 
Q 4781 1421 4761 1280 
Q 4742 1139 4713 1004 
Q 4685 870 4659 781 
z
M 4755 576 
L 2138 544 
L 2138 736 
Q 2234 736 2454 739 
Q 2675 742 2950 745 
Q 3226 749 3501 752 
Q 3776 755 3984 758 
Q 4192 762 4275 768 
L 4410 813 
Q 4461 826 4525 826 
Q 4589 826 4634 806 
L 4774 736 
Q 4800 717 4800 691 
Q 4800 653 4787 621 
Q 4774 589 4755 576 
z
M 3354 4672 
L 3002 4710 
Q 2938 4781 2835 4848 
Q 2733 4915 2611 4960 
L 2656 5088 
Q 2662 5101 2675 5107 
Q 2688 5114 2714 5114 
Q 2810 5107 2918 5088 
Q 3027 5069 3132 5043 
Q 3238 5018 3309 4986 
Q 3366 4960 3366 4896 
L 3354 4672 
z
M 1139 4390 
L 774 4454 
Q 710 4518 601 4569 
Q 493 4621 365 4646 
L 403 4781 
Q 410 4794 426 4800 
Q 442 4806 467 4806 
Q 563 4806 678 4796 
Q 794 4787 902 4771 
Q 1011 4755 1088 4730 
Q 1146 4710 1146 4646 
L 1139 4390 
z
M 1043 2170 
L 851 2170 
Q 832 2240 822 2333 
Q 813 2426 813 2502 
L 774 4467 
L 1139 4422 
L 1133 2573 
Q 1133 2419 1107 2323 
Q 1082 2227 1043 2170 
z
M 3270 2662 
L 3002 2662 
L 3002 4717 
L 3354 4678 
L 3334 3238 
Q 3334 3104 3318 2941 
Q 3302 2778 3270 2662 
z
M 3034 3725 
L 1101 3699 
L 1101 3917 
L 3034 3942 
L 3034 3725 
z
M 3226 2682 
L 3405 2637 
Q 3450 2624 3450 2586 
Q 3450 2547 3437 2508 
Q 3424 2470 3405 2458 
Q 3264 2458 3030 2454 
Q 2797 2451 2521 2448 
Q 2246 2445 1971 2441 
Q 1696 2438 1469 2435 
Q 1242 2432 1114 2432 
L 1120 2650 
L 3008 2669 
L 3226 2682 
z
" transform="scale(0.015625)"/>
      <path id="NotoSerifKR-ExtraLight-c801" d="M 5062 1632 
L 4858 1632 
Q 4851 1709 4848 1817 
Q 4845 1926 4841 2041 
Q 4838 2157 4838 2269 
Q 4838 2381 4838 2470 
L 4838 4986 
Q 4749 5082 4601 5162 
Q 4454 5242 4282 5293 
L 4320 5421 
Q 4326 5446 4384 5446 
Q 4486 5446 4627 5420 
Q 4768 5395 4902 5363 
Q 5037 5331 5120 5299 
Q 5190 5274 5190 5184 
L 5178 4870 
L 5178 2605 
Q 5178 2406 5165 2224 
Q 5152 2042 5126 1891 
Q 5101 1741 5062 1632 
z
M 3866 3488 
L 4218 3270 
Q 4128 3264 4013 3235 
Q 3898 3206 3808 3162 
Q 3680 3213 3561 3277 
Q 3443 3341 3354 3405 
Q 3322 3437 3334 3462 
L 3360 3520 
Q 3482 3507 3613 3497 
Q 3744 3488 3866 3488 
z
M 4915 3526 
L 4915 3302 
Q 4819 3302 4681 3296 
Q 4544 3290 4416 3283 
Q 4288 3277 4218 3270 
L 3866 3488 
Q 3981 3488 4173 3491 
Q 4365 3494 4569 3504 
Q 4774 3514 4915 3526 
z
M 3021 4678 
L 3021 4467 
Q 2906 4467 2685 4464 
Q 2464 4461 2217 4454 
Q 1971 4448 1772 4441 
Q 1574 4435 1504 4429 
Q 1421 4422 1280 4393 
Q 1139 4365 1062 4333 
Q 947 4371 825 4438 
Q 704 4506 614 4570 
Q 582 4589 595 4614 
L 627 4685 
Q 742 4666 886 4653 
Q 1030 4640 1139 4640 
Q 1210 4640 1395 4643 
Q 1581 4646 1817 4649 
Q 2054 4653 2297 4656 
Q 2541 4659 2736 4665 
Q 2931 4672 3021 4678 
z
M 3418 4429 
L 2995 4467 
L 3008 4678 
L 3194 4774 
Q 3238 4800 3283 4774 
Q 3334 4755 3411 4720 
Q 3488 4685 3526 4659 
Q 3571 4640 3533 4589 
L 3418 4429 
z
M 3635 1978 
L 2406 3136 
L 3405 2579 
L 3661 2490 
Q 3725 2406 3792 2297 
Q 3859 2189 3891 2118 
Q 3930 2022 3917 1984 
Q 3904 1939 3853 1916 
Q 3802 1894 3757 1901 
Q 3731 1907 3699 1929 
Q 3667 1952 3635 1978 
z
M 3405 2579 
L 3386 2547 
L 2406 3136 
L 2573 3309 
L 3405 2579 
z
M 4787 1414 
L 4787 1171 
Q 4646 1171 4406 1168 
Q 4166 1165 3878 1161 
Q 3590 1158 3315 1152 
Q 3040 1146 2829 1139 
Q 2618 1133 2534 1126 
Q 2432 1120 2262 1091 
Q 2093 1062 1990 1024 
Q 1850 1069 1715 1136 
Q 1581 1203 1472 1280 
Q 1440 1299 1453 1331 
L 1491 1408 
Q 1619 1382 1785 1366 
Q 1952 1350 2074 1350 
Q 2150 1350 2352 1353 
Q 2554 1357 2829 1360 
Q 3104 1363 3405 1369 
Q 3706 1376 3987 1382 
Q 4269 1389 4483 1398 
Q 4698 1408 4787 1414 
z
M 5133 1126 
L 4781 1171 
L 4755 1408 
L 4915 1491 
Q 4960 1517 5005 1491 
Q 5043 1466 5107 1427 
Q 5171 1389 5197 1363 
Q 5222 1338 5203 1293 
L 5133 1126 
z
M 5024 -742 
L 4806 -742 
Q 4800 -627 4793 -476 
Q 4787 -326 4784 -176 
Q 4781 -26 4781 90 
L 4781 1171 
L 5133 1171 
L 5120 186 
Q 5120 58 5107 -112 
Q 5094 -282 5075 -448 
Q 5056 -614 5024 -742 
z
M 486 1645 
L 429 1696 
Q 410 1722 429 1741 
Q 1024 2131 1523 2585 
Q 2022 3040 2396 3523 
Q 2771 4006 2995 4467 
L 3226 4550 
L 3418 4429 
Q 3194 3936 2758 3424 
Q 2323 2912 1750 2454 
Q 1178 1997 531 1651 
Q 506 1632 486 1645 
z
" transform="scale(0.015625)"/>
     </defs>
     <use xlink:href="#NotoSerifKR-ExtraLight-cc3d"/>
     <use xlink:href="#NotoSerifKR-ExtraLight-bc1c" transform="translate(96.599991 0)"/>
     <use xlink:href="#NotoSerifKR-ExtraLight-c801" transform="translate(193.199982 0)"/>
     <use xlink:href="#NotoSerifKR-ExtraLight-20" transform="translate(289.799973 0)"/>
     <use xlink:href="#NotoSerifKR-ExtraLight-b2a5" transform="translate(315.699966 0)"/>
     <use xlink:href="#NotoSerifKR-ExtraLight-b825" transform="translate(412.299957 0)"/>
    </g>
   </g>
  </g>
 </g>
 <defs>
  <clipPath id="p4bf9ee6663">
   <rect x="43.509375" y="7.2" width="301.32" height="199.584"/>
  </clipPath>
 </defs>
</svg>
