<svg xmlns="http://www.w3.org/2000/svg" viewBox="0 0 920 580" width="920" height="580"><style>@import url('https://fonts.googleapis.com/css2?family=Noto+Serif+KR:wght@400;600;700&family=Source+Serif+4:ital,wght@0,400;0,600;1,400&family=IBM+Plex+Mono:wght@400;500&display=swap');text{fill:#1A1A1A;font-family:'Noto Serif KR','Source Serif 4',serif}.mono{font-family:'IBM Plex Mono',monospace}.serif{font-family:'Noto Serif KR','Source Serif 4',serif}</style><rect x="0" y="0" width="920" height="580" fill="#FFFFFF"/><defs><marker id="ar" markerWidth="9" markerHeight="9" refX="7" refY="4.5" orient="auto"><path d="M0,1 L7,4.5 L0,8 Z" fill="#1F7A6B"/></marker></defs><line x1="184" y1="448" x2="263" y2="327" stroke="#1F7A6B" stroke-width="1.2" marker-end="url(#ar)"/><line x1="306" y1="300" x2="558" y2="300" stroke="#1F7A6B" stroke-width="1.2" marker-end="url(#ar)"/><line x1="723" y1="451" x2="611" y2="324" stroke="#1F7A6B" stroke-width="1.2" marker-end="url(#ar)"/><line x1="460" y1="444" x2="460" y2="162" stroke="#1F7A6B" stroke-width="1.2" marker-end="url(#ar)"/><line x1="574" y1="279" x2="479" y2="155" stroke="#1F7A6B" stroke-width="1.2" marker-end="url(#ar)"/><path d="M 590 326 C 590 430, 500 340, 490 444" fill="none" stroke="#1F7A6B" stroke-width="1.2" stroke-dasharray="3 4" marker-end="url(#ar)"/><text x="595.0" y="385.0" text-anchor="middle" font-size="11" fill="#555555" class="serif">self-reference: attend to the token after the previous occurrence</text><rect x="86.0" y="447.0" width="168" height="46" rx="4" fill="#FFFFFF" stroke="#1A1A1A" stroke-width="1.1"/><text x="170" y="474" text-anchor="middle" font-size="12.5" fill="#1A1A1A" class="serif">A · earlier</text><rect x="376.0" y="447.0" width="168" height="46" rx="4" fill="#FFFFFF" stroke="#1A1A1A" stroke-width="1.1"/><text x="460" y="474" text-anchor="middle" font-size="12.5" fill="#1A1A1A" class="serif">B · earlier</text><rect x="656.0" y="447.0" width="168" height="46" rx="4" fill="#FFFFFF" stroke="#1A1A1A" stroke-width="1.1"/><text x="740" y="474" text-anchor="middle" font-size="12.5" fill="#1A1A1A" class="serif">A · current</text><rect x="196.0" y="277.0" width="168" height="46" rx="4" fill="#FFFFFF" stroke="#1A1A1A" stroke-width="1.1"/><text x="280" y="304" text-anchor="middle" font-size="12.5" fill="#1A1A1A" class="serif">prev-token feature</text><rect x="506.0" y="277.0" width="168" height="46" rx="4" fill="#FFFFFF" stroke="#1F7A6B" stroke-width="1.6"/><text x="590" y="304" text-anchor="middle" font-size="12.5" fill="#1F7A6B" class="serif" font-weight="700">induction feature</text><rect x="376.0" y="107.0" width="168" height="46" rx="4" fill="#FFFFFF" stroke="#1F7A6B" stroke-width="1.6"/><text x="460" y="134" text-anchor="middle" font-size="12.5" fill="#1F7A6B" class="serif" font-weight="700">predict next: B</text><line x1="60" y1="540" x2="100" y2="540" stroke="#1A1A1A" stroke-width="1.2" marker-end="url(#ar)"/><text x="108" y="544" text-anchor="start" font-size="10.5" fill="#555555" class="serif">information flow</text><line x1="250" y1="540" x2="290" y2="540" stroke="#1A1A1A" stroke-width="1.2" stroke-dasharray="3 4" marker-end="url(#ar)"/><text x="298" y="544" text-anchor="start" font-size="10.5" fill="#555555" class="serif">indirect</text></svg>