<svg xmlns="http://www.w3.org/2000/svg" viewBox="0 0 1128 420" width="1128" height="420"><style>@import url('https://fonts.googleapis.com/css2?family=Noto+Serif+KR:wght@400;600;700&family=Source+Serif+4:ital,wght@0,400;0,600;1,400&family=IBM+Plex+Mono:wght@400;500&display=swap');text{fill:#1A1A1A;font-family:'Noto Serif KR','Source Serif 4',serif}.mono{font-family:'IBM Plex Mono',monospace}.serif{font-family:'Noto Serif KR','Source Serif 4',serif}</style><rect x="0" y="0" width="1128" height="420" fill="#FFFFFF"/><rect x="20" y="18" width="1088" height="60" fill="#F2F2F2"/><rect x="180" y="18" width="232" height="60" fill="#EAF0F8"/><rect x="412" y="18" width="232" height="60" fill="#FBF3E2"/><rect x="644" y="18" width="232" height="60" fill="#F8E8EB"/><rect x="876" y="18" width="232" height="60" fill="#E6F2EF"/><line x1="20" y1="18" x2="20" y2="402" stroke="#1A1A1A" stroke-width="1"/><line x1="180" y1="18" x2="180" y2="402" stroke="#1A1A1A" stroke-width="1"/><line x1="412" y1="18" x2="412" y2="402" stroke="#1A1A1A" stroke-width="1"/><line x1="644" y1="18" x2="644" y2="402" stroke="#1A1A1A" stroke-width="1"/><line x1="876" y1="18" x2="876" y2="402" stroke="#1A1A1A" stroke-width="1"/><line x1="1108" y1="18" x2="1108" y2="402" stroke="#1A1A1A" stroke-width="1"/><line x1="20" y1="18" x2="1108" y2="18" stroke="#1A1A1A" stroke-width="1.2"/><line x1="20" y1="78" x2="1108" y2="78" stroke="#1A1A1A" stroke-width="1.2"/><line x1="20" y1="186" x2="1108" y2="186" stroke="#1A1A1A" stroke-width="1"/><line x1="20" y1="294" x2="1108" y2="294" stroke="#1A1A1A" stroke-width="1"/><line x1="20" y1="402" x2="1108" y2="402" stroke="#1A1A1A" stroke-width="1.2"/><text x="100.0" y="55" text-anchor="middle" font-size="12.5" fill="#555555" class="serif">단계 \ 영역</text><text x="296.0" y="55" text-anchor="middle" font-size="13.5" fill="#2A4D8F" class="serif" font-weight="600">시각 · 에셔</text><line x1="186" y1="77" x2="406" y2="77" stroke="#2A4D8F" stroke-width="2.5"/><text x="528.0" y="55" text-anchor="middle" font-size="13.5" fill="#C8860D" class="serif" font-weight="600">청각 · 바흐</text><line x1="418" y1="77" x2="638" y2="77" stroke="#C8860D" stroke-width="2.5"/><text x="760.0" y="55" text-anchor="middle" font-size="13.5" fill="#A6243A" class="serif" font-weight="600">논리 · 괴델</text><line x1="650" y1="77" x2="870" y2="77" stroke="#A6243A" stroke-width="2.5"/><text x="992.0" y="55" text-anchor="middle" font-size="13.5" fill="#1F7A6B" class="serif" font-weight="600">계산 · 트랜스포머</text><line x1="882" y1="77" x2="1102" y2="77" stroke="#1F7A6B" stroke-width="2.5"/><text x="100.0" y="137.0" text-anchor="middle" font-size="14" fill="#1A1A1A" class="serif" font-weight="700">환원</text><text x="296.0" y="122" text-anchor="middle" font-size="12.5" fill="#1A1A1A" class="serif">평면결정군 17 · 쌍곡 기하</text><text x="296.0" y="148" text-anchor="middle" font-size="10.5" fill="#888888" class="mono">wallpaper groups</text><text x="528.0" y="122" text-anchor="middle" font-size="12.5" fill="#1A1A1A" class="serif">단일 동기 + 대위법</text><text x="528.0" y="148" text-anchor="middle" font-size="10.5" fill="#888888" class="mono">motif + counterpoint</text><text x="760.0" y="122" text-anchor="middle" font-size="12.5" fill="#1A1A1A" class="serif">Principia 형식 체계</text><text x="760.0" y="148" text-anchor="middle" font-size="10.5" fill="#888888" class="mono">axioms · Prov(x)</text><text x="992.0" y="122" text-anchor="middle" font-size="12.5" fill="#1A1A1A" class="serif">Q·K·V 행렬 연산</text><text x="992.0" y="148" text-anchor="middle" font-size="10.5" fill="#888888" class="mono">QKᵀ/√d · softmax</text><text x="100.0" y="245.0" text-anchor="middle" font-size="14" fill="#1A1A1A" class="serif" font-weight="700">자기참조</text><text x="296.0" y="230" text-anchor="middle" font-size="12.5" fill="#1A1A1A" class="serif">그림 속 그림 그리는 손</text><text x="296.0" y="256" text-anchor="middle" font-size="10.5" fill="#888888" class="mono">Drawing Hands</text><text x="528.0" y="230" text-anchor="middle" font-size="12.5" fill="#1A1A1A" class="serif">회문 · 무한상승 · BACH</text><text x="528.0" y="256" text-anchor="middle" font-size="10.5" fill="#888888" class="mono">palindrome · canon</text><text x="760.0" y="230" text-anchor="middle" font-size="12.5" fill="#1A1A1A" class="serif">괴델 수와 ⌜G⌝</text><text x="760.0" y="256" text-anchor="middle" font-size="10.5" fill="#888888" class="mono">sub(13, 17, 13)</text><text x="992.0" y="230" text-anchor="middle" font-size="12.5" fill="#1A1A1A" class="serif">self-attention · ICL</text><text x="992.0" y="256" text-anchor="middle" font-size="10.5" fill="#888888" class="mono">induction head</text><text x="100.0" y="353.0" text-anchor="middle" font-size="14" fill="#1A1A1A" class="serif" font-weight="700">창발</text><text x="296.0" y="338" text-anchor="middle" font-size="12.5" fill="#1A1A1A" class="serif">시각적 무한 · 불가능 도형</text><text x="296.0" y="364" text-anchor="middle" font-size="10.5" fill="#888888" class="mono">visual infinity</text><text x="528.0" y="338" text-anchor="middle" font-size="12.5" fill="#1A1A1A" class="serif">무한감 · 미완성의 의미</text><text x="528.0" y="364" text-anchor="middle" font-size="10.5" fill="#888888" class="mono">sense of the infinite</text><text x="760.0" y="338" text-anchor="middle" font-size="12.5" fill="#1A1A1A" class="serif">메타-진리 · 불완전성</text><text x="760.0" y="364" text-anchor="middle" font-size="10.5" fill="#888888" class="mono">¬Prov(⌜G⌝) ∧ True(G)</text><text x="992.0" y="338" text-anchor="middle" font-size="12.5" fill="#1A1A1A" class="serif">창발적 능력</text><text x="992.0" y="364" text-anchor="middle" font-size="10.5" fill="#888888" class="mono">emergent abilities</text></svg>