<svg xmlns="http://www.w3.org/2000/svg" viewBox="0 0 880 334" width="880" height="334"><style>@import url('https://fonts.googleapis.com/css2?family=Noto+Serif+KR:wght@400;600;700&family=Source+Serif+4:ital,wght@0,400;0,600;1,400&family=IBM+Plex+Mono:wght@400;500&display=swap');text{fill:#1A1A1A;font-family:'Noto Serif KR','Source Serif 4',serif}.mono{font-family:'IBM Plex Mono',monospace}.serif{font-family:'Noto Serif KR','Source Serif 4',serif}</style><rect x="0" y="0" width="880" height="334" fill="#FFFFFF"/><text x="440.0" y="32" text-anchor="middle" font-size="15" fill="#1A1A1A" class="serif" font-weight="700">the 17 wallpaper groups</text><text x="70" y="50" text-anchor="start" font-size="10.5" fill="#888888" class="serif">highest rotation order</text><text x="110" y="88.0" text-anchor="end" font-size="15" fill="#1A1A1A" class="serif" font-weight="700">1</text><text x="132" y="87.0" text-anchor="start" font-size="10" fill="#888888" class="serif"></text><rect x="150" y="64" width="78" height="38" fill="#FFFFFF" stroke="#1A1A1A" stroke-width="1"/><text x="189.0" y="88.0" text-anchor="middle" font-size="13.5" fill="#1A1A1A" class="mono">p1</text><text x="110" y="138.0" text-anchor="end" font-size="15" fill="#1A1A1A" class="serif" font-weight="700">2</text><text x="132" y="137.0" text-anchor="start" font-size="10" fill="#888888" class="serif"></text><rect x="150" y="114" width="78" height="38" fill="#FFFFFF" stroke="#1A1A1A" stroke-width="1"/><text x="189.0" y="138.0" text-anchor="middle" font-size="13.5" fill="#1A1A1A" class="mono">p2</text><rect x="240" y="114" width="78" height="38" fill="#FFFFFF" stroke="#1A1A1A" stroke-width="1"/><text x="279.0" y="138.0" text-anchor="middle" font-size="13.5" fill="#1A1A1A" class="mono">pm</text><rect x="330" y="114" width="78" height="38" fill="#FFFFFF" stroke="#1A1A1A" stroke-width="1"/><text x="369.0" y="138.0" text-anchor="middle" font-size="13.5" fill="#1A1A1A" class="mono">pg</text><rect x="420" y="114" width="78" height="38" fill="#FFFFFF" stroke="#1A1A1A" stroke-width="1"/><text x="459.0" y="138.0" text-anchor="middle" font-size="13.5" fill="#1A1A1A" class="mono">cm</text><rect x="510" y="114" width="78" height="38" fill="#FFFFFF" stroke="#1A1A1A" stroke-width="1"/><text x="549.0" y="138.0" text-anchor="middle" font-size="13.5" fill="#1A1A1A" class="mono">pmm</text><rect x="600" y="114" width="78" height="38" fill="#FFFFFF" stroke="#1A1A1A" stroke-width="1"/><text x="639.0" y="138.0" text-anchor="middle" font-size="13.5" fill="#1A1A1A" class="mono">pmg</text><rect x="690" y="114" width="78" height="38" fill="#FFFFFF" stroke="#1A1A1A" stroke-width="1"/><text x="729.0" y="138.0" text-anchor="middle" font-size="13.5" fill="#1A1A1A" class="mono">pgg</text><rect x="780" y="114" width="78" height="38" fill="#FFFFFF" stroke="#1A1A1A" stroke-width="1"/><text x="819.0" y="138.0" text-anchor="middle" font-size="13.5" fill="#1A1A1A" class="mono">cmm</text><text x="110" y="188.0" text-anchor="end" font-size="15" fill="#1A1A1A" class="serif" font-weight="700">3</text><text x="132" y="187.0" text-anchor="start" font-size="10" fill="#888888" class="serif"></text><rect x="150" y="164" width="78" height="38" fill="#FFFFFF" stroke="#1A1A1A" stroke-width="1"/><text x="189.0" y="188.0" text-anchor="middle" font-size="13.5" fill="#1A1A1A" class="mono">p3</text><rect x="240" y="164" width="78" height="38" fill="#FFFFFF" stroke="#1A1A1A" stroke-width="1"/><text x="279.0" y="188.0" text-anchor="middle" font-size="13.5" fill="#1A1A1A" class="mono">p3m1</text><rect x="330" y="164" width="78" height="38" fill="#FFFFFF" stroke="#1A1A1A" stroke-width="1"/><text x="369.0" y="188.0" text-anchor="middle" font-size="13.5" fill="#1A1A1A" class="mono">p31m</text><text x="110" y="238.0" text-anchor="end" font-size="15" fill="#1A1A1A" class="serif" font-weight="700">4</text><text x="132" y="237.0" text-anchor="start" font-size="10" fill="#888888" class="serif"></text><rect x="150" y="214" width="78" height="38" fill="#FFFFFF" stroke="#1A1A1A" stroke-width="1"/><text x="189.0" y="238.0" text-anchor="middle" font-size="13.5" fill="#1A1A1A" class="mono">p4</text><rect x="240" y="214" width="78" height="38" fill="#FFFFFF" stroke="#1A1A1A" stroke-width="1"/><text x="279.0" y="238.0" text-anchor="middle" font-size="13.5" fill="#1A1A1A" class="mono">p4m</text><rect x="330" y="214" width="78" height="38" fill="#FFFFFF" stroke="#1A1A1A" stroke-width="1"/><text x="369.0" y="238.0" text-anchor="middle" font-size="13.5" fill="#1A1A1A" class="mono">p4g</text><text x="110" y="288.0" text-anchor="end" font-size="15" fill="#1A1A1A" class="serif" font-weight="700">6</text><text x="132" y="287.0" text-anchor="start" font-size="10" fill="#888888" class="serif"></text><rect x="150" y="264" width="78" height="38" fill="#FFFFFF" stroke="#1A1A1A" stroke-width="1"/><text x="189.0" y="288.0" text-anchor="middle" font-size="13.5" fill="#1A1A1A" class="mono">p6</text><rect x="240" y="264" width="78" height="38" fill="#FFFFFF" stroke="#1A1A1A" stroke-width="1"/><text x="279.0" y="288.0" text-anchor="middle" font-size="13.5" fill="#1A1A1A" class="mono">p6m</text></svg>