<svg xmlns="http://www.w3.org/2000/svg" viewBox="0 0 660 660" width="660" height="660"><style>@import url('https://fonts.googleapis.com/css2?family=Noto+Serif+KR:wght@400;600;700&family=Source+Serif+4:ital,wght@0,400;0,600;1,400&family=IBM+Plex+Mono:wght@400;500&display=swap');text{fill:#1A1A1A;font-family:'Noto Serif KR','Source Serif 4',serif}.mono{font-family:'IBM Plex Mono',monospace}.serif{font-family:'Noto Serif KR','Source Serif 4',serif}</style><rect x="0" y="0" width="660" height="660" fill="#FFFFFF"/><polygon points="218.46,561.13 263.08,535.37 198.38,498.02 153.77,523.78" fill="#1A1A1A" stroke="#1A1A1A" stroke-width="3.3000000000000003" stroke-linejoin="round"/><polygon points="198.38,333.16 153.77,358.92 153.77,523.78 198.38,498.02" fill="#1A1A1A" stroke="#1A1A1A" stroke-width="3.3000000000000003" stroke-linejoin="round"/><polygon points="263.08,370.51 198.38,333.16 198.38,498.02 263.08,535.37" fill="#1A1A1A" stroke="#1A1A1A" stroke-width="3.3000000000000003" stroke-linejoin="round"/><polygon points="243.00,556.33 307.69,518.98 263.08,493.22 198.38,530.57" fill="#1A1A1A" stroke="#1A1A1A" stroke-width="3.3000000000000003" stroke-linejoin="round"/><polygon points="263.08,328.36 198.38,365.71 198.38,530.57 263.08,493.22" fill="#1A1A1A" stroke="#1A1A1A" stroke-width="3.3000000000000003" stroke-linejoin="round"/><polygon points="307.69,354.12 263.08,328.36 263.08,493.22 307.69,518.98" fill="#1A1A1A" stroke="#1A1A1A" stroke-width="3.3000000000000003" stroke-linejoin="round"/><polygon points="287.62,539.93 352.31,502.58 307.69,476.82 243.00,514.17" fill="#1A1A1A" stroke="#1A1A1A" stroke-width="3.3000000000000003" stroke-linejoin="round"/><polygon points="307.69,311.97 243.00,349.32 243.00,514.17 307.69,476.82" fill="#1A1A1A" stroke="#1A1A1A" stroke-width="3.3000000000000003" stroke-linejoin="round"/><polygon points="352.31,337.73 307.69,311.97 307.69,476.82 352.31,502.58" fill="#1A1A1A" stroke="#1A1A1A" stroke-width="3.3000000000000003" stroke-linejoin="round"/><polygon points="332.23,523.54 396.92,486.19 352.31,460.43 287.62,497.78" fill="#1A1A1A" stroke="#1A1A1A" stroke-width="3.3000000000000003" stroke-linejoin="round"/><polygon points="352.31,295.58 287.62,332.93 287.62,497.78 352.31,460.43" fill="#1A1A1A" stroke="#1A1A1A" stroke-width="3.3000000000000003" stroke-linejoin="round"/><polygon points="396.92,321.34 352.31,295.58 352.31,460.43 396.92,486.19" fill="#1A1A1A" stroke="#1A1A1A" stroke-width="3.3000000000000003" stroke-linejoin="round"/><polygon points="376.85,507.15 441.54,469.80 396.92,444.04 332.23,481.39" fill="#1A1A1A" stroke="#1A1A1A" stroke-width="3.3000000000000003" stroke-linejoin="round"/><polygon points="396.92,279.19 332.23,316.54 332.23,481.39 396.92,444.04" fill="#1A1A1A" stroke="#1A1A1A" stroke-width="3.3000000000000003" stroke-linejoin="round"/><polygon points="441.54,304.94 396.92,279.19 396.92,444.04 441.54,469.80" fill="#1A1A1A" stroke="#1A1A1A" stroke-width="3.3000000000000003" stroke-linejoin="round"/><polygon points="421.46,490.76 486.15,453.41 441.54,427.65 376.85,465.00" fill="#1A1A1A" stroke="#1A1A1A" stroke-width="3.3000000000000003" stroke-linejoin="round"/><polygon points="441.54,262.79 376.85,300.14 376.85,465.00 441.54,427.65" fill="#1A1A1A" stroke="#1A1A1A" stroke-width="3.3000000000000003" stroke-linejoin="round"/><polygon points="486.15,288.55 441.54,262.79 441.54,427.65 486.15,453.41" fill="#1A1A1A" stroke="#1A1A1A" stroke-width="3.3000000000000003" stroke-linejoin="round"/><polygon points="466.08,474.37 530.77,437.02 486.15,411.26 421.46,448.61" fill="#1A1A1A" stroke="#1A1A1A" stroke-width="3.3000000000000003" stroke-linejoin="round"/><polygon points="486.15,246.40 421.46,283.75 421.46,448.61 486.15,411.26" fill="#1A1A1A" stroke="#1A1A1A" stroke-width="3.3000000000000003" stroke-linejoin="round"/><polygon points="530.77,272.16 486.15,246.40 486.15,411.26 530.77,437.02" fill="#1A1A1A" stroke="#1A1A1A" stroke-width="3.3000000000000003" stroke-linejoin="round"/><polygon points="510.69,457.97 575.38,420.62 530.77,394.87 466.08,432.22" fill="#1A1A1A" stroke="#1A1A1A" stroke-width="3.3000000000000003" stroke-linejoin="round"/><polygon points="530.77,230.01 466.08,267.36 466.08,432.22 530.77,394.87" fill="#1A1A1A" stroke="#1A1A1A" stroke-width="3.3000000000000003" stroke-linejoin="round"/><polygon points="575.38,255.77 530.77,230.01 530.77,394.87 575.38,420.62" fill="#1A1A1A" stroke="#1A1A1A" stroke-width="3.3000000000000003" stroke-linejoin="round"/><polygon points="555.31,441.58 620.00,404.23 575.38,378.47 510.69,415.82" fill="#1A1A1A" stroke="#1A1A1A" stroke-width="3.3000000000000003" stroke-linejoin="round"/><polygon points="575.38,213.62 510.69,250.97 510.69,415.82 575.38,378.47" fill="#1A1A1A" stroke="#1A1A1A" stroke-width="3.3000000000000003" stroke-linejoin="round"/><polygon points="620.00,239.38 575.38,213.62 575.38,378.47 620.00,404.23" fill="#1A1A1A" stroke="#1A1A1A" stroke-width="3.3000000000000003" stroke-linejoin="round"/><polygon points="550.85,425.19 595.46,399.43 530.77,362.08 486.15,387.84" fill="#1A1A1A" stroke="#1A1A1A" stroke-width="3.3000000000000003" stroke-linejoin="round"/><polygon points="530.77,197.23 486.15,222.98 486.15,387.84 530.77,362.08" fill="#1A1A1A" stroke="#1A1A1A" stroke-width="3.3000000000000003" stroke-linejoin="round"/><polygon points="595.46,234.58 530.77,197.23 530.77,362.08 595.46,399.43" fill="#1A1A1A" stroke="#1A1A1A" stroke-width="3.3000000000000003" stroke-linejoin="round"/><polygon points="506.23,408.80 550.85,383.04 486.15,345.69 441.54,371.45" fill="#1A1A1A" stroke="#1A1A1A" stroke-width="3.3000000000000003" stroke-linejoin="round"/><polygon points="486.15,180.83 441.54,206.59 441.54,371.45 486.15,345.69" fill="#1A1A1A" stroke="#1A1A1A" stroke-width="3.3000000000000003" stroke-linejoin="round"/><polygon points="550.85,218.18 486.15,180.83 486.15,345.69 550.85,383.04" fill="#1A1A1A" stroke="#1A1A1A" stroke-width="3.3000000000000003" stroke-linejoin="round"/><polygon points="461.62,392.41 506.23,366.65 441.54,329.30 396.92,355.06" fill="#1A1A1A" stroke="#1A1A1A" stroke-width="3.3000000000000003" stroke-linejoin="round"/><polygon points="441.54,164.44 396.92,190.20 396.92,355.06 441.54,329.30" fill="#1A1A1A" stroke="#1A1A1A" stroke-width="3.3000000000000003" stroke-linejoin="round"/><polygon points="506.23,201.79 441.54,164.44 441.54,329.30 506.23,366.65" fill="#1A1A1A" stroke="#1A1A1A" stroke-width="3.3000000000000003" stroke-linejoin="round"/><polygon points="417.00,376.01 461.62,350.26 396.92,312.91 352.31,338.66" fill="#1A1A1A" stroke="#1A1A1A" stroke-width="3.3000000000000003" stroke-linejoin="round"/><polygon points="396.92,148.05 352.31,173.81 352.31,338.66 396.92,312.91" fill="#1A1A1A" stroke="#1A1A1A" stroke-width="3.3000000000000003" stroke-linejoin="round"/><polygon points="461.62,185.40 396.92,148.05 396.92,312.91 461.62,350.26" fill="#1A1A1A" stroke="#1A1A1A" stroke-width="3.3000000000000003" stroke-linejoin="round"/><polygon points="372.38,359.62 417.00,333.86 352.31,296.51 307.69,322.27" fill="#1A1A1A" stroke="#1A1A1A" stroke-width="3.3000000000000003" stroke-linejoin="round"/><polygon points="352.31,131.66 307.69,157.42 307.69,322.27 352.31,296.51" fill="#1A1A1A" stroke="#1A1A1A" stroke-width="3.3000000000000003" stroke-linejoin="round"/><polygon points="417.00,169.01 352.31,131.66 352.31,296.51 417.00,333.86" fill="#1A1A1A" stroke="#1A1A1A" stroke-width="3.3000000000000003" stroke-linejoin="round"/><polygon points="327.77,343.23 372.38,317.47 307.69,280.12 263.08,305.88" fill="#1A1A1A" stroke="#1A1A1A" stroke-width="3.3000000000000003" stroke-linejoin="round"/><polygon points="307.69,115.27 263.08,141.02 263.08,305.88 307.69,280.12" fill="#1A1A1A" stroke="#1A1A1A" stroke-width="3.3000000000000003" stroke-linejoin="round"/><polygon points="372.38,152.62 307.69,115.27 307.69,280.12 372.38,317.47" fill="#1A1A1A" stroke="#1A1A1A" stroke-width="3.3000000000000003" stroke-linejoin="round"/><polygon points="283.15,326.84 327.77,301.08 263.08,263.73 218.46,289.49" fill="#1A1A1A" stroke="#1A1A1A" stroke-width="3.3000000000000003" stroke-linejoin="round"/><polygon points="263.08,98.87 218.46,124.63 218.46,289.49 263.08,263.73" fill="#1A1A1A" stroke="#1A1A1A" stroke-width="3.3000000000000003" stroke-linejoin="round"/><polygon points="327.77,136.22 263.08,98.87 263.08,263.73 327.77,301.08" fill="#1A1A1A" stroke="#1A1A1A" stroke-width="3.3000000000000003" stroke-linejoin="round"/><polygon points="218.46,350.37 283.15,313.02 238.54,287.26 173.85,324.61" fill="#1A1A1A" stroke="#1A1A1A" stroke-width="3.3000000000000003" stroke-linejoin="round"/><polygon points="238.54,122.41 173.85,159.76 173.85,324.61 238.54,287.26" fill="#1A1A1A" stroke="#1A1A1A" stroke-width="3.3000000000000003" stroke-linejoin="round"/><polygon points="283.15,148.17 238.54,122.41 238.54,287.26 283.15,313.02" fill="#1A1A1A" stroke="#1A1A1A" stroke-width="3.3000000000000003" stroke-linejoin="round"/><polygon points="173.85,385.50 238.54,348.15 193.92,322.39 129.23,359.74" fill="#1A1A1A" stroke="#1A1A1A" stroke-width="3.3000000000000003" stroke-linejoin="round"/><polygon points="193.92,157.53 129.23,194.88 129.23,359.74 193.92,322.39" fill="#1A1A1A" stroke="#1A1A1A" stroke-width="3.3000000000000003" stroke-linejoin="round"/><polygon points="238.54,183.29 193.92,157.53 193.92,322.39 238.54,348.15" fill="#1A1A1A" stroke="#1A1A1A" stroke-width="3.3000000000000003" stroke-linejoin="round"/><polygon points="129.23,420.62 193.92,383.27 149.31,357.51 84.62,394.87" fill="#1A1A1A" stroke="#1A1A1A" stroke-width="3.3000000000000003" stroke-linejoin="round"/><polygon points="149.31,192.66 84.62,230.01 84.62,394.87 149.31,357.51" fill="#1A1A1A" stroke="#1A1A1A" stroke-width="3.3000000000000003" stroke-linejoin="round"/><polygon points="193.92,218.42 149.31,192.66 149.31,357.51 193.92,383.27" fill="#1A1A1A" stroke="#1A1A1A" stroke-width="3.3000000000000003" stroke-linejoin="round"/><polygon points="84.62,455.75 149.31,418.40 104.69,392.64 40.00,429.99" fill="#1A1A1A" stroke="#1A1A1A" stroke-width="3.3000000000000003" stroke-linejoin="round"/><polygon points="104.69,227.78 40.00,265.13 40.00,429.99 104.69,392.64" fill="#1A1A1A" stroke="#1A1A1A" stroke-width="3.3000000000000003" stroke-linejoin="round"/><polygon points="149.31,253.54 104.69,227.78 104.69,392.64 149.31,418.40" fill="#1A1A1A" stroke="#1A1A1A" stroke-width="3.3000000000000003" stroke-linejoin="round"/><polygon points="129.23,490.87 173.85,465.12 109.15,427.77 64.54,453.52" fill="#1A1A1A" stroke="#1A1A1A" stroke-width="3.3000000000000003" stroke-linejoin="round"/><polygon points="109.15,262.91 64.54,288.67 64.54,453.52 109.15,427.77" fill="#1A1A1A" stroke="#1A1A1A" stroke-width="3.3000000000000003" stroke-linejoin="round"/><polygon points="173.85,300.26 109.15,262.91 109.15,427.77 173.85,465.12" fill="#1A1A1A" stroke="#1A1A1A" stroke-width="3.3000000000000003" stroke-linejoin="round"/><polygon points="173.85,526.00 218.46,500.24 153.77,462.89 109.15,488.65" fill="#1A1A1A" stroke="#1A1A1A" stroke-width="3.3000000000000003" stroke-linejoin="round"/><polygon points="153.77,298.04 109.15,323.79 109.15,488.65 153.77,462.89" fill="#1A1A1A" stroke="#1A1A1A" stroke-width="3.3000000000000003" stroke-linejoin="round"/><polygon points="218.46,335.39 153.77,298.04 153.77,462.89 218.46,500.24" fill="#1A1A1A" stroke="#1A1A1A" stroke-width="3.3000000000000003" stroke-linejoin="round"/><polygon points="263.08,370.51 218.46,344.75 218.46,518.98 263.08,544.73" fill="#1A1A1A" stroke="#1A1A1A" stroke-width="3.3000000000000003" stroke-linejoin="round"/><polygon points="307.69,354.12 263.08,328.36 263.08,502.58 307.69,528.34" fill="#1A1A1A" stroke="#1A1A1A" stroke-width="3.3000000000000003" stroke-linejoin="round"/><polygon points="352.31,337.73 307.69,311.97 307.69,486.19 352.31,511.95" fill="#1A1A1A" stroke="#1A1A1A" stroke-width="3.3000000000000003" stroke-linejoin="round"/><polygon points="396.92,321.34 352.31,295.58 352.31,469.80 396.92,495.56" fill="#1A1A1A" stroke="#1A1A1A" stroke-width="3.3000000000000003" stroke-linejoin="round"/><polygon points="441.54,304.94 396.92,279.19 396.92,453.41 441.54,479.17" fill="#1A1A1A" stroke="#1A1A1A" stroke-width="3.3000000000000003" stroke-linejoin="round"/><polygon points="486.15,288.55 441.54,262.79 441.54,437.02 486.15,462.77" fill="#1A1A1A" stroke="#1A1A1A" stroke-width="3.3000000000000003" stroke-linejoin="round"/><polygon points="530.77,272.16 486.15,246.40 486.15,420.62 530.77,446.38" fill="#1A1A1A" stroke="#1A1A1A" stroke-width="3.3000000000000003" stroke-linejoin="round"/><polygon points="575.38,255.77 530.77,230.01 530.77,404.23 575.38,429.99" fill="#1A1A1A" stroke="#1A1A1A" stroke-width="3.3000000000000003" stroke-linejoin="round"/><polygon points="530.77,239.38 575.38,213.62 575.38,387.84 530.77,413.60" fill="#1A1A1A" stroke="#1A1A1A" stroke-width="3.3000000000000003" stroke-linejoin="round"/><polygon points="486.15,222.98 530.77,197.23 530.77,371.45 486.15,397.21" fill="#1A1A1A" stroke="#1A1A1A" stroke-width="3.3000000000000003" stroke-linejoin="round"/><polygon points="441.54,206.59 486.15,180.83 486.15,355.06 441.54,380.81" fill="#1A1A1A" stroke="#1A1A1A" stroke-width="3.3000000000000003" stroke-linejoin="round"/><polygon points="396.92,190.20 441.54,164.44 441.54,338.66 396.92,364.42" fill="#1A1A1A" stroke="#1A1A1A" stroke-width="3.3000000000000003" stroke-linejoin="round"/><polygon points="352.31,173.81 396.92,148.05 396.92,322.27 352.31,348.03" fill="#1A1A1A" stroke="#1A1A1A" stroke-width="3.3000000000000003" stroke-linejoin="round"/><polygon points="307.69,157.42 352.31,131.66 352.31,305.88 307.69,331.64" fill="#1A1A1A" stroke="#1A1A1A" stroke-width="3.3000000000000003" stroke-linejoin="round"/><polygon points="263.08,141.02 307.69,115.27 307.69,289.49 263.08,315.25" fill="#1A1A1A" stroke="#1A1A1A" stroke-width="3.3000000000000003" stroke-linejoin="round"/><polygon points="263.08,150.39 218.46,124.63 218.46,298.86 263.08,324.61" fill="#1A1A1A" stroke="#1A1A1A" stroke-width="3.3000000000000003" stroke-linejoin="round"/><polygon points="218.46,185.52 173.85,159.76 173.85,333.98 218.46,359.74" fill="#1A1A1A" stroke="#1A1A1A" stroke-width="3.3000000000000003" stroke-linejoin="round"/><polygon points="173.85,220.64 129.23,194.88 129.23,369.11 173.85,394.87" fill="#1A1A1A" stroke="#1A1A1A" stroke-width="3.3000000000000003" stroke-linejoin="round"/><polygon points="129.23,255.77 84.62,230.01 84.62,404.23 129.23,429.99" fill="#1A1A1A" stroke="#1A1A1A" stroke-width="3.3000000000000003" stroke-linejoin="round"/><polygon points="84.62,290.89 129.23,265.13 129.23,439.36 84.62,465.12" fill="#1A1A1A" stroke="#1A1A1A" stroke-width="3.3000000000000003" stroke-linejoin="round"/><polygon points="129.23,326.02 173.85,300.26 173.85,474.48 129.23,500.24" fill="#1A1A1A" stroke="#1A1A1A" stroke-width="3.3000000000000003" stroke-linejoin="round"/><polygon points="173.85,361.14 218.46,335.39 218.46,509.61 173.85,535.37" fill="#1A1A1A" stroke="#1A1A1A" stroke-width="3.3000000000000003" stroke-linejoin="round"/><polygon points="263.08,370.51 218.46,344.75 218.46,518.98 263.08,544.73" fill="#A6A6A6" stroke="#A6A6A6" stroke-width="1.0" stroke-linejoin="round"/><polygon points="307.69,354.12 263.08,328.36 263.08,502.58 307.69,528.34" fill="#A6A6A6" stroke="#A6A6A6" stroke-width="1.0" stroke-linejoin="round"/><polygon points="263.08,370.51 198.38,333.16 198.38,498.02 263.08,535.37" fill="#A6A6A6" stroke="#A6A6A6" stroke-width="1.0" stroke-linejoin="round"/><polygon points="198.38,333.16 153.77,358.92 153.77,523.78 198.38,498.02" fill="#CFCFCF" stroke="#CFCFCF" stroke-width="1.0" stroke-linejoin="round"/><polygon points="352.31,337.73 307.69,311.97 307.69,486.19 352.31,511.95" fill="#A6A6A6" stroke="#A6A6A6" stroke-width="1.0" stroke-linejoin="round"/><polygon points="263.08,328.36 198.38,365.71 198.38,530.57 263.08,493.22" fill="#CFCFCF" stroke="#CFCFCF" stroke-width="1.0" stroke-linejoin="round"/><polygon points="307.69,354.12 263.08,328.36 263.08,493.22 307.69,518.98" fill="#A6A6A6" stroke="#A6A6A6" stroke-width="1.0" stroke-linejoin="round"/><polygon points="218.46,561.13 263.08,535.37 198.38,498.02 153.77,523.78" fill="#EDEDED" stroke="#1A1A1A" stroke-width="1.5" stroke-linejoin="round"/><polygon points="396.92,321.34 352.31,295.58 352.31,469.80 396.92,495.56" fill="#A6A6A6" stroke="#A6A6A6" stroke-width="1.0" stroke-linejoin="round"/><polygon points="243.00,556.33 307.69,518.98 263.08,493.22 198.38,530.57" fill="#EDEDED" stroke="#1A1A1A" stroke-width="1.5" stroke-linejoin="round"/><polygon points="307.69,311.97 243.00,349.32 243.00,514.17 307.69,476.82" fill="#CFCFCF" stroke="#CFCFCF" stroke-width="1.0" stroke-linejoin="round"/><polygon points="352.31,337.73 307.69,311.97 307.69,476.82 352.31,502.58" fill="#A6A6A6" stroke="#A6A6A6" stroke-width="1.0" stroke-linejoin="round"/><polygon points="441.54,304.94 396.92,279.19 396.92,453.41 441.54,479.17" fill="#A6A6A6" stroke="#A6A6A6" stroke-width="1.0" stroke-linejoin="round"/><polygon points="287.62,539.93 352.31,502.58 307.69,476.82 243.00,514.17" fill="#EDEDED" stroke="#1A1A1A" stroke-width="1.5" stroke-linejoin="round"/><polygon points="352.31,295.58 287.62,332.93 287.62,497.78 352.31,460.43" fill="#CFCFCF" stroke="#CFCFCF" stroke-width="1.0" stroke-linejoin="round"/><polygon points="396.92,321.34 352.31,295.58 352.31,460.43 396.92,486.19" fill="#A6A6A6" stroke="#A6A6A6" stroke-width="1.0" stroke-linejoin="round"/><polygon points="486.15,288.55 441.54,262.79 441.54,437.02 486.15,462.77" fill="#A6A6A6" stroke="#A6A6A6" stroke-width="1.0" stroke-linejoin="round"/><polygon points="332.23,523.54 396.92,486.19 352.31,460.43 287.62,497.78" fill="#EDEDED" stroke="#1A1A1A" stroke-width="1.5" stroke-linejoin="round"/><polygon points="396.92,279.19 332.23,316.54 332.23,481.39 396.92,444.04" fill="#CFCFCF" stroke="#CFCFCF" stroke-width="1.0" stroke-linejoin="round"/><polygon points="441.54,304.94 396.92,279.19 396.92,444.04 441.54,469.80" fill="#A6A6A6" stroke="#A6A6A6" stroke-width="1.0" stroke-linejoin="round"/><polygon points="530.77,272.16 486.15,246.40 486.15,420.62 530.77,446.38" fill="#A6A6A6" stroke="#A6A6A6" stroke-width="1.0" stroke-linejoin="round"/><polygon points="376.85,507.15 441.54,469.80 396.92,444.04 332.23,481.39" fill="#EDEDED" stroke="#1A1A1A" stroke-width="1.5" stroke-linejoin="round"/><polygon points="441.54,262.79 376.85,300.14 376.85,465.00 441.54,427.65" fill="#CFCFCF" stroke="#CFCFCF" stroke-width="1.0" stroke-linejoin="round"/><polygon points="486.15,288.55 441.54,262.79 441.54,427.65 486.15,453.41" fill="#A6A6A6" stroke="#A6A6A6" stroke-width="1.0" stroke-linejoin="round"/><polygon points="575.38,255.77 530.77,230.01 530.77,404.23 575.38,429.99" fill="#A6A6A6" stroke="#A6A6A6" stroke-width="1.0" stroke-linejoin="round"/><polygon points="421.46,490.76 486.15,453.41 441.54,427.65 376.85,465.00" fill="#EDEDED" stroke="#1A1A1A" stroke-width="1.5" stroke-linejoin="round"/><polygon points="486.15,246.40 421.46,283.75 421.46,448.61 486.15,411.26" fill="#CFCFCF" stroke="#CFCFCF" stroke-width="1.0" stroke-linejoin="round"/><polygon points="530.77,272.16 486.15,246.40 486.15,411.26 530.77,437.02" fill="#A6A6A6" stroke="#A6A6A6" stroke-width="1.0" stroke-linejoin="round"/><polygon points="530.77,239.38 575.38,213.62 575.38,387.84 530.77,413.60" fill="#CFCFCF" stroke="#CFCFCF" stroke-width="1.0" stroke-linejoin="round"/><polygon points="466.08,474.37 530.77,437.02 486.15,411.26 421.46,448.61" fill="#EDEDED" stroke="#1A1A1A" stroke-width="1.5" stroke-linejoin="round"/><polygon points="530.77,230.01 466.08,267.36 466.08,432.22 530.77,394.87" fill="#CFCFCF" stroke="#CFCFCF" stroke-width="1.0" stroke-linejoin="round"/><polygon points="575.38,255.77 530.77,230.01 530.77,394.87 575.38,420.62" fill="#A6A6A6" stroke="#A6A6A6" stroke-width="1.0" stroke-linejoin="round"/><polygon points="486.15,222.98 530.77,197.23 530.77,371.45 486.15,397.21" fill="#CFCFCF" stroke="#CFCFCF" stroke-width="1.0" stroke-linejoin="round"/><polygon points="510.69,457.97 575.38,420.62 530.77,394.87 466.08,432.22" fill="#EDEDED" stroke="#1A1A1A" stroke-width="1.5" stroke-linejoin="round"/><polygon points="575.38,213.62 510.69,250.97 510.69,415.82 575.38,378.47" fill="#CFCFCF" stroke="#CFCFCF" stroke-width="1.0" stroke-linejoin="round"/><polygon points="620.00,239.38 575.38,213.62 575.38,378.47 620.00,404.23" fill="#A6A6A6" stroke="#A6A6A6" stroke-width="1.0" stroke-linejoin="round"/><polygon points="441.54,206.59 486.15,180.83 486.15,355.06 441.54,380.81" fill="#CFCFCF" stroke="#CFCFCF" stroke-width="1.0" stroke-linejoin="round"/><polygon points="173.85,361.14 218.46,335.39 218.46,509.61 173.85,535.37" fill="#CFCFCF" stroke="#CFCFCF" stroke-width="1.0" stroke-linejoin="round"/><polygon points="555.31,441.58 620.00,404.23 575.38,378.47 510.69,415.82" fill="#EDEDED" stroke="#1A1A1A" stroke-width="1.5" stroke-linejoin="round"/><polygon points="595.46,234.58 530.77,197.23 530.77,362.08 595.46,399.43" fill="#A6A6A6" stroke="#A6A6A6" stroke-width="1.0" stroke-linejoin="round"/><polygon points="530.77,197.23 486.15,222.98 486.15,387.84 530.77,362.08" fill="#CFCFCF" stroke="#CFCFCF" stroke-width="1.0" stroke-linejoin="round"/><polygon points="129.23,326.02 173.85,300.26 173.85,474.48 129.23,500.24" fill="#CFCFCF" stroke="#CFCFCF" stroke-width="1.0" stroke-linejoin="round"/><polygon points="396.92,190.20 441.54,164.44 441.54,338.66 396.92,364.42" fill="#CFCFCF" stroke="#CFCFCF" stroke-width="1.0" stroke-linejoin="round"/><polygon points="550.85,425.19 595.46,399.43 530.77,362.08 486.15,387.84" fill="#EDEDED" stroke="#1A1A1A" stroke-width="1.5" stroke-linejoin="round"/><polygon points="550.85,218.18 486.15,180.83 486.15,345.69 550.85,383.04" fill="#A6A6A6" stroke="#A6A6A6" stroke-width="1.0" stroke-linejoin="round"/><polygon points="84.62,290.89 129.23,265.13 129.23,439.36 84.62,465.12" fill="#CFCFCF" stroke="#CFCFCF" stroke-width="1.0" stroke-linejoin="round"/><polygon points="486.15,180.83 441.54,206.59 441.54,371.45 486.15,345.69" fill="#CFCFCF" stroke="#CFCFCF" stroke-width="1.0" stroke-linejoin="round"/><polygon points="352.31,173.81 396.92,148.05 396.92,322.27 352.31,348.03" fill="#CFCFCF" stroke="#CFCFCF" stroke-width="1.0" stroke-linejoin="round"/><polygon points="129.23,255.77 84.62,230.01 84.62,404.23 129.23,429.99" fill="#A6A6A6" stroke="#A6A6A6" stroke-width="1.0" stroke-linejoin="round"/><polygon points="506.23,408.80 550.85,383.04 486.15,345.69 441.54,371.45" fill="#EDEDED" stroke="#1A1A1A" stroke-width="1.5" stroke-linejoin="round"/><polygon points="506.23,201.79 441.54,164.44 441.54,329.30 506.23,366.65" fill="#A6A6A6" stroke="#A6A6A6" stroke-width="1.0" stroke-linejoin="round"/><polygon points="441.54,164.44 396.92,190.20 396.92,355.06 441.54,329.30" fill="#CFCFCF" stroke="#CFCFCF" stroke-width="1.0" stroke-linejoin="round"/><polygon points="218.46,335.39 153.77,298.04 153.77,462.89 218.46,500.24" fill="#A6A6A6" stroke="#A6A6A6" stroke-width="1.0" stroke-linejoin="round"/><polygon points="153.77,298.04 109.15,323.79 109.15,488.65 153.77,462.89" fill="#CFCFCF" stroke="#CFCFCF" stroke-width="1.0" stroke-linejoin="round"/><polygon points="173.85,220.64 129.23,194.88 129.23,369.11 173.85,394.87" fill="#A6A6A6" stroke="#A6A6A6" stroke-width="1.0" stroke-linejoin="round"/><polygon points="307.69,157.42 352.31,131.66 352.31,305.88 307.69,331.64" fill="#CFCFCF" stroke="#CFCFCF" stroke-width="1.0" stroke-linejoin="round"/><polygon points="173.85,300.26 109.15,262.91 109.15,427.77 173.85,465.12" fill="#A6A6A6" stroke="#A6A6A6" stroke-width="1.0" stroke-linejoin="round"/><polygon points="461.62,392.41 506.23,366.65 441.54,329.30 396.92,355.06" fill="#EDEDED" stroke="#1A1A1A" stroke-width="1.5" stroke-linejoin="round"/><polygon points="461.62,185.40 396.92,148.05 396.92,312.91 461.62,350.26" fill="#A6A6A6" stroke="#A6A6A6" stroke-width="1.0" stroke-linejoin="round"/><polygon points="109.15,262.91 64.54,288.67 64.54,453.52 109.15,427.77" fill="#CFCFCF" stroke="#CFCFCF" stroke-width="1.0" stroke-linejoin="round"/><polygon points="173.85,526.00 218.46,500.24 153.77,462.89 109.15,488.65" fill="#EDEDED" stroke="#1A1A1A" stroke-width="1.5" stroke-linejoin="round"/><polygon points="396.92,148.05 352.31,173.81 352.31,338.66 396.92,312.91" fill="#CFCFCF" stroke="#CFCFCF" stroke-width="1.0" stroke-linejoin="round"/><polygon points="218.46,185.52 173.85,159.76 173.85,333.98 218.46,359.74" fill="#A6A6A6" stroke="#A6A6A6" stroke-width="1.0" stroke-linejoin="round"/><polygon points="104.69,227.78 40.00,265.13 40.00,429.99 104.69,392.64" fill="#CFCFCF" stroke="#CFCFCF" stroke-width="1.0" stroke-linejoin="round"/><polygon points="263.08,141.02 307.69,115.27 307.69,289.49 263.08,315.25" fill="#CFCFCF" stroke="#CFCFCF" stroke-width="1.0" stroke-linejoin="round"/><polygon points="149.31,253.54 104.69,227.78 104.69,392.64 149.31,418.40" fill="#A6A6A6" stroke="#A6A6A6" stroke-width="1.0" stroke-linejoin="round"/><polygon points="129.23,490.87 173.85,465.12 109.15,427.77 64.54,453.52" fill="#EDEDED" stroke="#1A1A1A" stroke-width="1.5" stroke-linejoin="round"/><polygon points="417.00,376.01 461.62,350.26 396.92,312.91 352.31,338.66" fill="#EDEDED" stroke="#1A1A1A" stroke-width="1.5" stroke-linejoin="round"/><polygon points="263.08,150.39 218.46,124.63 218.46,298.86 263.08,324.61" fill="#A6A6A6" stroke="#A6A6A6" stroke-width="1.0" stroke-linejoin="round"/><polygon points="417.00,169.01 352.31,131.66 352.31,296.51 417.00,333.86" fill="#A6A6A6" stroke="#A6A6A6" stroke-width="1.0" stroke-linejoin="round"/><polygon points="352.31,131.66 307.69,157.42 307.69,322.27 352.31,296.51" fill="#CFCFCF" stroke="#CFCFCF" stroke-width="1.0" stroke-linejoin="round"/><polygon points="149.31,192.66 84.62,230.01 84.62,394.87 149.31,357.51" fill="#CFCFCF" stroke="#CFCFCF" stroke-width="1.0" stroke-linejoin="round"/><polygon points="193.92,218.42 149.31,192.66 149.31,357.51 193.92,383.27" fill="#A6A6A6" stroke="#A6A6A6" stroke-width="1.0" stroke-linejoin="round"/><polygon points="84.62,455.75 149.31,418.40 104.69,392.64 40.00,429.99" fill="#EDEDED" stroke="#1A1A1A" stroke-width="1.5" stroke-linejoin="round"/><polygon points="372.38,359.62 417.00,333.86 352.31,296.51 307.69,322.27" fill="#EDEDED" stroke="#1A1A1A" stroke-width="1.5" stroke-linejoin="round"/><polygon points="193.92,157.53 129.23,194.88 129.23,359.74 193.92,322.39" fill="#CFCFCF" stroke="#CFCFCF" stroke-width="1.0" stroke-linejoin="round"/><polygon points="372.38,152.62 307.69,115.27 307.69,280.12 372.38,317.47" fill="#A6A6A6" stroke="#A6A6A6" stroke-width="1.0" stroke-linejoin="round"/><polygon points="238.54,183.29 193.92,157.53 193.92,322.39 238.54,348.15" fill="#A6A6A6" stroke="#A6A6A6" stroke-width="1.0" stroke-linejoin="round"/><polygon points="307.69,115.27 263.08,141.02 263.08,305.88 307.69,280.12" fill="#CFCFCF" stroke="#CFCFCF" stroke-width="1.0" stroke-linejoin="round"/><polygon points="129.23,420.62 193.92,383.27 149.31,357.51 84.62,394.87" fill="#EDEDED" stroke="#1A1A1A" stroke-width="1.5" stroke-linejoin="round"/><polygon points="238.54,122.41 173.85,159.76 173.85,324.61 238.54,287.26" fill="#CFCFCF" stroke="#CFCFCF" stroke-width="1.0" stroke-linejoin="round"/><polygon points="283.15,148.17 238.54,122.41 238.54,287.26 283.15,313.02" fill="#A6A6A6" stroke="#A6A6A6" stroke-width="1.0" stroke-linejoin="round"/><polygon points="173.85,385.50 238.54,348.15 193.92,322.39 129.23,359.74" fill="#EDEDED" stroke="#1A1A1A" stroke-width="1.5" stroke-linejoin="round"/><polygon points="327.77,343.23 372.38,317.47 307.69,280.12 263.08,305.88" fill="#EDEDED" stroke="#1A1A1A" stroke-width="1.5" stroke-linejoin="round"/><polygon points="327.77,136.22 263.08,98.87 263.08,263.73 327.77,301.08" fill="#A6A6A6" stroke="#A6A6A6" stroke-width="1.0" stroke-linejoin="round"/><polygon points="263.08,98.87 218.46,124.63 218.46,289.49 263.08,263.73" fill="#CFCFCF" stroke="#CFCFCF" stroke-width="1.0" stroke-linejoin="round"/><polygon points="218.46,350.37 283.15,313.02 238.54,287.26 173.85,324.61" fill="#EDEDED" stroke="#1A1A1A" stroke-width="1.5" stroke-linejoin="round"/><polygon points="283.15,326.84 327.77,301.08 263.08,263.73 218.46,289.49" fill="#EDEDED" stroke="#1A1A1A" stroke-width="1.5" stroke-linejoin="round"/></svg>