<svg xmlns="http://www.w3.org/2000/svg" viewBox="0 0 600 600" width="600" height="600"><style>@import url('https://fonts.googleapis.com/css2?family=Noto+Serif+KR:wght@400;600;700&family=Source+Serif+4:ital,wght@0,400;0,600;1,400&family=IBM+Plex+Mono:wght@400;500&display=swap');text{fill:#1A1A1A;font-family:'Noto Serif KR','Source Serif 4',serif}.mono{font-family:'IBM Plex Mono',monospace}.serif{font-family:'Noto Serif KR','Source Serif 4',serif}</style><rect x="0" y="0" width="600" height="600" fill="#FFFFFF"/><polygon points="139.29,555.00 520.84,334.71 460.71,300.00 79.16,520.29" fill="#EDEDED" stroke="#1A1A1A" stroke-width="1.8" stroke-linejoin="round"/><polygon points="460.71,230.58 79.16,450.86 79.16,520.29 460.71,300.00" fill="#CFCFCF" stroke="#1A1A1A" stroke-width="1.8" stroke-linejoin="round"/><polygon points="520.84,265.29 460.71,230.58 460.71,300.00 520.84,334.71" fill="#A6A6A6" stroke="#1A1A1A" stroke-width="1.8" stroke-linejoin="round"/><polygon points="460.71,369.42 520.84,334.71 139.29,114.42 79.16,149.14" fill="#EDEDED" stroke="#1A1A1A" stroke-width="1.8" stroke-linejoin="round"/><polygon points="520.84,265.29 139.29,45.00 139.29,114.42 520.84,334.71" fill="#A6A6A6" stroke="#1A1A1A" stroke-width="1.8" stroke-linejoin="round"/><polygon points="139.29,45.00 79.16,79.71 79.16,149.14 139.29,114.42" fill="#CFCFCF" stroke="#1A1A1A" stroke-width="1.8" stroke-linejoin="round"/><polygon points="139.29,45.00 79.16,79.71 79.16,520.29 139.29,485.58" fill="#CFCFCF" stroke="#1A1A1A" stroke-width="1.8" stroke-linejoin="round"/><polygon points="199.41,79.71 139.29,45.00 139.29,485.58 199.41,520.29" fill="#A6A6A6" stroke="#1A1A1A" stroke-width="1.8" stroke-linejoin="round"/><polygon points="139.29,555.00 199.41,520.29 139.29,485.58 79.16,520.29" fill="#EDEDED" stroke="#1A1A1A" stroke-width="1.8" stroke-linejoin="round"/></svg>