<svg xmlns="http://www.w3.org/2000/svg" viewBox="0 0 620 420" width="620" height="420"><style>@import url('https://fonts.googleapis.com/css2?family=Noto+Serif+KR:wght@400;600;700&family=Source+Serif+4:ital,wght@0,400;0,600;1,400&family=IBM+Plex+Mono:wght@400;500&display=swap');text{fill:#1A1A1A;font-family:'Noto Serif KR','Source Serif 4',serif}.mono{font-family:'IBM Plex Mono',monospace}.serif{font-family:'Noto Serif KR','Source Serif 4',serif}</style><rect x="0" y="0" width="620" height="420" fill="#FFFFFF"/><defs><marker id="ar" markerWidth="9" markerHeight="9" refX="7" refY="4.5" orient="auto"><path d="M0,1 L7,4.5 L0,8 Z" fill="#1A1A1A"/></marker></defs><line x1="130" y1="90" x2="490" y2="90" stroke="#1A1A1A" stroke-width="1.4"/><line x1="190.0" y1="90.0" x2="190.0" y2="98.0" stroke="#888888" stroke-width="1"/><line x1="250.0" y1="90.0" x2="250.0" y2="98.0" stroke="#888888" stroke-width="1"/><line x1="310.0" y1="90.0" x2="310.0" y2="98.0" stroke="#888888" stroke-width="1"/><line x1="370.0" y1="90.0" x2="370.0" y2="98.0" stroke="#888888" stroke-width="1"/><line x1="430.0" y1="90.0" x2="430.0" y2="98.0" stroke="#888888" stroke-width="1"/><line x1="490" y1="90" x2="490" y2="330" stroke="#1A1A1A" stroke-width="1.4"/><line x1="490.0" y1="130.0" x2="498.0" y2="130.0" stroke="#888888" stroke-width="1"/><line x1="490.0" y1="170.0" x2="498.0" y2="170.0" stroke="#888888" stroke-width="1"/><line x1="490.0" y1="210.0" x2="498.0" y2="210.0" stroke="#888888" stroke-width="1"/><line x1="490.0" y1="250.0" x2="498.0" y2="250.0" stroke="#888888" stroke-width="1"/><line x1="490.0" y1="290.0" x2="498.0" y2="290.0" stroke="#888888" stroke-width="1"/><line x1="490" y1="330" x2="130" y2="330" stroke="#1A1A1A" stroke-width="1.4"/><line x1="430.0" y1="330.0" x2="430.0" y2="338.0" stroke="#888888" stroke-width="1"/><line x1="370.0" y1="330.0" x2="370.0" y2="338.0" stroke="#888888" stroke-width="1"/><line x1="310.0" y1="330.0" x2="310.0" y2="338.0" stroke="#888888" stroke-width="1"/><line x1="250.0" y1="330.0" x2="250.0" y2="338.0" stroke="#888888" stroke-width="1"/><line x1="190.0" y1="330.0" x2="190.0" y2="338.0" stroke="#888888" stroke-width="1"/><line x1="130" y1="330" x2="130" y2="90" stroke="#1A1A1A" stroke-width="1.4"/><line x1="130.0" y1="290.0" x2="138.0" y2="290.0" stroke="#888888" stroke-width="1"/><line x1="130.0" y1="250.0" x2="138.0" y2="250.0" stroke="#888888" stroke-width="1"/><line x1="130.0" y1="210.0" x2="138.0" y2="210.0" stroke="#888888" stroke-width="1"/><line x1="130.0" y1="170.0" x2="138.0" y2="170.0" stroke="#888888" stroke-width="1"/><line x1="130.0" y1="130.0" x2="138.0" y2="130.0" stroke="#888888" stroke-width="1"/><line x1="200" y1="90" x2="160" y2="90" stroke="#1A1A1A" stroke-width="1.3" marker-end="url(#ar)"/><line x1="490" y1="160" x2="490" y2="120" stroke="#1A1A1A" stroke-width="1.3" marker-end="url(#ar)"/><line x1="420" y1="330" x2="460" y2="330" stroke="#1A1A1A" stroke-width="1.3" marker-end="url(#ar)"/><line x1="130" y1="260" x2="130" y2="300" stroke="#1A1A1A" stroke-width="1.3" marker-end="url(#ar)"/><rect x="286.0" y="79" width="48" height="22" fill="#FFFFFF"/><text x="310.0" y="94" text-anchor="middle" font-size="12" fill="#555555" class="serif">상승</text><rect x="466" y="199.0" width="48" height="22" fill="#FFFFFF"/><text x="490" y="214.0" text-anchor="middle" font-size="12" fill="#555555" class="serif">상승</text><rect x="286.0" y="319" width="48" height="22" fill="#FFFFFF"/><text x="310.0" y="334" text-anchor="middle" font-size="12" fill="#555555" class="serif">상승</text><rect x="106" y="199.0" width="48" height="22" fill="#FFFFFF"/><text x="130" y="214.0" text-anchor="middle" font-size="12" fill="#555555" class="serif">상승</text><text x="310.0" y="210.0" text-anchor="middle" font-size="12.5" fill="#888888" class="serif" font-style="italic">불가능 도형</text><text x="310.0" y="396" text-anchor="middle" font-size="13" fill="#1A1A1A" class="serif">네 변 모두 오르막 — 끝없는 상승 계단</text></svg>