<svg xmlns="http://www.w3.org/2000/svg" viewBox="0 0 512 512" width="512" height="512"><style>@import url('https://fonts.googleapis.com/css2?family=Noto+Serif+KR:wght@400;600;700&family=Source+Serif+4:ital,wght@0,400;0,600;1,400&family=IBM+Plex+Mono:wght@400;500&display=swap');text{fill:#1A1A1A;font-family:'Noto Serif KR','Source Serif 4',serif}.mono{font-family:'IBM Plex Mono',monospace}.serif{font-family:'Noto Serif KR','Source Serif 4',serif}</style><rect x="0" y="0" width="512" height="512" fill="#FFFFFF"/><path d="M 32.0 0 A 32.0 32.0 0 0 0 0 32.0" fill="none" stroke="#1A1A1A" stroke-width="1.3"/><path d="M 64 32.0 A 32.0 32.0 0 0 0 32.0 64" fill="none" stroke="#1A1A1A" stroke-width="1.3"/><path d="M 32.0 64 A 32.0 32.0 0 0 1 64 96.0" fill="none" stroke="#1A1A1A" stroke-width="1.3"/><path d="M 0 96.0 A 32.0 32.0 0 0 1 32.0 128" fill="none" stroke="#1A1A1A" stroke-width="1.3"/><path d="M 32.0 128 A 32.0 32.0 0 0 0 0 160.0" fill="none" stroke="#1A1A1A" stroke-width="1.3"/><path d="M 64 160.0 A 32.0 32.0 0 0 0 32.0 192" fill="none" stroke="#1A1A1A" stroke-width="1.3"/><path d="M 32.0 192 A 32.0 32.0 0 0 1 64 224.0" fill="none" stroke="#1A1A1A" stroke-width="1.3"/><path d="M 0 224.0 A 32.0 32.0 0 0 1 32.0 256" fill="none" stroke="#1A1A1A" stroke-width="1.3"/><path d="M 32.0 256 A 32.0 32.0 0 0 0 0 288.0" fill="none" stroke="#1A1A1A" stroke-width="1.3"/><path d="M 64 288.0 A 32.0 32.0 0 0 0 32.0 320" fill="none" stroke="#1A1A1A" stroke-width="1.3"/><path d="M 32.0 320 A 32.0 32.0 0 0 1 64 352.0" fill="none" stroke="#1A1A1A" stroke-width="1.3"/><path d="M 0 352.0 A 32.0 32.0 0 0 1 32.0 384" fill="none" stroke="#1A1A1A" stroke-width="1.3"/><path d="M 32.0 384 A 32.0 32.0 0 0 0 0 416.0" fill="none" stroke="#1A1A1A" stroke-width="1.3"/><path d="M 64 416.0 A 32.0 32.0 0 0 0 32.0 448" fill="none" stroke="#1A1A1A" stroke-width="1.3"/><path d="M 32.0 448 A 32.0 32.0 0 0 1 64 480.0" fill="none" stroke="#1A1A1A" stroke-width="1.3"/><path d="M 0 480.0 A 32.0 32.0 0 0 1 32.0 512" fill="none" stroke="#1A1A1A" stroke-width="1.3"/><path d="M 96.0 0 A 32.0 32.0 0 0 1 128 32.0" fill="none" stroke="#1A1A1A" stroke-width="1.3"/><path d="M 64 32.0 A 32.0 32.0 0 0 1 96.0 64" fill="none" stroke="#1A1A1A" stroke-width="1.3"/><path d="M 96.0 64 A 32.0 32.0 0 0 0 64 96.0" fill="none" stroke="#1A1A1A" stroke-width="1.3"/><path d="M 128 96.0 A 32.0 32.0 0 0 0 96.0 128" fill="none" stroke="#1A1A1A" stroke-width="1.3"/><path d="M 96.0 128 A 32.0 32.0 0 0 1 128 160.0" fill="none" stroke="#1A1A1A" stroke-width="1.3"/><path d="M 64 160.0 A 32.0 32.0 0 0 1 96.0 192" fill="none" stroke="#1A1A1A" stroke-width="1.3"/><path d="M 96.0 192 A 32.0 32.0 0 0 0 64 224.0" fill="none" stroke="#1A1A1A" stroke-width="1.3"/><path d="M 128 224.0 A 32.0 32.0 0 0 0 96.0 256" fill="none" stroke="#1A1A1A" stroke-width="1.3"/><path d="M 96.0 256 A 32.0 32.0 0 0 1 128 288.0" fill="none" stroke="#1A1A1A" stroke-width="1.3"/><path d="M 64 288.0 A 32.0 32.0 0 0 1 96.0 320" fill="none" stroke="#1A1A1A" stroke-width="1.3"/><path d="M 96.0 320 A 32.0 32.0 0 0 0 64 352.0" fill="none" stroke="#1A1A1A" stroke-width="1.3"/><path d="M 128 352.0 A 32.0 32.0 0 0 0 96.0 384" fill="none" stroke="#1A1A1A" stroke-width="1.3"/><path d="M 96.0 384 A 32.0 32.0 0 0 1 128 416.0" fill="none" stroke="#1A1A1A" stroke-width="1.3"/><path d="M 64 416.0 A 32.0 32.0 0 0 1 96.0 448" fill="none" stroke="#1A1A1A" stroke-width="1.3"/><path d="M 96.0 448 A 32.0 32.0 0 0 0 64 480.0" fill="none" stroke="#1A1A1A" stroke-width="1.3"/><path d="M 128 480.0 A 32.0 32.0 0 0 0 96.0 512" fill="none" stroke="#1A1A1A" stroke-width="1.3"/><path d="M 160.0 0 A 32.0 32.0 0 0 0 128 32.0" fill="none" stroke="#1A1A1A" stroke-width="1.3"/><path d="M 192 32.0 A 32.0 32.0 0 0 0 160.0 64" fill="none" stroke="#1A1A1A" stroke-width="1.3"/><path d="M 160.0 64 A 32.0 32.0 0 0 1 192 96.0" fill="none" stroke="#1A1A1A" stroke-width="1.3"/><path d="M 128 96.0 A 32.0 32.0 0 0 1 160.0 128" fill="none" stroke="#1A1A1A" stroke-width="1.3"/><path d="M 160.0 128 A 32.0 32.0 0 0 0 128 160.0" fill="none" stroke="#1A1A1A" stroke-width="1.3"/><path d="M 192 160.0 A 32.0 32.0 0 0 0 160.0 192" fill="none" stroke="#1A1A1A" stroke-width="1.3"/><path d="M 160.0 192 A 32.0 32.0 0 0 1 192 224.0" fill="none" stroke="#1A1A1A" stroke-width="1.3"/><path d="M 128 224.0 A 32.0 32.0 0 0 1 160.0 256" fill="none" stroke="#1A1A1A" stroke-width="1.3"/><path d="M 160.0 256 A 32.0 32.0 0 0 0 128 288.0" fill="none" stroke="#1A1A1A" stroke-width="1.3"/><path d="M 192 288.0 A 32.0 32.0 0 0 0 160.0 320" fill="none" stroke="#1A1A1A" stroke-width="1.3"/><path d="M 160.0 320 A 32.0 32.0 0 0 1 192 352.0" fill="none" stroke="#1A1A1A" stroke-width="1.3"/><path d="M 128 352.0 A 32.0 32.0 0 0 1 160.0 384" fill="none" stroke="#1A1A1A" stroke-width="1.3"/><path d="M 160.0 384 A 32.0 32.0 0 0 0 128 416.0" fill="none" stroke="#1A1A1A" stroke-width="1.3"/><path d="M 192 416.0 A 32.0 32.0 0 0 0 160.0 448" fill="none" stroke="#1A1A1A" stroke-width="1.3"/><path d="M 160.0 448 A 32.0 32.0 0 0 1 192 480.0" fill="none" stroke="#1A1A1A" stroke-width="1.3"/><path d="M 128 480.0 A 32.0 32.0 0 0 1 160.0 512" fill="none" stroke="#1A1A1A" stroke-width="1.3"/><path d="M 224.0 0 A 32.0 32.0 0 0 1 256 32.0" fill="none" stroke="#1A1A1A" stroke-width="1.3"/><path d="M 192 32.0 A 32.0 32.0 0 0 1 224.0 64" fill="none" stroke="#1A1A1A" stroke-width="1.3"/><path d="M 224.0 64 A 32.0 32.0 0 0 0 192 96.0" fill="none" stroke="#1A1A1A" stroke-width="1.3"/><path d="M 256 96.0 A 32.0 32.0 0 0 0 224.0 128" fill="none" stroke="#1A1A1A" stroke-width="1.3"/><path d="M 224.0 128 A 32.0 32.0 0 0 1 256 160.0" fill="none" stroke="#1A1A1A" stroke-width="1.3"/><path d="M 192 160.0 A 32.0 32.0 0 0 1 224.0 192" fill="none" stroke="#1A1A1A" stroke-width="1.3"/><path d="M 224.0 192 A 32.0 32.0 0 0 0 192 224.0" fill="none" stroke="#1A1A1A" stroke-width="1.3"/><path d="M 256 224.0 A 32.0 32.0 0 0 0 224.0 256" fill="none" stroke="#1A1A1A" stroke-width="1.3"/><path d="M 224.0 256 A 32.0 32.0 0 0 1 256 288.0" fill="none" stroke="#1A1A1A" stroke-width="1.3"/><path d="M 192 288.0 A 32.0 32.0 0 0 1 224.0 320" fill="none" stroke="#1A1A1A" stroke-width="1.3"/><path d="M 224.0 320 A 32.0 32.0 0 0 0 192 352.0" fill="none" stroke="#1A1A1A" stroke-width="1.3"/><path d="M 256 352.0 A 32.0 32.0 0 0 0 224.0 384" fill="none" stroke="#1A1A1A" stroke-width="1.3"/><path d="M 224.0 384 A 32.0 32.0 0 0 1 256 416.0" fill="none" stroke="#1A1A1A" stroke-width="1.3"/><path d="M 192 416.0 A 32.0 32.0 0 0 1 224.0 448" fill="none" stroke="#1A1A1A" stroke-width="1.3"/><path d="M 224.0 448 A 32.0 32.0 0 0 0 192 480.0" fill="none" stroke="#1A1A1A" stroke-width="1.3"/><path d="M 256 480.0 A 32.0 32.0 0 0 0 224.0 512" fill="none" stroke="#1A1A1A" stroke-width="1.3"/><path d="M 288.0 0 A 32.0 32.0 0 0 0 256 32.0" fill="none" stroke="#1A1A1A" stroke-width="1.3"/><path d="M 320 32.0 A 32.0 32.0 0 0 0 288.0 64" fill="none" stroke="#1A1A1A" stroke-width="1.3"/><path d="M 288.0 64 A 32.0 32.0 0 0 1 320 96.0" fill="none" stroke="#1A1A1A" stroke-width="1.3"/><path d="M 256 96.0 A 32.0 32.0 0 0 1 288.0 128" fill="none" stroke="#1A1A1A" stroke-width="1.3"/><path d="M 288.0 128 A 32.0 32.0 0 0 0 256 160.0" fill="none" stroke="#1A1A1A" stroke-width="1.3"/><path d="M 320 160.0 A 32.0 32.0 0 0 0 288.0 192" fill="none" stroke="#1A1A1A" stroke-width="1.3"/><path d="M 288.0 192 A 32.0 32.0 0 0 1 320 224.0" fill="none" stroke="#1A1A1A" stroke-width="1.3"/><path d="M 256 224.0 A 32.0 32.0 0 0 1 288.0 256" fill="none" stroke="#1A1A1A" stroke-width="1.3"/><path d="M 288.0 256 A 32.0 32.0 0 0 0 256 288.0" fill="none" stroke="#1A1A1A" stroke-width="1.3"/><path d="M 320 288.0 A 32.0 32.0 0 0 0 288.0 320" fill="none" stroke="#1A1A1A" stroke-width="1.3"/><path d="M 288.0 320 A 32.0 32.0 0 0 1 320 352.0" fill="none" stroke="#1A1A1A" stroke-width="1.3"/><path d="M 256 352.0 A 32.0 32.0 0 0 1 288.0 384" fill="none" stroke="#1A1A1A" stroke-width="1.3"/><path d="M 288.0 384 A 32.0 32.0 0 0 0 256 416.0" fill="none" stroke="#1A1A1A" stroke-width="1.3"/><path d="M 320 416.0 A 32.0 32.0 0 0 0 288.0 448" fill="none" stroke="#1A1A1A" stroke-width="1.3"/><path d="M 288.0 448 A 32.0 32.0 0 0 1 320 480.0" fill="none" stroke="#1A1A1A" stroke-width="1.3"/><path d="M 256 480.0 A 32.0 32.0 0 0 1 288.0 512" fill="none" stroke="#1A1A1A" stroke-width="1.3"/><path d="M 352.0 0 A 32.0 32.0 0 0 1 384 32.0" fill="none" stroke="#1A1A1A" stroke-width="1.3"/><path d="M 320 32.0 A 32.0 32.0 0 0 1 352.0 64" fill="none" stroke="#1A1A1A" stroke-width="1.3"/><path d="M 352.0 64 A 32.0 32.0 0 0 0 320 96.0" fill="none" stroke="#1A1A1A" stroke-width="1.3"/><path d="M 384 96.0 A 32.0 32.0 0 0 0 352.0 128" fill="none" stroke="#1A1A1A" stroke-width="1.3"/><path d="M 352.0 128 A 32.0 32.0 0 0 1 384 160.0" fill="none" stroke="#1A1A1A" stroke-width="1.3"/><path d="M 320 160.0 A 32.0 32.0 0 0 1 352.0 192" fill="none" stroke="#1A1A1A" stroke-width="1.3"/><path d="M 352.0 192 A 32.0 32.0 0 0 0 320 224.0" fill="none" stroke="#1A1A1A" stroke-width="1.3"/><path d="M 384 224.0 A 32.0 32.0 0 0 0 352.0 256" fill="none" stroke="#1A1A1A" stroke-width="1.3"/><path d="M 352.0 256 A 32.0 32.0 0 0 1 384 288.0" fill="none" stroke="#1A1A1A" stroke-width="1.3"/><path d="M 320 288.0 A 32.0 32.0 0 0 1 352.0 320" fill="none" stroke="#1A1A1A" stroke-width="1.3"/><path d="M 352.0 320 A 32.0 32.0 0 0 0 320 352.0" fill="none" stroke="#1A1A1A" stroke-width="1.3"/><path d="M 384 352.0 A 32.0 32.0 0 0 0 352.0 384" fill="none" stroke="#1A1A1A" stroke-width="1.3"/><path d="M 352.0 384 A 32.0 32.0 0 0 1 384 416.0" fill="none" stroke="#1A1A1A" stroke-width="1.3"/><path d="M 320 416.0 A 32.0 32.0 0 0 1 352.0 448" fill="none" stroke="#1A1A1A" stroke-width="1.3"/><path d="M 352.0 448 A 32.0 32.0 0 0 0 320 480.0" fill="none" stroke="#1A1A1A" stroke-width="1.3"/><path d="M 384 480.0 A 32.0 32.0 0 0 0 352.0 512" fill="none" stroke="#1A1A1A" stroke-width="1.3"/><path d="M 416.0 0 A 32.0 32.0 0 0 0 384 32.0" fill="none" stroke="#1A1A1A" stroke-width="1.3"/><path d="M 448 32.0 A 32.0 32.0 0 0 0 416.0 64" fill="none" stroke="#1A1A1A" stroke-width="1.3"/><path d="M 416.0 64 A 32.0 32.0 0 0 1 448 96.0" fill="none" stroke="#1A1A1A" stroke-width="1.3"/><path d="M 384 96.0 A 32.0 32.0 0 0 1 416.0 128" fill="none" stroke="#1A1A1A" stroke-width="1.3"/><path d="M 416.0 128 A 32.0 32.0 0 0 0 384 160.0" fill="none" stroke="#1A1A1A" stroke-width="1.3"/><path d="M 448 160.0 A 32.0 32.0 0 0 0 416.0 192" fill="none" stroke="#1A1A1A" stroke-width="1.3"/><path d="M 416.0 192 A 32.0 32.0 0 0 1 448 224.0" fill="none" stroke="#1A1A1A" stroke-width="1.3"/><path d="M 384 224.0 A 32.0 32.0 0 0 1 416.0 256" fill="none" stroke="#1A1A1A" stroke-width="1.3"/><path d="M 416.0 256 A 32.0 32.0 0 0 0 384 288.0" fill="none" stroke="#1A1A1A" stroke-width="1.3"/><path d="M 448 288.0 A 32.0 32.0 0 0 0 416.0 320" fill="none" stroke="#1A1A1A" stroke-width="1.3"/><path d="M 416.0 320 A 32.0 32.0 0 0 1 448 352.0" fill="none" stroke="#1A1A1A" stroke-width="1.3"/><path d="M 384 352.0 A 32.0 32.0 0 0 1 416.0 384" fill="none" stroke="#1A1A1A" stroke-width="1.3"/><path d="M 416.0 384 A 32.0 32.0 0 0 0 384 416.0" fill="none" stroke="#1A1A1A" stroke-width="1.3"/><path d="M 448 416.0 A 32.0 32.0 0 0 0 416.0 448" fill="none" stroke="#1A1A1A" stroke-width="1.3"/><path d="M 416.0 448 A 32.0 32.0 0 0 1 448 480.0" fill="none" stroke="#1A1A1A" stroke-width="1.3"/><path d="M 384 480.0 A 32.0 32.0 0 0 1 416.0 512" fill="none" stroke="#1A1A1A" stroke-width="1.3"/><path d="M 480.0 0 A 32.0 32.0 0 0 1 512 32.0" fill="none" stroke="#1A1A1A" stroke-width="1.3"/><path d="M 448 32.0 A 32.0 32.0 0 0 1 480.0 64" fill="none" stroke="#1A1A1A" stroke-width="1.3"/><path d="M 480.0 64 A 32.0 32.0 0 0 0 448 96.0" fill="none" stroke="#1A1A1A" stroke-width="1.3"/><path d="M 512 96.0 A 32.0 32.0 0 0 0 480.0 128" fill="none" stroke="#1A1A1A" stroke-width="1.3"/><path d="M 480.0 128 A 32.0 32.0 0 0 1 512 160.0" fill="none" stroke="#1A1A1A" stroke-width="1.3"/><path d="M 448 160.0 A 32.0 32.0 0 0 1 480.0 192" fill="none" stroke="#1A1A1A" stroke-width="1.3"/><path d="M 480.0 192 A 32.0 32.0 0 0 0 448 224.0" fill="none" stroke="#1A1A1A" stroke-width="1.3"/><path d="M 512 224.0 A 32.0 32.0 0 0 0 480.0 256" fill="none" stroke="#1A1A1A" stroke-width="1.3"/><path d="M 480.0 256 A 32.0 32.0 0 0 1 512 288.0" fill="none" stroke="#1A1A1A" stroke-width="1.3"/><path d="M 448 288.0 A 32.0 32.0 0 0 1 480.0 320" fill="none" stroke="#1A1A1A" stroke-width="1.3"/><path d="M 480.0 320 A 32.0 32.0 0 0 0 448 352.0" fill="none" stroke="#1A1A1A" stroke-width="1.3"/><path d="M 512 352.0 A 32.0 32.0 0 0 0 480.0 384" fill="none" stroke="#1A1A1A" stroke-width="1.3"/><path d="M 480.0 384 A 32.0 32.0 0 0 1 512 416.0" fill="none" stroke="#1A1A1A" stroke-width="1.3"/><path d="M 448 416.0 A 32.0 32.0 0 0 1 480.0 448" fill="none" stroke="#1A1A1A" stroke-width="1.3"/><path d="M 480.0 448 A 32.0 32.0 0 0 0 448 480.0" fill="none" stroke="#1A1A1A" stroke-width="1.3"/><path d="M 512 480.0 A 32.0 32.0 0 0 0 480.0 512" fill="none" stroke="#1A1A1A" stroke-width="1.3"/></svg>